%TF.GenerationSoftware,KiCad,Pcbnew,(6.0.11)*%
%TF.CreationDate,2024-08-05T21:32:57+07:00*%
%TF.ProjectId,Stepper_Motor_Expansion_Brd_revA,53746570-7065-4725-9f4d-6f746f725f45,rev?*%
%TF.SameCoordinates,PX5f5e100PY5f5e100*%
%TF.FileFunction,Other,User*%
%FSLAX46Y46*%
G04 Gerber Fmt 4.6, Leading zero omitted, Abs format (unit mm)*
G04 Created by KiCad (PCBNEW (6.0.11)) date 2024-08-05 21:32:57*
%MOMM*%
%LPD*%
G01*
G04 APERTURE LIST*
%ADD10C,0.100000*%
%ADD11C,0.050000*%
G04 APERTURE END LIST*
D10*
X44700000Y2250000D02*
X14100000Y2250000D01*
X14100000Y10350000D01*
X44700000Y10350000D01*
X44700000Y2250000D01*
D11*
X8260000Y54670000D02*
X18760000Y54670000D01*
X8260000Y46570000D02*
X8260000Y54670000D01*
X18760000Y46570000D02*
X8260000Y46570000D01*
X18760000Y54670000D02*
X18760000Y46570000D01*
X53670000Y54890000D02*
X62270000Y54890000D01*
X53670000Y47390000D02*
X53670000Y54890000D01*
X62270000Y54890000D02*
X62270000Y47390000D01*
X62270000Y47390000D02*
X53670000Y47390000D01*
X45400000Y34260000D02*
X48700000Y34260000D01*
X45400000Y32800000D02*
X45400000Y34260000D01*
X48700000Y32800000D02*
X45400000Y32800000D01*
X48700000Y34260000D02*
X48700000Y32800000D01*
X17130000Y42990000D02*
X17130000Y38490000D01*
X17130000Y38490000D02*
X9830000Y38490000D01*
X9830000Y38490000D02*
X9830000Y42990000D01*
X9830000Y42990000D02*
X17130000Y42990000D01*
X22760000Y17450000D02*
X26360000Y17450000D01*
X22760000Y23600000D02*
X22760000Y17450000D01*
X26360000Y17450000D02*
X26360000Y23600000D01*
X26360000Y23600000D02*
X22760000Y23600000D01*
X56320000Y44630000D02*
X59620000Y44630000D01*
X59620000Y43170000D02*
X56320000Y43170000D01*
X59620000Y44630000D02*
X59620000Y43170000D01*
X56320000Y43170000D02*
X56320000Y44630000D01*
X26740000Y27080000D02*
X26740000Y28900000D01*
X27660000Y28900000D02*
X27660000Y27080000D01*
X27660000Y27080000D02*
X26740000Y27080000D01*
X26740000Y28900000D02*
X27660000Y28900000D01*
X24760000Y31500000D02*
X23300000Y31500000D01*
X23300000Y31500000D02*
X23300000Y34800000D01*
X23300000Y34800000D02*
X24760000Y34800000D01*
X24760000Y34800000D02*
X24760000Y31500000D01*
X56910000Y26890000D02*
X56910000Y34290000D01*
X51510000Y34290000D02*
X51510000Y26890000D01*
X51510000Y26890000D02*
X56910000Y26890000D01*
X56910000Y34290000D02*
X51510000Y34290000D01*
X38950000Y29640000D02*
X38950000Y27820000D01*
X38030000Y27820000D02*
X38030000Y29640000D01*
X38030000Y29640000D02*
X38950000Y29640000D01*
X38950000Y27820000D02*
X38030000Y27820000D01*
X31400000Y19950000D02*
X30250000Y18800000D01*
X36200000Y19950000D02*
X37350000Y18800000D01*
X32750000Y11700000D02*
X32750000Y12850000D01*
X32750000Y19950000D02*
X31400000Y19950000D01*
X37350000Y18800000D02*
X37350000Y12850000D01*
X32750000Y12850000D02*
X30250000Y12850000D01*
X32750000Y21100000D02*
X32750000Y19950000D01*
X36200000Y19950000D02*
X34850000Y19950000D01*
X34850000Y19950000D02*
X34850000Y21100000D01*
X30250000Y18800000D02*
X30250000Y12850000D01*
X37350000Y12850000D02*
X34850000Y12850000D01*
X34850000Y11700000D02*
X32750000Y11700000D01*
X34850000Y12850000D02*
X34850000Y11700000D01*
X34850000Y21100000D02*
X32750000Y21100000D01*
X19770000Y32980000D02*
X21230000Y32980000D01*
X19770000Y29680000D02*
X19770000Y32980000D01*
X21230000Y32980000D02*
X21230000Y29680000D01*
X21230000Y29680000D02*
X19770000Y29680000D01*
M02*
