%TF.GenerationSoftware,KiCad,Pcbnew,(6.0.11)*%
%TF.CreationDate,2024-08-05T21:32:57+07:00*%
%TF.ProjectId,Stepper_Motor_Expansion_Brd_revA,53746570-7065-4725-9f4d-6f746f725f45,rev?*%
%TF.SameCoordinates,PX5f5e100PY5f5e100*%
%TF.FileFunction,Profile,NP*%
%FSLAX46Y46*%
G04 Gerber Fmt 4.6, Leading zero omitted, Abs format (unit mm)*
G04 Created by KiCad (PCBNEW (6.0.11)) date 2024-08-05 21:32:57*
%MOMM*%
%LPD*%
G01*
G04 APERTURE LIST*
%TA.AperFunction,Profile*%
%ADD10C,0.100000*%
%TD*%
G04 APERTURE END LIST*
D10*
X20000000Y38000000D02*
G75*
G03*
X22000000Y36000000I2000000J0D01*
G01*
X2000000Y57000000D02*
X18000000Y57000000D01*
X11000000Y2000000D02*
X13000000Y0D01*
X70000000Y55000000D02*
G75*
G03*
X68000000Y57000000I-2000000J0D01*
G01*
X2000000Y2000000D02*
X11000000Y2000000D01*
X2000000Y57000000D02*
G75*
G03*
X0Y55000000I0J-2000000D01*
G01*
X20000000Y55000000D02*
X20000000Y38000000D01*
X55000000Y57000000D02*
G75*
G03*
X53000000Y55000000I0J-2000000D01*
G01*
X53000000Y55000000D02*
X53000000Y38000000D01*
X20000000Y55000000D02*
G75*
G03*
X18000000Y57000000I-2000000J0D01*
G01*
X46000000Y0D02*
X48000000Y2000000D01*
X48000000Y2000000D02*
X68000000Y2000000D01*
X0Y4000000D02*
G75*
G03*
X2000000Y2000000I2000000J0D01*
G01*
X68000000Y57000000D02*
X55000000Y57000000D01*
X70000000Y4000000D02*
X70000000Y55000000D01*
X13000000Y0D02*
X46000000Y0D01*
X68000000Y2000000D02*
G75*
G03*
X70000000Y4000000I0J2000000D01*
G01*
X51000000Y36000000D02*
G75*
G03*
X53000000Y38000000I0J2000000D01*
G01*
X22000000Y36000000D02*
X51000000Y36000000D01*
X0Y4000000D02*
X0Y55000000D01*
M02*
