%TF.GenerationSoftware,KiCad,Pcbnew,(6.0.11)*%
%TF.CreationDate,2024-08-05T21:32:58+07:00*%
%TF.ProjectId,Stepper_Motor_Expansion_Brd_revA,53746570-7065-4725-9f4d-6f746f725f45,rev?*%
%TF.SameCoordinates,PX5f5e100PY5f5e100*%
%TF.FileFunction,AssemblyDrawing,Bot*%
%FSLAX46Y46*%
G04 Gerber Fmt 4.6, Leading zero omitted, Abs format (unit mm)*
G04 Created by KiCad (PCBNEW (6.0.11)) date 2024-08-05 21:32:58*
%MOMM*%
%LPD*%
G01*
G04 APERTURE LIST*
%ADD10C,0.080000*%
%ADD11C,0.060000*%
%ADD12C,0.040000*%
%ADD13C,0.150000*%
%ADD14C,0.100000*%
%ADD15C,0.250000*%
G04 APERTURE END LIST*
D10*
X41133333Y25103810D02*
X41300000Y25341905D01*
X41419047Y25103810D02*
X41419047Y25603810D01*
X41228571Y25603810D01*
X41180952Y25580000D01*
X41157142Y25556191D01*
X41133333Y25508572D01*
X41133333Y25437143D01*
X41157142Y25389524D01*
X41180952Y25365715D01*
X41228571Y25341905D01*
X41419047Y25341905D01*
X40966666Y25603810D02*
X40633333Y25603810D01*
X40847619Y25103810D01*
D11*
X37086666Y32097143D02*
X37105714Y32078096D01*
X37162857Y32059048D01*
X37200952Y32059048D01*
X37258095Y32078096D01*
X37296190Y32116191D01*
X37315238Y32154286D01*
X37334285Y32230477D01*
X37334285Y32287620D01*
X37315238Y32363810D01*
X37296190Y32401905D01*
X37258095Y32440000D01*
X37200952Y32459048D01*
X37162857Y32459048D01*
X37105714Y32440000D01*
X37086666Y32420953D01*
X36724761Y32459048D02*
X36915238Y32459048D01*
X36934285Y32268572D01*
X36915238Y32287620D01*
X36877142Y32306667D01*
X36781904Y32306667D01*
X36743809Y32287620D01*
X36724761Y32268572D01*
X36705714Y32230477D01*
X36705714Y32135239D01*
X36724761Y32097143D01*
X36743809Y32078096D01*
X36781904Y32059048D01*
X36877142Y32059048D01*
X36915238Y32078096D01*
X36934285Y32097143D01*
X35326666Y34099048D02*
X35460000Y34289524D01*
X35555238Y34099048D02*
X35555238Y34499048D01*
X35402857Y34499048D01*
X35364761Y34480000D01*
X35345714Y34460953D01*
X35326666Y34422858D01*
X35326666Y34365715D01*
X35345714Y34327620D01*
X35364761Y34308572D01*
X35402857Y34289524D01*
X35555238Y34289524D01*
X34964761Y34499048D02*
X35155238Y34499048D01*
X35174285Y34308572D01*
X35155238Y34327620D01*
X35117142Y34346667D01*
X35021904Y34346667D01*
X34983809Y34327620D01*
X34964761Y34308572D01*
X34945714Y34270477D01*
X34945714Y34175239D01*
X34964761Y34137143D01*
X34983809Y34118096D01*
X35021904Y34099048D01*
X35117142Y34099048D01*
X35155238Y34118096D01*
X35174285Y34137143D01*
D12*
X54411666Y25150715D02*
X54423571Y25138810D01*
X54459285Y25126905D01*
X54483095Y25126905D01*
X54518809Y25138810D01*
X54542619Y25162620D01*
X54554523Y25186429D01*
X54566428Y25234048D01*
X54566428Y25269762D01*
X54554523Y25317381D01*
X54542619Y25341191D01*
X54518809Y25365000D01*
X54483095Y25376905D01*
X54459285Y25376905D01*
X54423571Y25365000D01*
X54411666Y25353096D01*
X54173571Y25126905D02*
X54316428Y25126905D01*
X54245000Y25126905D02*
X54245000Y25376905D01*
X54268809Y25341191D01*
X54292619Y25317381D01*
X54316428Y25305477D01*
D13*
X33052380Y26961905D02*
X33861904Y26961905D01*
X33957142Y26914286D01*
X34004761Y26866667D01*
X34052380Y26771429D01*
X34052380Y26580953D01*
X34004761Y26485715D01*
X33957142Y26438096D01*
X33861904Y26390477D01*
X33052380Y26390477D01*
X33147619Y25961905D02*
X33100000Y25914286D01*
X33052380Y25819048D01*
X33052380Y25580953D01*
X33100000Y25485715D01*
X33147619Y25438096D01*
X33242857Y25390477D01*
X33338095Y25390477D01*
X33480952Y25438096D01*
X34052380Y26009524D01*
X34052380Y25390477D01*
D10*
X26353333Y25093810D02*
X26520000Y25331905D01*
X26639047Y25093810D02*
X26639047Y25593810D01*
X26448571Y25593810D01*
X26400952Y25570000D01*
X26377142Y25546191D01*
X26353333Y25498572D01*
X26353333Y25427143D01*
X26377142Y25379524D01*
X26400952Y25355715D01*
X26448571Y25331905D01*
X26639047Y25331905D01*
X25924761Y25593810D02*
X26020000Y25593810D01*
X26067619Y25570000D01*
X26091428Y25546191D01*
X26139047Y25474762D01*
X26162857Y25379524D01*
X26162857Y25189048D01*
X26139047Y25141429D01*
X26115238Y25117620D01*
X26067619Y25093810D01*
X25972380Y25093810D01*
X25924761Y25117620D01*
X25900952Y25141429D01*
X25877142Y25189048D01*
X25877142Y25308096D01*
X25900952Y25355715D01*
X25924761Y25379524D01*
X25972380Y25403334D01*
X26067619Y25403334D01*
X26115238Y25379524D01*
X26139047Y25355715D01*
X26162857Y25308096D01*
D12*
X37479285Y29491667D02*
X37491190Y29503572D01*
X37503095Y29539286D01*
X37503095Y29563096D01*
X37491190Y29598810D01*
X37467380Y29622620D01*
X37443571Y29634524D01*
X37395952Y29646429D01*
X37360238Y29646429D01*
X37312619Y29634524D01*
X37288809Y29622620D01*
X37265000Y29598810D01*
X37253095Y29563096D01*
X37253095Y29539286D01*
X37265000Y29503572D01*
X37276904Y29491667D01*
X37253095Y29408334D02*
X37253095Y29253572D01*
X37348333Y29336905D01*
X37348333Y29301191D01*
X37360238Y29277381D01*
X37372142Y29265477D01*
X37395952Y29253572D01*
X37455476Y29253572D01*
X37479285Y29265477D01*
X37491190Y29277381D01*
X37503095Y29301191D01*
X37503095Y29372620D01*
X37491190Y29396429D01*
X37479285Y29408334D01*
X36499285Y30441667D02*
X36511190Y30453572D01*
X36523095Y30489286D01*
X36523095Y30513096D01*
X36511190Y30548810D01*
X36487380Y30572620D01*
X36463571Y30584524D01*
X36415952Y30596429D01*
X36380238Y30596429D01*
X36332619Y30584524D01*
X36308809Y30572620D01*
X36285000Y30548810D01*
X36273095Y30513096D01*
X36273095Y30489286D01*
X36285000Y30453572D01*
X36296904Y30441667D01*
X36296904Y30346429D02*
X36285000Y30334524D01*
X36273095Y30310715D01*
X36273095Y30251191D01*
X36285000Y30227381D01*
X36296904Y30215477D01*
X36320714Y30203572D01*
X36344523Y30203572D01*
X36380238Y30215477D01*
X36523095Y30358334D01*
X36523095Y30203572D01*
X41941666Y28540715D02*
X41953571Y28528810D01*
X41989285Y28516905D01*
X42013095Y28516905D01*
X42048809Y28528810D01*
X42072619Y28552620D01*
X42084523Y28576429D01*
X42096428Y28624048D01*
X42096428Y28659762D01*
X42084523Y28707381D01*
X42072619Y28731191D01*
X42048809Y28755000D01*
X42013095Y28766905D01*
X41989285Y28766905D01*
X41953571Y28755000D01*
X41941666Y28743096D01*
X41822619Y28516905D02*
X41775000Y28516905D01*
X41751190Y28528810D01*
X41739285Y28540715D01*
X41715476Y28576429D01*
X41703571Y28624048D01*
X41703571Y28719286D01*
X41715476Y28743096D01*
X41727380Y28755000D01*
X41751190Y28766905D01*
X41798809Y28766905D01*
X41822619Y28755000D01*
X41834523Y28743096D01*
X41846428Y28719286D01*
X41846428Y28659762D01*
X41834523Y28635953D01*
X41822619Y28624048D01*
X41798809Y28612143D01*
X41751190Y28612143D01*
X41727380Y28624048D01*
X41715476Y28635953D01*
X41703571Y28659762D01*
D10*
X33483333Y32311429D02*
X33507142Y32287620D01*
X33578571Y32263810D01*
X33626190Y32263810D01*
X33697619Y32287620D01*
X33745238Y32335239D01*
X33769047Y32382858D01*
X33792857Y32478096D01*
X33792857Y32549524D01*
X33769047Y32644762D01*
X33745238Y32692381D01*
X33697619Y32740000D01*
X33626190Y32763810D01*
X33578571Y32763810D01*
X33507142Y32740000D01*
X33483333Y32716191D01*
X33054761Y32763810D02*
X33150000Y32763810D01*
X33197619Y32740000D01*
X33221428Y32716191D01*
X33269047Y32644762D01*
X33292857Y32549524D01*
X33292857Y32359048D01*
X33269047Y32311429D01*
X33245238Y32287620D01*
X33197619Y32263810D01*
X33102380Y32263810D01*
X33054761Y32287620D01*
X33030952Y32311429D01*
X33007142Y32359048D01*
X33007142Y32478096D01*
X33030952Y32525715D01*
X33054761Y32549524D01*
X33102380Y32573334D01*
X33197619Y32573334D01*
X33245238Y32549524D01*
X33269047Y32525715D01*
X33292857Y32478096D01*
D12*
X32129285Y21931667D02*
X32141190Y21943572D01*
X32153095Y21979286D01*
X32153095Y22003096D01*
X32141190Y22038810D01*
X32117380Y22062620D01*
X32093571Y22074524D01*
X32045952Y22086429D01*
X32010238Y22086429D01*
X31962619Y22074524D01*
X31938809Y22062620D01*
X31915000Y22038810D01*
X31903095Y22003096D01*
X31903095Y21979286D01*
X31915000Y21943572D01*
X31926904Y21931667D01*
X31986428Y21717381D02*
X32153095Y21717381D01*
X31891190Y21776905D02*
X32069761Y21836429D01*
X32069761Y21681667D01*
D14*
X40050000Y24705000D02*
X42050000Y24705000D01*
X42050000Y24705000D02*
X42050000Y25955000D01*
X42050000Y25955000D02*
X40050000Y25955000D01*
X40050000Y25955000D02*
X40050000Y24705000D01*
X37820000Y32640000D02*
X36220000Y32640000D01*
X36220000Y31840000D02*
X37820000Y31840000D01*
X36220000Y32640000D02*
X36220000Y31840000D01*
X37820000Y31840000D02*
X37820000Y32640000D01*
X6995000Y52285000D02*
X6995000Y3515000D01*
X2045000Y52285000D02*
X6995000Y52285000D01*
X2045000Y3515000D02*
X2045000Y52285000D01*
X6995000Y3515000D02*
X2045000Y3515000D01*
D15*
X1120000Y50760000D02*
G75*
G03*
X1120000Y50760000I-100000J0D01*
G01*
D14*
X34460000Y34692500D02*
X34460000Y33867500D01*
X36060000Y33867500D02*
X36060000Y34692500D01*
X34460000Y33867500D02*
X36060000Y33867500D01*
X36060000Y34692500D02*
X34460000Y34692500D01*
X54870000Y24990000D02*
X54870000Y25490000D01*
X53870000Y24990000D02*
X54870000Y24990000D01*
X53870000Y25490000D02*
X53870000Y24990000D01*
X54870000Y25490000D02*
X53870000Y25490000D01*
X30600000Y28700000D02*
X30600000Y23700000D01*
X36600000Y28700000D02*
X30600000Y28700000D01*
X30600000Y23700000D02*
X35600000Y23700000D01*
X36600000Y24700000D02*
X36600000Y28700000D01*
X35600000Y23700000D02*
X36600000Y24700000D01*
X25270000Y25945000D02*
X25270000Y24695000D01*
X27270000Y24695000D02*
X27270000Y25945000D01*
X27270000Y25945000D02*
X25270000Y25945000D01*
X25270000Y24695000D02*
X27270000Y24695000D01*
X37140000Y29950000D02*
X37140000Y28950000D01*
X37640000Y29950000D02*
X37140000Y29950000D01*
X37640000Y28950000D02*
X37640000Y29950000D01*
X37140000Y28950000D02*
X37640000Y28950000D01*
X36160000Y30900000D02*
X36160000Y29900000D01*
X36160000Y29900000D02*
X36660000Y29900000D01*
X36660000Y29900000D02*
X36660000Y30900000D01*
X36660000Y30900000D02*
X36160000Y30900000D01*
X67955000Y52285000D02*
X67955000Y3515000D01*
X63005000Y52285000D02*
X67955000Y52285000D01*
X67955000Y3515000D02*
X63005000Y3515000D01*
X63005000Y3515000D02*
X63005000Y52285000D01*
D15*
X62080000Y50760000D02*
G75*
G03*
X62080000Y50760000I-100000J0D01*
G01*
D14*
X41400000Y28880000D02*
X41400000Y28380000D01*
X42400000Y28880000D02*
X41400000Y28880000D01*
X41400000Y28380000D02*
X42400000Y28380000D01*
X42400000Y28380000D02*
X42400000Y28880000D01*
X32400000Y31865000D02*
X34400000Y31865000D01*
X34400000Y31865000D02*
X34400000Y33115000D01*
X32400000Y33115000D02*
X32400000Y31865000D01*
X34400000Y33115000D02*
X32400000Y33115000D01*
X31790000Y21390000D02*
X32290000Y21390000D01*
X32290000Y22390000D02*
X31790000Y22390000D01*
X31790000Y22390000D02*
X31790000Y21390000D01*
X32290000Y21390000D02*
X32290000Y22390000D01*
M02*
