%TF.GenerationSoftware,KiCad,Pcbnew,(6.0.11)*%
%TF.CreationDate,2024-08-05T21:32:57+07:00*%
%TF.ProjectId,Stepper_Motor_Expansion_Brd_revA,53746570-7065-4725-9f4d-6f746f725f45,rev?*%
%TF.SameCoordinates,PX5f5e100PY5f5e100*%
%TF.FileFunction,Soldermask,Top*%
%TF.FilePolarity,Negative*%
%FSLAX46Y46*%
G04 Gerber Fmt 4.6, Leading zero omitted, Abs format (unit mm)*
G04 Created by KiCad (PCBNEW (6.0.11)) date 2024-08-05 21:32:57*
%MOMM*%
%LPD*%
G01*
G04 APERTURE LIST*
%ADD10C,0.150000*%
%ADD11R,2.500000X2.300000*%
%ADD12C,1.600000*%
G04 APERTURE END LIST*
D10*
G36*
X37800000Y23000000D02*
G01*
X28790000Y23000000D01*
X28790000Y29400000D01*
X37800000Y29400000D01*
X37800000Y23000000D01*
G37*
X37800000Y23000000D02*
X28790000Y23000000D01*
X28790000Y29400000D01*
X37800000Y29400000D01*
X37800000Y23000000D01*
G36*
G01*
X48450000Y33910000D02*
X48450000Y33150000D01*
G75*
G02*
X48355000Y33055000I-95000J0D01*
G01*
X47570000Y33055000D01*
G75*
G02*
X47475000Y33150000I0J95000D01*
G01*
X47475000Y33910000D01*
G75*
G02*
X47570000Y34005000I95000J0D01*
G01*
X48355000Y34005000D01*
G75*
G02*
X48450000Y33910000I0J-95000D01*
G01*
G37*
G36*
G01*
X46625000Y33910000D02*
X46625000Y33150000D01*
G75*
G02*
X46530000Y33055000I-95000J0D01*
G01*
X45745000Y33055000D01*
G75*
G02*
X45650000Y33150000I0J95000D01*
G01*
X45650000Y33910000D01*
G75*
G02*
X45745000Y34005000I95000J0D01*
G01*
X46530000Y34005000D01*
G75*
G02*
X46625000Y33910000I0J-95000D01*
G01*
G37*
D11*
X11330000Y40740000D03*
X15630000Y40740000D03*
G36*
G01*
X59370000Y44280000D02*
X59370000Y43520000D01*
G75*
G02*
X59275000Y43425000I-95000J0D01*
G01*
X58490000Y43425000D01*
G75*
G02*
X58395000Y43520000I0J95000D01*
G01*
X58395000Y44280000D01*
G75*
G02*
X58490000Y44375000I95000J0D01*
G01*
X59275000Y44375000D01*
G75*
G02*
X59370000Y44280000I0J-95000D01*
G01*
G37*
G36*
G01*
X57545000Y44280000D02*
X57545000Y43520000D01*
G75*
G02*
X57450000Y43425000I-95000J0D01*
G01*
X56665000Y43425000D01*
G75*
G02*
X56570000Y43520000I0J95000D01*
G01*
X56570000Y44280000D01*
G75*
G02*
X56665000Y44375000I95000J0D01*
G01*
X57450000Y44375000D01*
G75*
G02*
X57545000Y44280000I0J-95000D01*
G01*
G37*
G36*
G01*
X27454000Y27230000D02*
X26946000Y27230000D01*
G75*
G02*
X26890000Y27286000I0J56000D01*
G01*
X26890000Y27734000D01*
G75*
G02*
X26946000Y27790000I56000J0D01*
G01*
X27454000Y27790000D01*
G75*
G02*
X27510000Y27734000I0J-56000D01*
G01*
X27510000Y27286000D01*
G75*
G02*
X27454000Y27230000I-56000J0D01*
G01*
G37*
G36*
G01*
X27454000Y28190000D02*
X26946000Y28190000D01*
G75*
G02*
X26890000Y28246000I0J56000D01*
G01*
X26890000Y28694000D01*
G75*
G02*
X26946000Y28750000I56000J0D01*
G01*
X27454000Y28750000D01*
G75*
G02*
X27510000Y28694000I0J-56000D01*
G01*
X27510000Y28246000D01*
G75*
G02*
X27454000Y28190000I-56000J0D01*
G01*
G37*
G36*
G01*
X23650000Y34550000D02*
X24410000Y34550000D01*
G75*
G02*
X24505000Y34455000I0J-95000D01*
G01*
X24505000Y33670000D01*
G75*
G02*
X24410000Y33575000I-95000J0D01*
G01*
X23650000Y33575000D01*
G75*
G02*
X23555000Y33670000I0J95000D01*
G01*
X23555000Y34455000D01*
G75*
G02*
X23650000Y34550000I95000J0D01*
G01*
G37*
G36*
G01*
X23650000Y32725000D02*
X24410000Y32725000D01*
G75*
G02*
X24505000Y32630000I0J-95000D01*
G01*
X24505000Y31845000D01*
G75*
G02*
X24410000Y31750000I-95000J0D01*
G01*
X23650000Y31750000D01*
G75*
G02*
X23555000Y31845000I0J95000D01*
G01*
X23555000Y32630000D01*
G75*
G02*
X23650000Y32725000I95000J0D01*
G01*
G37*
G36*
G01*
X52515000Y27140000D02*
X52095000Y27140000D01*
G75*
G02*
X52005000Y27230000I0J90000D01*
G01*
X52005000Y29000000D01*
G75*
G02*
X52095000Y29090000I90000J0D01*
G01*
X52515000Y29090000D01*
G75*
G02*
X52605000Y29000000I0J-90000D01*
G01*
X52605000Y27230000D01*
G75*
G02*
X52515000Y27140000I-90000J0D01*
G01*
G37*
G36*
G01*
X53785000Y27140000D02*
X53365000Y27140000D01*
G75*
G02*
X53275000Y27230000I0J90000D01*
G01*
X53275000Y29000000D01*
G75*
G02*
X53365000Y29090000I90000J0D01*
G01*
X53785000Y29090000D01*
G75*
G02*
X53875000Y29000000I0J-90000D01*
G01*
X53875000Y27230000D01*
G75*
G02*
X53785000Y27140000I-90000J0D01*
G01*
G37*
G36*
G01*
X55055000Y27140000D02*
X54635000Y27140000D01*
G75*
G02*
X54545000Y27230000I0J90000D01*
G01*
X54545000Y29000000D01*
G75*
G02*
X54635000Y29090000I90000J0D01*
G01*
X55055000Y29090000D01*
G75*
G02*
X55145000Y29000000I0J-90000D01*
G01*
X55145000Y27230000D01*
G75*
G02*
X55055000Y27140000I-90000J0D01*
G01*
G37*
G36*
G01*
X56325000Y27140000D02*
X55905000Y27140000D01*
G75*
G02*
X55815000Y27230000I0J90000D01*
G01*
X55815000Y29000000D01*
G75*
G02*
X55905000Y29090000I90000J0D01*
G01*
X56325000Y29090000D01*
G75*
G02*
X56415000Y29000000I0J-90000D01*
G01*
X56415000Y27230000D01*
G75*
G02*
X56325000Y27140000I-90000J0D01*
G01*
G37*
G36*
G01*
X56325000Y32090000D02*
X55905000Y32090000D01*
G75*
G02*
X55815000Y32180000I0J90000D01*
G01*
X55815000Y33950000D01*
G75*
G02*
X55905000Y34040000I90000J0D01*
G01*
X56325000Y34040000D01*
G75*
G02*
X56415000Y33950000I0J-90000D01*
G01*
X56415000Y32180000D01*
G75*
G02*
X56325000Y32090000I-90000J0D01*
G01*
G37*
G36*
G01*
X55055000Y32090000D02*
X54635000Y32090000D01*
G75*
G02*
X54545000Y32180000I0J90000D01*
G01*
X54545000Y33950000D01*
G75*
G02*
X54635000Y34040000I90000J0D01*
G01*
X55055000Y34040000D01*
G75*
G02*
X55145000Y33950000I0J-90000D01*
G01*
X55145000Y32180000D01*
G75*
G02*
X55055000Y32090000I-90000J0D01*
G01*
G37*
G36*
G01*
X53785000Y32090000D02*
X53365000Y32090000D01*
G75*
G02*
X53275000Y32180000I0J90000D01*
G01*
X53275000Y33950000D01*
G75*
G02*
X53365000Y34040000I90000J0D01*
G01*
X53785000Y34040000D01*
G75*
G02*
X53875000Y33950000I0J-90000D01*
G01*
X53875000Y32180000D01*
G75*
G02*
X53785000Y32090000I-90000J0D01*
G01*
G37*
G36*
G01*
X52515000Y32090000D02*
X52095000Y32090000D01*
G75*
G02*
X52005000Y32180000I0J90000D01*
G01*
X52005000Y33950000D01*
G75*
G02*
X52095000Y34040000I90000J0D01*
G01*
X52515000Y34040000D01*
G75*
G02*
X52605000Y33950000I0J-90000D01*
G01*
X52605000Y32180000D01*
G75*
G02*
X52515000Y32090000I-90000J0D01*
G01*
G37*
G36*
G01*
X38744000Y27970000D02*
X38236000Y27970000D01*
G75*
G02*
X38180000Y28026000I0J56000D01*
G01*
X38180000Y28474000D01*
G75*
G02*
X38236000Y28530000I56000J0D01*
G01*
X38744000Y28530000D01*
G75*
G02*
X38800000Y28474000I0J-56000D01*
G01*
X38800000Y28026000D01*
G75*
G02*
X38744000Y27970000I-56000J0D01*
G01*
G37*
G36*
G01*
X38744000Y28930000D02*
X38236000Y28930000D01*
G75*
G02*
X38180000Y28986000I0J56000D01*
G01*
X38180000Y29434000D01*
G75*
G02*
X38236000Y29490000I56000J0D01*
G01*
X38744000Y29490000D01*
G75*
G02*
X38800000Y29434000I0J-56000D01*
G01*
X38800000Y28986000D01*
G75*
G02*
X38744000Y28930000I-56000J0D01*
G01*
G37*
G36*
G01*
X33320000Y20825000D02*
X34280000Y20825000D01*
G75*
G02*
X34400000Y20705000I0J-120000D01*
G01*
X34400000Y17445000D01*
G75*
G02*
X34280000Y17325000I-120000J0D01*
G01*
X33320000Y17325000D01*
G75*
G02*
X33200000Y17445000I0J120000D01*
G01*
X33200000Y20705000D01*
G75*
G02*
X33320000Y20825000I120000J0D01*
G01*
G37*
G36*
G01*
X33320000Y15475000D02*
X34280000Y15475000D01*
G75*
G02*
X34400000Y15355000I0J-120000D01*
G01*
X34400000Y12095000D01*
G75*
G02*
X34280000Y11975000I-120000J0D01*
G01*
X33320000Y11975000D01*
G75*
G02*
X33200000Y12095000I0J120000D01*
G01*
X33200000Y15355000D01*
G75*
G02*
X33320000Y15475000I120000J0D01*
G01*
G37*
G36*
G01*
X20120000Y32730000D02*
X20880000Y32730000D01*
G75*
G02*
X20975000Y32635000I0J-95000D01*
G01*
X20975000Y31850000D01*
G75*
G02*
X20880000Y31755000I-95000J0D01*
G01*
X20120000Y31755000D01*
G75*
G02*
X20025000Y31850000I0J95000D01*
G01*
X20025000Y32635000D01*
G75*
G02*
X20120000Y32730000I95000J0D01*
G01*
G37*
G36*
G01*
X20120000Y30905000D02*
X20880000Y30905000D01*
G75*
G02*
X20975000Y30810000I0J-95000D01*
G01*
X20975000Y30025000D01*
G75*
G02*
X20880000Y29930000I-95000J0D01*
G01*
X20120000Y29930000D01*
G75*
G02*
X20025000Y30025000I0J95000D01*
G01*
X20025000Y30810000D01*
G75*
G02*
X20120000Y30905000I95000J0D01*
G01*
G37*
G36*
G01*
X3970000Y49960000D02*
X2530000Y49960000D01*
G75*
G02*
X2450000Y50040000I0J80000D01*
G01*
X2450000Y51480000D01*
G75*
G02*
X2530000Y51560000I80000J0D01*
G01*
X3970000Y51560000D01*
G75*
G02*
X4050000Y51480000I0J-80000D01*
G01*
X4050000Y50040000D01*
G75*
G02*
X3970000Y49960000I-80000J0D01*
G01*
G37*
D12*
X5790000Y50760000D03*
X3250000Y48220000D03*
X5790000Y48220000D03*
X3250000Y45680000D03*
X5790000Y45680000D03*
X3250000Y43140000D03*
X5790000Y43140000D03*
X3250000Y40600000D03*
X5790000Y40600000D03*
X3250000Y38060000D03*
X5790000Y38060000D03*
X3250000Y35520000D03*
X5790000Y35520000D03*
X3250000Y32980000D03*
X5790000Y32980000D03*
X3250000Y30440000D03*
X5790000Y30440000D03*
X3250000Y27900000D03*
X5790000Y27900000D03*
X3250000Y25360000D03*
X5790000Y25360000D03*
X3250000Y22820000D03*
X5790000Y22820000D03*
X3250000Y20280000D03*
X5790000Y20280000D03*
X3250000Y17740000D03*
X5790000Y17740000D03*
X3250000Y15200000D03*
X5790000Y15200000D03*
X3250000Y12660000D03*
X5790000Y12660000D03*
X3250000Y10120000D03*
X5790000Y10120000D03*
X3250000Y7580000D03*
X5790000Y7580000D03*
X3250000Y5040000D03*
X5790000Y5040000D03*
G36*
G01*
X64930000Y49960000D02*
X63490000Y49960000D01*
G75*
G02*
X63410000Y50040000I0J80000D01*
G01*
X63410000Y51480000D01*
G75*
G02*
X63490000Y51560000I80000J0D01*
G01*
X64930000Y51560000D01*
G75*
G02*
X65010000Y51480000I0J-80000D01*
G01*
X65010000Y50040000D01*
G75*
G02*
X64930000Y49960000I-80000J0D01*
G01*
G37*
X66750000Y50760000D03*
X64210000Y48220000D03*
X66750000Y48220000D03*
X64210000Y45680000D03*
X66750000Y45680000D03*
X64210000Y43140000D03*
X66750000Y43140000D03*
X64210000Y40600000D03*
X66750000Y40600000D03*
X64210000Y38060000D03*
X66750000Y38060000D03*
X64210000Y35520000D03*
X66750000Y35520000D03*
X64210000Y32980000D03*
X66750000Y32980000D03*
X64210000Y30440000D03*
X66750000Y30440000D03*
X64210000Y27900000D03*
X66750000Y27900000D03*
X64210000Y25360000D03*
X66750000Y25360000D03*
X64210000Y22820000D03*
X66750000Y22820000D03*
X64210000Y20280000D03*
X66750000Y20280000D03*
X64210000Y17740000D03*
X66750000Y17740000D03*
X64210000Y15200000D03*
X66750000Y15200000D03*
X64210000Y12660000D03*
X66750000Y12660000D03*
X64210000Y10120000D03*
X66750000Y10120000D03*
X64210000Y7580000D03*
X66750000Y7580000D03*
X64210000Y5040000D03*
X66750000Y5040000D03*
M02*
