%TF.GenerationSoftware,KiCad,Pcbnew,(6.0.11)*%
%TF.CreationDate,2024-08-05T21:32:57+07:00*%
%TF.ProjectId,Stepper_Motor_Expansion_Brd_revA,53746570-7065-4725-9f4d-6f746f725f45,rev?*%
%TF.SameCoordinates,PX5f5e100PY5f5e100*%
%TF.FileFunction,Paste,Bot*%
%TF.FilePolarity,Positive*%
%FSLAX46Y46*%
G04 Gerber Fmt 4.6, Leading zero omitted, Abs format (unit mm)*
G04 Created by KiCad (PCBNEW (6.0.11)) date 2024-08-05 21:32:57*
%MOMM*%
%LPD*%
G01*
G04 APERTURE LIST*
G04 APERTURE END LIST*
G36*
G01*
X39450000Y24750000D02*
X39450000Y25910000D01*
G75*
G02*
X39570000Y26030000I120000J0D01*
G01*
X40530000Y26030000D01*
G75*
G02*
X40650000Y25910000I0J-120000D01*
G01*
X40650000Y24750000D01*
G75*
G02*
X40530000Y24630000I-120000J0D01*
G01*
X39570000Y24630000D01*
G75*
G02*
X39450000Y24750000I0J120000D01*
G01*
G37*
G36*
G01*
X41450000Y24750000D02*
X41450000Y25910000D01*
G75*
G02*
X41570000Y26030000I120000J0D01*
G01*
X42530000Y26030000D01*
G75*
G02*
X42650000Y25910000I0J-120000D01*
G01*
X42650000Y24750000D01*
G75*
G02*
X42530000Y24630000I-120000J0D01*
G01*
X41570000Y24630000D01*
G75*
G02*
X41450000Y24750000I0J120000D01*
G01*
G37*
G36*
G01*
X35795000Y31855000D02*
X35795000Y32625000D01*
G75*
G02*
X35885000Y32715000I90000J0D01*
G01*
X36605000Y32715000D01*
G75*
G02*
X36695000Y32625000I0J-90000D01*
G01*
X36695000Y31855000D01*
G75*
G02*
X36605000Y31765000I-90000J0D01*
G01*
X35885000Y31765000D01*
G75*
G02*
X35795000Y31855000I0J90000D01*
G01*
G37*
G36*
G01*
X37345000Y31855000D02*
X37345000Y32625000D01*
G75*
G02*
X37435000Y32715000I90000J0D01*
G01*
X38155000Y32715000D01*
G75*
G02*
X38245000Y32625000I0J-90000D01*
G01*
X38245000Y31855000D01*
G75*
G02*
X38155000Y31765000I-90000J0D01*
G01*
X37435000Y31765000D01*
G75*
G02*
X37345000Y31855000I0J90000D01*
G01*
G37*
G36*
G01*
X33860000Y33900000D02*
X33860000Y34660000D01*
G75*
G02*
X33955000Y34755000I95000J0D01*
G01*
X34740000Y34755000D01*
G75*
G02*
X34835000Y34660000I0J-95000D01*
G01*
X34835000Y33900000D01*
G75*
G02*
X34740000Y33805000I-95000J0D01*
G01*
X33955000Y33805000D01*
G75*
G02*
X33860000Y33900000I0J95000D01*
G01*
G37*
G36*
G01*
X35685000Y33900000D02*
X35685000Y34660000D01*
G75*
G02*
X35780000Y34755000I95000J0D01*
G01*
X36565000Y34755000D01*
G75*
G02*
X36660000Y34660000I0J-95000D01*
G01*
X36660000Y33900000D01*
G75*
G02*
X36565000Y33805000I-95000J0D01*
G01*
X35780000Y33805000D01*
G75*
G02*
X35685000Y33900000I0J95000D01*
G01*
G37*
G36*
G01*
X53610000Y24986000D02*
X53610000Y25494000D01*
G75*
G02*
X53666000Y25550000I56000J0D01*
G01*
X54114000Y25550000D01*
G75*
G02*
X54170000Y25494000I0J-56000D01*
G01*
X54170000Y24986000D01*
G75*
G02*
X54114000Y24930000I-56000J0D01*
G01*
X53666000Y24930000D01*
G75*
G02*
X53610000Y24986000I0J56000D01*
G01*
G37*
G36*
G01*
X54570000Y24986000D02*
X54570000Y25494000D01*
G75*
G02*
X54626000Y25550000I56000J0D01*
G01*
X55074000Y25550000D01*
G75*
G02*
X55130000Y25494000I0J-56000D01*
G01*
X55130000Y24986000D01*
G75*
G02*
X55074000Y24930000I-56000J0D01*
G01*
X54626000Y24930000D01*
G75*
G02*
X54570000Y24986000I0J56000D01*
G01*
G37*
G36*
G01*
X35277500Y24515000D02*
X34662500Y24515000D01*
G75*
G02*
X34420000Y24757500I0J242500D01*
G01*
X34420000Y25242500D01*
G75*
G02*
X34662500Y25485000I242500J0D01*
G01*
X35277500Y25485000D01*
G75*
G02*
X35520000Y25242500I0J-242500D01*
G01*
X35520000Y24757500D01*
G75*
G02*
X35277500Y24515000I-242500J0D01*
G01*
G37*
G36*
G01*
X35277500Y25715000D02*
X34662500Y25715000D01*
G75*
G02*
X34420000Y25957500I0J242500D01*
G01*
X34420000Y26442500D01*
G75*
G02*
X34662500Y26685000I242500J0D01*
G01*
X35277500Y26685000D01*
G75*
G02*
X35520000Y26442500I0J-242500D01*
G01*
X35520000Y25957500D01*
G75*
G02*
X35277500Y25715000I-242500J0D01*
G01*
G37*
G36*
G01*
X32537500Y24515000D02*
X31922500Y24515000D01*
G75*
G02*
X31680000Y24757500I0J242500D01*
G01*
X31680000Y25242500D01*
G75*
G02*
X31922500Y25485000I242500J0D01*
G01*
X32537500Y25485000D01*
G75*
G02*
X32780000Y25242500I0J-242500D01*
G01*
X32780000Y24757500D01*
G75*
G02*
X32537500Y24515000I-242500J0D01*
G01*
G37*
G36*
G01*
X35277500Y26915000D02*
X34662500Y26915000D01*
G75*
G02*
X34420000Y27157500I0J242500D01*
G01*
X34420000Y27642500D01*
G75*
G02*
X34662500Y27885000I242500J0D01*
G01*
X35277500Y27885000D01*
G75*
G02*
X35520000Y27642500I0J-242500D01*
G01*
X35520000Y27157500D01*
G75*
G02*
X35277500Y26915000I-242500J0D01*
G01*
G37*
G36*
G01*
X32537500Y26915000D02*
X31922500Y26915000D01*
G75*
G02*
X31680000Y27157500I0J242500D01*
G01*
X31680000Y27642500D01*
G75*
G02*
X31922500Y27885000I242500J0D01*
G01*
X32537500Y27885000D01*
G75*
G02*
X32780000Y27642500I0J-242500D01*
G01*
X32780000Y27157500D01*
G75*
G02*
X32537500Y26915000I-242500J0D01*
G01*
G37*
G36*
G01*
X33907500Y26915000D02*
X33292500Y26915000D01*
G75*
G02*
X33050000Y27157500I0J242500D01*
G01*
X33050000Y27642500D01*
G75*
G02*
X33292500Y27885000I242500J0D01*
G01*
X33907500Y27885000D01*
G75*
G02*
X34150000Y27642500I0J-242500D01*
G01*
X34150000Y27157500D01*
G75*
G02*
X33907500Y26915000I-242500J0D01*
G01*
G37*
G36*
G01*
X33907500Y25715000D02*
X33292500Y25715000D01*
G75*
G02*
X33050000Y25957500I0J242500D01*
G01*
X33050000Y26442500D01*
G75*
G02*
X33292500Y26685000I242500J0D01*
G01*
X33907500Y26685000D01*
G75*
G02*
X34150000Y26442500I0J-242500D01*
G01*
X34150000Y25957500D01*
G75*
G02*
X33907500Y25715000I-242500J0D01*
G01*
G37*
G36*
G01*
X33907500Y24515000D02*
X33292500Y24515000D01*
G75*
G02*
X33050000Y24757500I0J242500D01*
G01*
X33050000Y25242500D01*
G75*
G02*
X33292500Y25485000I242500J0D01*
G01*
X33907500Y25485000D01*
G75*
G02*
X34150000Y25242500I0J-242500D01*
G01*
X34150000Y24757500D01*
G75*
G02*
X33907500Y24515000I-242500J0D01*
G01*
G37*
G36*
G01*
X32537500Y25715000D02*
X31922500Y25715000D01*
G75*
G02*
X31680000Y25957500I0J242500D01*
G01*
X31680000Y26442500D01*
G75*
G02*
X31922500Y26685000I242500J0D01*
G01*
X32537500Y26685000D01*
G75*
G02*
X32780000Y26442500I0J-242500D01*
G01*
X32780000Y25957500D01*
G75*
G02*
X32537500Y25715000I-242500J0D01*
G01*
G37*
G36*
G01*
X35938900Y23360000D02*
X35761100Y23360000D01*
G75*
G02*
X35723000Y23398100I0J38100D01*
G01*
X35723000Y24101900D01*
G75*
G02*
X35761100Y24140000I38100J0D01*
G01*
X35938900Y24140000D01*
G75*
G02*
X35977000Y24101900I0J-38100D01*
G01*
X35977000Y23398100D01*
G75*
G02*
X35938900Y23360000I-38100J0D01*
G01*
G37*
G36*
G01*
X35438900Y23360000D02*
X35261100Y23360000D01*
G75*
G02*
X35223000Y23398100I0J38100D01*
G01*
X35223000Y24101900D01*
G75*
G02*
X35261100Y24140000I38100J0D01*
G01*
X35438900Y24140000D01*
G75*
G02*
X35477000Y24101900I0J-38100D01*
G01*
X35477000Y23398100D01*
G75*
G02*
X35438900Y23360000I-38100J0D01*
G01*
G37*
G36*
G01*
X34938900Y23360000D02*
X34761100Y23360000D01*
G75*
G02*
X34723000Y23398100I0J38100D01*
G01*
X34723000Y24101900D01*
G75*
G02*
X34761100Y24140000I38100J0D01*
G01*
X34938900Y24140000D01*
G75*
G02*
X34977000Y24101900I0J-38100D01*
G01*
X34977000Y23398100D01*
G75*
G02*
X34938900Y23360000I-38100J0D01*
G01*
G37*
G36*
G01*
X34438900Y23360000D02*
X34261100Y23360000D01*
G75*
G02*
X34223000Y23398100I0J38100D01*
G01*
X34223000Y24101900D01*
G75*
G02*
X34261100Y24140000I38100J0D01*
G01*
X34438900Y24140000D01*
G75*
G02*
X34477000Y24101900I0J-38100D01*
G01*
X34477000Y23398100D01*
G75*
G02*
X34438900Y23360000I-38100J0D01*
G01*
G37*
G36*
G01*
X33938900Y23360000D02*
X33761100Y23360000D01*
G75*
G02*
X33723000Y23398100I0J38100D01*
G01*
X33723000Y24101900D01*
G75*
G02*
X33761100Y24140000I38100J0D01*
G01*
X33938900Y24140000D01*
G75*
G02*
X33977000Y24101900I0J-38100D01*
G01*
X33977000Y23398100D01*
G75*
G02*
X33938900Y23360000I-38100J0D01*
G01*
G37*
G36*
G01*
X33438900Y23360000D02*
X33261100Y23360000D01*
G75*
G02*
X33223000Y23398100I0J38100D01*
G01*
X33223000Y24101900D01*
G75*
G02*
X33261100Y24140000I38100J0D01*
G01*
X33438900Y24140000D01*
G75*
G02*
X33477000Y24101900I0J-38100D01*
G01*
X33477000Y23398100D01*
G75*
G02*
X33438900Y23360000I-38100J0D01*
G01*
G37*
G36*
G01*
X32938900Y23360000D02*
X32761100Y23360000D01*
G75*
G02*
X32723000Y23398100I0J38100D01*
G01*
X32723000Y24101900D01*
G75*
G02*
X32761100Y24140000I38100J0D01*
G01*
X32938900Y24140000D01*
G75*
G02*
X32977000Y24101900I0J-38100D01*
G01*
X32977000Y23398100D01*
G75*
G02*
X32938900Y23360000I-38100J0D01*
G01*
G37*
G36*
G01*
X32438900Y23360000D02*
X32261100Y23360000D01*
G75*
G02*
X32223000Y23398100I0J38100D01*
G01*
X32223000Y24101900D01*
G75*
G02*
X32261100Y24140000I38100J0D01*
G01*
X32438900Y24140000D01*
G75*
G02*
X32477000Y24101900I0J-38100D01*
G01*
X32477000Y23398100D01*
G75*
G02*
X32438900Y23360000I-38100J0D01*
G01*
G37*
G36*
G01*
X31938900Y23360000D02*
X31761100Y23360000D01*
G75*
G02*
X31723000Y23398100I0J38100D01*
G01*
X31723000Y24101900D01*
G75*
G02*
X31761100Y24140000I38100J0D01*
G01*
X31938900Y24140000D01*
G75*
G02*
X31977000Y24101900I0J-38100D01*
G01*
X31977000Y23398100D01*
G75*
G02*
X31938900Y23360000I-38100J0D01*
G01*
G37*
G36*
G01*
X31438900Y23360000D02*
X31261100Y23360000D01*
G75*
G02*
X31223000Y23398100I0J38100D01*
G01*
X31223000Y24101900D01*
G75*
G02*
X31261100Y24140000I38100J0D01*
G01*
X31438900Y24140000D01*
G75*
G02*
X31477000Y24101900I0J-38100D01*
G01*
X31477000Y23398100D01*
G75*
G02*
X31438900Y23360000I-38100J0D01*
G01*
G37*
G36*
G01*
X31001900Y24323000D02*
X30298100Y24323000D01*
G75*
G02*
X30260000Y24361100I0J38100D01*
G01*
X30260000Y24538900D01*
G75*
G02*
X30298100Y24577000I38100J0D01*
G01*
X31001900Y24577000D01*
G75*
G02*
X31040000Y24538900I0J-38100D01*
G01*
X31040000Y24361100D01*
G75*
G02*
X31001900Y24323000I-38100J0D01*
G01*
G37*
G36*
G01*
X31001900Y24823000D02*
X30298100Y24823000D01*
G75*
G02*
X30260000Y24861100I0J38100D01*
G01*
X30260000Y25038900D01*
G75*
G02*
X30298100Y25077000I38100J0D01*
G01*
X31001900Y25077000D01*
G75*
G02*
X31040000Y25038900I0J-38100D01*
G01*
X31040000Y24861100D01*
G75*
G02*
X31001900Y24823000I-38100J0D01*
G01*
G37*
G36*
G01*
X31001900Y25323000D02*
X30298100Y25323000D01*
G75*
G02*
X30260000Y25361100I0J38100D01*
G01*
X30260000Y25538900D01*
G75*
G02*
X30298100Y25577000I38100J0D01*
G01*
X31001900Y25577000D01*
G75*
G02*
X31040000Y25538900I0J-38100D01*
G01*
X31040000Y25361100D01*
G75*
G02*
X31001900Y25323000I-38100J0D01*
G01*
G37*
G36*
G01*
X31001900Y25823000D02*
X30298100Y25823000D01*
G75*
G02*
X30260000Y25861100I0J38100D01*
G01*
X30260000Y26038900D01*
G75*
G02*
X30298100Y26077000I38100J0D01*
G01*
X31001900Y26077000D01*
G75*
G02*
X31040000Y26038900I0J-38100D01*
G01*
X31040000Y25861100D01*
G75*
G02*
X31001900Y25823000I-38100J0D01*
G01*
G37*
G36*
G01*
X31001900Y26323000D02*
X30298100Y26323000D01*
G75*
G02*
X30260000Y26361100I0J38100D01*
G01*
X30260000Y26538900D01*
G75*
G02*
X30298100Y26577000I38100J0D01*
G01*
X31001900Y26577000D01*
G75*
G02*
X31040000Y26538900I0J-38100D01*
G01*
X31040000Y26361100D01*
G75*
G02*
X31001900Y26323000I-38100J0D01*
G01*
G37*
G36*
G01*
X31001900Y26823000D02*
X30298100Y26823000D01*
G75*
G02*
X30260000Y26861100I0J38100D01*
G01*
X30260000Y27038900D01*
G75*
G02*
X30298100Y27077000I38100J0D01*
G01*
X31001900Y27077000D01*
G75*
G02*
X31040000Y27038900I0J-38100D01*
G01*
X31040000Y26861100D01*
G75*
G02*
X31001900Y26823000I-38100J0D01*
G01*
G37*
G36*
G01*
X31001900Y27323000D02*
X30298100Y27323000D01*
G75*
G02*
X30260000Y27361100I0J38100D01*
G01*
X30260000Y27538900D01*
G75*
G02*
X30298100Y27577000I38100J0D01*
G01*
X31001900Y27577000D01*
G75*
G02*
X31040000Y27538900I0J-38100D01*
G01*
X31040000Y27361100D01*
G75*
G02*
X31001900Y27323000I-38100J0D01*
G01*
G37*
G36*
G01*
X31001900Y27823000D02*
X30298100Y27823000D01*
G75*
G02*
X30260000Y27861100I0J38100D01*
G01*
X30260000Y28038900D01*
G75*
G02*
X30298100Y28077000I38100J0D01*
G01*
X31001900Y28077000D01*
G75*
G02*
X31040000Y28038900I0J-38100D01*
G01*
X31040000Y27861100D01*
G75*
G02*
X31001900Y27823000I-38100J0D01*
G01*
G37*
G36*
G01*
X31438900Y28260000D02*
X31261100Y28260000D01*
G75*
G02*
X31223000Y28298100I0J38100D01*
G01*
X31223000Y29001900D01*
G75*
G02*
X31261100Y29040000I38100J0D01*
G01*
X31438900Y29040000D01*
G75*
G02*
X31477000Y29001900I0J-38100D01*
G01*
X31477000Y28298100D01*
G75*
G02*
X31438900Y28260000I-38100J0D01*
G01*
G37*
G36*
G01*
X31938900Y28260000D02*
X31761100Y28260000D01*
G75*
G02*
X31723000Y28298100I0J38100D01*
G01*
X31723000Y29001900D01*
G75*
G02*
X31761100Y29040000I38100J0D01*
G01*
X31938900Y29040000D01*
G75*
G02*
X31977000Y29001900I0J-38100D01*
G01*
X31977000Y28298100D01*
G75*
G02*
X31938900Y28260000I-38100J0D01*
G01*
G37*
G36*
G01*
X32438900Y28260000D02*
X32261100Y28260000D01*
G75*
G02*
X32223000Y28298100I0J38100D01*
G01*
X32223000Y29001900D01*
G75*
G02*
X32261100Y29040000I38100J0D01*
G01*
X32438900Y29040000D01*
G75*
G02*
X32477000Y29001900I0J-38100D01*
G01*
X32477000Y28298100D01*
G75*
G02*
X32438900Y28260000I-38100J0D01*
G01*
G37*
G36*
G01*
X32938900Y28260000D02*
X32761100Y28260000D01*
G75*
G02*
X32723000Y28298100I0J38100D01*
G01*
X32723000Y29001900D01*
G75*
G02*
X32761100Y29040000I38100J0D01*
G01*
X32938900Y29040000D01*
G75*
G02*
X32977000Y29001900I0J-38100D01*
G01*
X32977000Y28298100D01*
G75*
G02*
X32938900Y28260000I-38100J0D01*
G01*
G37*
G36*
G01*
X33438900Y28260000D02*
X33261100Y28260000D01*
G75*
G02*
X33223000Y28298100I0J38100D01*
G01*
X33223000Y29001900D01*
G75*
G02*
X33261100Y29040000I38100J0D01*
G01*
X33438900Y29040000D01*
G75*
G02*
X33477000Y29001900I0J-38100D01*
G01*
X33477000Y28298100D01*
G75*
G02*
X33438900Y28260000I-38100J0D01*
G01*
G37*
G36*
G01*
X33938900Y28260000D02*
X33761100Y28260000D01*
G75*
G02*
X33723000Y28298100I0J38100D01*
G01*
X33723000Y29001900D01*
G75*
G02*
X33761100Y29040000I38100J0D01*
G01*
X33938900Y29040000D01*
G75*
G02*
X33977000Y29001900I0J-38100D01*
G01*
X33977000Y28298100D01*
G75*
G02*
X33938900Y28260000I-38100J0D01*
G01*
G37*
G36*
G01*
X34438900Y28260000D02*
X34261100Y28260000D01*
G75*
G02*
X34223000Y28298100I0J38100D01*
G01*
X34223000Y29001900D01*
G75*
G02*
X34261100Y29040000I38100J0D01*
G01*
X34438900Y29040000D01*
G75*
G02*
X34477000Y29001900I0J-38100D01*
G01*
X34477000Y28298100D01*
G75*
G02*
X34438900Y28260000I-38100J0D01*
G01*
G37*
G36*
G01*
X34938900Y28260000D02*
X34761100Y28260000D01*
G75*
G02*
X34723000Y28298100I0J38100D01*
G01*
X34723000Y29001900D01*
G75*
G02*
X34761100Y29040000I38100J0D01*
G01*
X34938900Y29040000D01*
G75*
G02*
X34977000Y29001900I0J-38100D01*
G01*
X34977000Y28298100D01*
G75*
G02*
X34938900Y28260000I-38100J0D01*
G01*
G37*
G36*
G01*
X35438900Y28260000D02*
X35261100Y28260000D01*
G75*
G02*
X35223000Y28298100I0J38100D01*
G01*
X35223000Y29001900D01*
G75*
G02*
X35261100Y29040000I38100J0D01*
G01*
X35438900Y29040000D01*
G75*
G02*
X35477000Y29001900I0J-38100D01*
G01*
X35477000Y28298100D01*
G75*
G02*
X35438900Y28260000I-38100J0D01*
G01*
G37*
G36*
G01*
X35938900Y28260000D02*
X35761100Y28260000D01*
G75*
G02*
X35723000Y28298100I0J38100D01*
G01*
X35723000Y29001900D01*
G75*
G02*
X35761100Y29040000I38100J0D01*
G01*
X35938900Y29040000D01*
G75*
G02*
X35977000Y29001900I0J-38100D01*
G01*
X35977000Y28298100D01*
G75*
G02*
X35938900Y28260000I-38100J0D01*
G01*
G37*
G36*
G01*
X36901900Y27823000D02*
X36198100Y27823000D01*
G75*
G02*
X36160000Y27861100I0J38100D01*
G01*
X36160000Y28038900D01*
G75*
G02*
X36198100Y28077000I38100J0D01*
G01*
X36901900Y28077000D01*
G75*
G02*
X36940000Y28038900I0J-38100D01*
G01*
X36940000Y27861100D01*
G75*
G02*
X36901900Y27823000I-38100J0D01*
G01*
G37*
G36*
G01*
X36901900Y27323000D02*
X36198100Y27323000D01*
G75*
G02*
X36160000Y27361100I0J38100D01*
G01*
X36160000Y27538900D01*
G75*
G02*
X36198100Y27577000I38100J0D01*
G01*
X36901900Y27577000D01*
G75*
G02*
X36940000Y27538900I0J-38100D01*
G01*
X36940000Y27361100D01*
G75*
G02*
X36901900Y27323000I-38100J0D01*
G01*
G37*
G36*
G01*
X36901900Y26823000D02*
X36198100Y26823000D01*
G75*
G02*
X36160000Y26861100I0J38100D01*
G01*
X36160000Y27038900D01*
G75*
G02*
X36198100Y27077000I38100J0D01*
G01*
X36901900Y27077000D01*
G75*
G02*
X36940000Y27038900I0J-38100D01*
G01*
X36940000Y26861100D01*
G75*
G02*
X36901900Y26823000I-38100J0D01*
G01*
G37*
G36*
G01*
X36901900Y26323000D02*
X36198100Y26323000D01*
G75*
G02*
X36160000Y26361100I0J38100D01*
G01*
X36160000Y26538900D01*
G75*
G02*
X36198100Y26577000I38100J0D01*
G01*
X36901900Y26577000D01*
G75*
G02*
X36940000Y26538900I0J-38100D01*
G01*
X36940000Y26361100D01*
G75*
G02*
X36901900Y26323000I-38100J0D01*
G01*
G37*
G36*
G01*
X36901900Y25823000D02*
X36198100Y25823000D01*
G75*
G02*
X36160000Y25861100I0J38100D01*
G01*
X36160000Y26038900D01*
G75*
G02*
X36198100Y26077000I38100J0D01*
G01*
X36901900Y26077000D01*
G75*
G02*
X36940000Y26038900I0J-38100D01*
G01*
X36940000Y25861100D01*
G75*
G02*
X36901900Y25823000I-38100J0D01*
G01*
G37*
G36*
G01*
X36901900Y25323000D02*
X36198100Y25323000D01*
G75*
G02*
X36160000Y25361100I0J38100D01*
G01*
X36160000Y25538900D01*
G75*
G02*
X36198100Y25577000I38100J0D01*
G01*
X36901900Y25577000D01*
G75*
G02*
X36940000Y25538900I0J-38100D01*
G01*
X36940000Y25361100D01*
G75*
G02*
X36901900Y25323000I-38100J0D01*
G01*
G37*
G36*
G01*
X36901900Y24823000D02*
X36198100Y24823000D01*
G75*
G02*
X36160000Y24861100I0J38100D01*
G01*
X36160000Y25038900D01*
G75*
G02*
X36198100Y25077000I38100J0D01*
G01*
X36901900Y25077000D01*
G75*
G02*
X36940000Y25038900I0J-38100D01*
G01*
X36940000Y24861100D01*
G75*
G02*
X36901900Y24823000I-38100J0D01*
G01*
G37*
G36*
G01*
X36901900Y24323000D02*
X36198100Y24323000D01*
G75*
G02*
X36160000Y24361100I0J38100D01*
G01*
X36160000Y24538900D01*
G75*
G02*
X36198100Y24577000I38100J0D01*
G01*
X36901900Y24577000D01*
G75*
G02*
X36940000Y24538900I0J-38100D01*
G01*
X36940000Y24361100D01*
G75*
G02*
X36901900Y24323000I-38100J0D01*
G01*
G37*
G36*
G01*
X27870000Y25900000D02*
X27870000Y24740000D01*
G75*
G02*
X27750000Y24620000I-120000J0D01*
G01*
X26790000Y24620000D01*
G75*
G02*
X26670000Y24740000I0J120000D01*
G01*
X26670000Y25900000D01*
G75*
G02*
X26790000Y26020000I120000J0D01*
G01*
X27750000Y26020000D01*
G75*
G02*
X27870000Y25900000I0J-120000D01*
G01*
G37*
G36*
G01*
X25870000Y25900000D02*
X25870000Y24740000D01*
G75*
G02*
X25750000Y24620000I-120000J0D01*
G01*
X24790000Y24620000D01*
G75*
G02*
X24670000Y24740000I0J120000D01*
G01*
X24670000Y25900000D01*
G75*
G02*
X24790000Y26020000I120000J0D01*
G01*
X25750000Y26020000D01*
G75*
G02*
X25870000Y25900000I0J-120000D01*
G01*
G37*
G36*
G01*
X37644000Y28690000D02*
X37136000Y28690000D01*
G75*
G02*
X37080000Y28746000I0J56000D01*
G01*
X37080000Y29194000D01*
G75*
G02*
X37136000Y29250000I56000J0D01*
G01*
X37644000Y29250000D01*
G75*
G02*
X37700000Y29194000I0J-56000D01*
G01*
X37700000Y28746000D01*
G75*
G02*
X37644000Y28690000I-56000J0D01*
G01*
G37*
G36*
G01*
X37644000Y29650000D02*
X37136000Y29650000D01*
G75*
G02*
X37080000Y29706000I0J56000D01*
G01*
X37080000Y30154000D01*
G75*
G02*
X37136000Y30210000I56000J0D01*
G01*
X37644000Y30210000D01*
G75*
G02*
X37700000Y30154000I0J-56000D01*
G01*
X37700000Y29706000D01*
G75*
G02*
X37644000Y29650000I-56000J0D01*
G01*
G37*
G36*
G01*
X36664000Y29640000D02*
X36156000Y29640000D01*
G75*
G02*
X36100000Y29696000I0J56000D01*
G01*
X36100000Y30144000D01*
G75*
G02*
X36156000Y30200000I56000J0D01*
G01*
X36664000Y30200000D01*
G75*
G02*
X36720000Y30144000I0J-56000D01*
G01*
X36720000Y29696000D01*
G75*
G02*
X36664000Y29640000I-56000J0D01*
G01*
G37*
G36*
G01*
X36664000Y30600000D02*
X36156000Y30600000D01*
G75*
G02*
X36100000Y30656000I0J56000D01*
G01*
X36100000Y31104000D01*
G75*
G02*
X36156000Y31160000I56000J0D01*
G01*
X36664000Y31160000D01*
G75*
G02*
X36720000Y31104000I0J-56000D01*
G01*
X36720000Y30656000D01*
G75*
G02*
X36664000Y30600000I-56000J0D01*
G01*
G37*
G36*
G01*
X41140000Y28376000D02*
X41140000Y28884000D01*
G75*
G02*
X41196000Y28940000I56000J0D01*
G01*
X41644000Y28940000D01*
G75*
G02*
X41700000Y28884000I0J-56000D01*
G01*
X41700000Y28376000D01*
G75*
G02*
X41644000Y28320000I-56000J0D01*
G01*
X41196000Y28320000D01*
G75*
G02*
X41140000Y28376000I0J56000D01*
G01*
G37*
G36*
G01*
X42100000Y28376000D02*
X42100000Y28884000D01*
G75*
G02*
X42156000Y28940000I56000J0D01*
G01*
X42604000Y28940000D01*
G75*
G02*
X42660000Y28884000I0J-56000D01*
G01*
X42660000Y28376000D01*
G75*
G02*
X42604000Y28320000I-56000J0D01*
G01*
X42156000Y28320000D01*
G75*
G02*
X42100000Y28376000I0J56000D01*
G01*
G37*
G36*
G01*
X34850000Y33115000D02*
X34850000Y31865000D01*
G75*
G02*
X34750000Y31765000I-100000J0D01*
G01*
X33950000Y31765000D01*
G75*
G02*
X33850000Y31865000I0J100000D01*
G01*
X33850000Y33115000D01*
G75*
G02*
X33950000Y33215000I100000J0D01*
G01*
X34750000Y33215000D01*
G75*
G02*
X34850000Y33115000I0J-100000D01*
G01*
G37*
G36*
G01*
X32950000Y33115000D02*
X32950000Y31865000D01*
G75*
G02*
X32850000Y31765000I-100000J0D01*
G01*
X32050000Y31765000D01*
G75*
G02*
X31950000Y31865000I0J100000D01*
G01*
X31950000Y33115000D01*
G75*
G02*
X32050000Y33215000I100000J0D01*
G01*
X32850000Y33215000D01*
G75*
G02*
X32950000Y33115000I0J-100000D01*
G01*
G37*
G36*
G01*
X31786000Y22650000D02*
X32294000Y22650000D01*
G75*
G02*
X32350000Y22594000I0J-56000D01*
G01*
X32350000Y22146000D01*
G75*
G02*
X32294000Y22090000I-56000J0D01*
G01*
X31786000Y22090000D01*
G75*
G02*
X31730000Y22146000I0J56000D01*
G01*
X31730000Y22594000D01*
G75*
G02*
X31786000Y22650000I56000J0D01*
G01*
G37*
G36*
G01*
X31786000Y21690000D02*
X32294000Y21690000D01*
G75*
G02*
X32350000Y21634000I0J-56000D01*
G01*
X32350000Y21186000D01*
G75*
G02*
X32294000Y21130000I-56000J0D01*
G01*
X31786000Y21130000D01*
G75*
G02*
X31730000Y21186000I0J56000D01*
G01*
X31730000Y21634000D01*
G75*
G02*
X31786000Y21690000I56000J0D01*
G01*
G37*
M02*
