M48
; DRILL file {KiCad (6.0.11)} date Mon Aug  5 16:37:01 2024
; FORMAT={-:-/ absolute / metric / decimal}
; #@! TF.CreationDate,2024-08-05T16:37:01+07:00
; #@! TF.GenerationSoftware,Kicad,Pcbnew,(6.0.11)
; #@! TF.FileFunction,Plated,1,2,PTH
FMAT,2
METRIC
; #@! TA.AperFunction,Plated,PTH,ViaDrill
T1C0.400
; #@! TA.AperFunction,Plated,PTH,ViaDrill
T2C0.500
; #@! TA.AperFunction,Plated,PTH,ViaDrill
T3C0.600
; #@! TA.AperFunction,Plated,PTH,ComponentDrill
T4C1.000
; #@! TA.AperFunction,Plated,PTH,ComponentDrill
T5C1.100
; #@! TA.AperFunction,Plated,PTH,ComponentDrill
T6C1.200
; #@! TA.AperFunction,Plated,PTH,ComponentDrill
T7C1.300
%
G90
G05
T1
X8.73Y13.94
X8.75Y21.12
X8.76Y16.48
X9.57Y6.34
X11.15Y37.48
X11.33Y24.1
X11.94Y31.93
X13.96Y20.49
X14.38Y28.3
X14.66Y15.91
X15.26Y18.74
X15.45Y13.58
X15.52Y37.49
X17.11Y23.09
X17.73Y26.0
X18.0Y29.21
X19.35Y24.65
X20.36Y33.59
X20.43Y16.42
X20.69Y25.66
X22.21Y23.0
X22.21Y11.24
X22.25Y33.22
X22.58Y29.34
X23.9Y16.43
X25.08Y27.37
X26.7Y33.24
X27.13Y20.8
X27.13Y11.32
X28.31Y27.51
X28.47Y34.42
X29.17Y23.89
X29.37Y32.09
X30.51Y20.12
X32.31Y24.98
X32.33Y26.09
X32.36Y27.22
X33.67Y26.06
X33.68Y24.93
X33.69Y27.2
X34.42Y9.09
X34.92Y27.18
X34.95Y26.04
X34.97Y24.91
X37.94Y17.4
X38.4Y23.56
X39.09Y16.24
X39.24Y27.49
X40.3Y17.47
X40.37Y28.63
X41.71Y26.71
X41.88Y33.53
X41.9Y12.71
X43.29Y18.97
X43.93Y15.45
X43.95Y23.37
X44.4Y18.28
X45.39Y23.64
X46.57Y22.06
X46.58Y20.14
X46.98Y28.68
X47.06Y21.11
X48.81Y19.88
X50.52Y11.54
X51.43Y20.87
X53.56Y26.34
X53.64Y8.03
X54.85Y26.3
X54.96Y20.28
X55.15Y17.41
X55.48Y40.96
X56.02Y44.938
X56.17Y16.47
X56.21Y11.54
X56.24Y22.51
X57.4Y21.16
X57.49Y24.69
X57.67Y18.79
X57.81Y30.72
X58.68Y23.64
X59.92Y44.938
X60.02Y13.93
X60.43Y21.55
X61.16Y32.69
X61.46Y34.73
X61.56Y17.75
T2
X10.0Y26.31
X23.44Y24.69
X44.12Y25.33
T3
X29.21Y15.05
T4
X3.25Y50.76
X3.25Y48.22
X3.25Y45.68
X3.25Y43.14
X3.25Y40.6
X3.25Y38.06
X3.25Y35.52
X3.25Y32.98
X3.25Y30.44
X3.25Y27.9
X3.25Y25.36
X3.25Y22.82
X3.25Y20.28
X3.25Y17.74
X3.25Y15.2
X3.25Y12.66
X3.25Y10.12
X3.25Y7.58
X3.25Y5.04
X5.79Y50.76
X5.79Y48.22
X5.79Y45.68
X5.79Y43.14
X5.79Y40.6
X5.79Y38.06
X5.79Y35.52
X5.79Y32.98
X5.79Y30.44
X5.79Y27.9
X5.79Y25.36
X5.79Y22.82
X5.79Y20.28
X5.79Y17.74
X5.79Y15.2
X5.79Y12.66
X5.79Y10.12
X5.79Y7.58
X5.79Y5.04
X64.21Y50.76
X64.21Y48.22
X64.21Y45.68
X64.21Y43.14
X64.21Y40.6
X64.21Y38.06
X64.21Y35.52
X64.21Y32.98
X64.21Y30.44
X64.21Y27.9
X64.21Y25.36
X64.21Y22.82
X64.21Y20.28
X64.21Y17.74
X64.21Y15.2
X64.21Y12.66
X64.21Y10.12
X64.21Y7.58
X64.21Y5.04
X66.75Y50.76
X66.75Y48.22
X66.75Y45.68
X66.75Y43.14
X66.75Y40.6
X66.75Y38.06
X66.75Y35.52
X66.75Y32.98
X66.75Y30.44
X66.75Y27.9
X66.75Y25.36
X66.75Y22.82
X66.75Y20.28
X66.75Y17.74
X66.75Y15.2
X66.75Y12.66
X66.75Y10.12
X66.75Y7.58
X66.75Y5.04
T5
X24.56Y21.8
X24.56Y19.26
T6
X56.22Y51.04
X59.72Y51.04
T7
X11.01Y50.92
X16.01Y50.92
X16.9Y6.55
X21.9Y6.55
X26.9Y6.55
X31.9Y6.55
X36.9Y6.55
X41.9Y6.55
T0
M30
