%TF.GenerationSoftware,KiCad,Pcbnew,(6.0.11)*%
%TF.CreationDate,2024-08-05T16:37:02+07:00*%
%TF.ProjectId,Stepper_Motor_Expansion_Brd_revA,53746570-7065-4725-9f4d-6f746f725f45,rev?*%
%TF.SameCoordinates,PX5f5e100PY5f5e100*%
%TF.FileFunction,Drillmap*%
%TF.FilePolarity,Positive*%
%FSLAX45Y45*%
G04 Gerber Fmt 4.5, Leading zero omitted, Abs format (unit mm)*
G04 Created by KiCad (PCBNEW (6.0.11)) date 2024-08-05 16:37:02*
%MOMM*%
%LPD*%
G01*
G04 APERTURE LIST*
%ADD10C,0.100000*%
%ADD11C,0.200000*%
G04 APERTURE END LIST*
D10*
X2000000Y3800000D02*
G75*
G03*
X2200000Y3600000I200000J0D01*
G01*
X200000Y5700000D02*
X1800000Y5700000D01*
X1100000Y200000D02*
X1300000Y0D01*
X7000000Y5500000D02*
G75*
G03*
X6800000Y5700000I-200000J0D01*
G01*
X200000Y200000D02*
X1100000Y200000D01*
X200000Y5700000D02*
G75*
G03*
X0Y5500000I0J-200000D01*
G01*
X2000000Y5500000D02*
X2000000Y3800000D01*
X5500000Y5700000D02*
G75*
G03*
X5300000Y5500000I0J-200000D01*
G01*
X5300000Y5500000D02*
X5300000Y3800000D01*
X2000000Y5500000D02*
G75*
G03*
X1800000Y5700000I-200000J0D01*
G01*
X4600000Y0D02*
X4800000Y200000D01*
X4800000Y200000D02*
X6800000Y200000D01*
X0Y400000D02*
G75*
G03*
X200000Y200000I200000J0D01*
G01*
X6800000Y5700000D02*
X5500000Y5700000D01*
X7000000Y400000D02*
X7000000Y5500000D01*
X1300000Y0D02*
X4600000Y0D01*
X6800000Y200000D02*
G75*
G03*
X7000000Y400000I0J200000D01*
G01*
X5100000Y3600000D02*
G75*
G03*
X5300000Y3800000I0J200000D01*
G01*
X2200000Y3600000D02*
X5100000Y3600000D01*
X0Y400000D02*
X0Y5500000D01*
D11*
X252619Y-315476D02*
X252619Y-115476D01*
X300238Y-115476D01*
X328810Y-125000D01*
X347857Y-144048D01*
X357381Y-163095D01*
X366905Y-201190D01*
X366905Y-229762D01*
X357381Y-267857D01*
X347857Y-286905D01*
X328810Y-305952D01*
X300238Y-315476D01*
X252619Y-315476D01*
X452619Y-315476D02*
X452619Y-182143D01*
X452619Y-220238D02*
X462143Y-201190D01*
X471667Y-191667D01*
X490714Y-182143D01*
X509762Y-182143D01*
X576429Y-315476D02*
X576429Y-182143D01*
X576429Y-115476D02*
X566905Y-125000D01*
X576429Y-134524D01*
X585952Y-125000D01*
X576429Y-115476D01*
X576429Y-134524D01*
X700238Y-315476D02*
X681190Y-305952D01*
X671667Y-286905D01*
X671667Y-115476D01*
X805000Y-315476D02*
X785952Y-305952D01*
X776428Y-286905D01*
X776428Y-115476D01*
X1033571Y-315476D02*
X1033571Y-115476D01*
X1100238Y-258333D01*
X1166905Y-115476D01*
X1166905Y-315476D01*
X1347857Y-315476D02*
X1347857Y-210714D01*
X1338333Y-191667D01*
X1319286Y-182143D01*
X1281190Y-182143D01*
X1262143Y-191667D01*
X1347857Y-305952D02*
X1328810Y-315476D01*
X1281190Y-315476D01*
X1262143Y-305952D01*
X1252619Y-286905D01*
X1252619Y-267857D01*
X1262143Y-248809D01*
X1281190Y-239286D01*
X1328810Y-239286D01*
X1347857Y-229762D01*
X1443095Y-182143D02*
X1443095Y-382143D01*
X1443095Y-191667D02*
X1462143Y-182143D01*
X1500238Y-182143D01*
X1519286Y-191667D01*
X1528809Y-201190D01*
X1538333Y-220238D01*
X1538333Y-277381D01*
X1528809Y-296429D01*
X1519286Y-305952D01*
X1500238Y-315476D01*
X1462143Y-315476D01*
X1443095Y-305952D01*
X1624048Y-296429D02*
X1633571Y-305952D01*
X1624048Y-315476D01*
X1614524Y-305952D01*
X1624048Y-296429D01*
X1624048Y-315476D01*
X1624048Y-191667D02*
X1633571Y-201190D01*
X1624048Y-210714D01*
X1614524Y-201190D01*
X1624048Y-191667D01*
X1624048Y-210714D01*
M02*
