%TF.GenerationSoftware,KiCad,Pcbnew,(6.0.11)*%
%TF.CreationDate,2024-05-08T12:07:41+07:00*%
%TF.ProjectId,CTP_Display_CANbus_revA,4354505f-4469-4737-906c-61795f43414e,rev?*%
%TF.SameCoordinates,PX5f5e100PY5f5e100*%
%TF.FileFunction,Drillmap*%
%TF.FilePolarity,Positive*%
%FSLAX45Y45*%
G04 Gerber Fmt 4.5, Leading zero omitted, Abs format (unit mm)*
G04 Created by KiCad (PCBNEW (6.0.11)) date 2024-05-08 12:07:41*
%MOMM*%
%LPD*%
G01*
G04 APERTURE LIST*
%ADD10C,0.050000*%
%ADD11C,0.200000*%
%ADD12C,0.040000*%
%ADD13C,0.060000*%
%ADD14C,0.100000*%
%ADD15C,0.130000*%
G04 APERTURE END LIST*
D10*
X0Y5500000D02*
X0Y4800000D01*
X200000Y4650000D02*
X200000Y850000D01*
X0Y4800000D02*
X200000Y4650000D01*
X5850000Y0D02*
G75*
G03*
X6850000Y1000000I0J1000000D01*
G01*
X6850000Y4500000D02*
G75*
G03*
X5850000Y5500000I-1000000J0D01*
G01*
X6850000Y1000000D02*
X6850000Y4500000D01*
X0Y0D02*
X5850000Y0D01*
X0Y700000D02*
X200000Y850000D01*
X0Y5500000D02*
X5850000Y5500000D01*
X0Y0D02*
X0Y700000D01*
D11*
D12*
X1690000Y3366000D02*
X1730000Y3326000D01*
X1730000Y3366000D02*
X1690000Y3326000D01*
X1947000Y2859000D02*
X1987000Y2819000D01*
X1987000Y2859000D02*
X1947000Y2819000D01*
X2070000Y2289000D02*
X2110000Y2249000D01*
X2110000Y2289000D02*
X2070000Y2249000D01*
X2198000Y2290000D02*
X2238000Y2250000D01*
X2238000Y2290000D02*
X2198000Y2250000D01*
X2649000Y3561000D02*
X2689000Y3521000D01*
X2689000Y3561000D02*
X2649000Y3521000D01*
X2650000Y3725000D02*
X2690000Y3685000D01*
X2690000Y3725000D02*
X2650000Y3685000D01*
X2723000Y4340000D02*
X2763000Y4300000D01*
X2763000Y4340000D02*
X2723000Y4300000D01*
X2731000Y3806000D02*
X2771000Y3766000D01*
X2771000Y3806000D02*
X2731000Y3766000D01*
X2970000Y3646000D02*
X3010000Y3606000D01*
X3010000Y3646000D02*
X2970000Y3606000D01*
X3374000Y3634000D02*
X3414000Y3594000D01*
X3414000Y3634000D02*
X3374000Y3594000D01*
X3456000Y3413000D02*
X3496000Y3373000D01*
X3496000Y3413000D02*
X3456000Y3373000D01*
X3462000Y1190000D02*
X3502000Y1150000D01*
X3502000Y1190000D02*
X3462000Y1150000D01*
X3541000Y3096000D02*
X3581000Y3056000D01*
X3581000Y3096000D02*
X3541000Y3056000D01*
X3713000Y3097000D02*
X3753000Y3057000D01*
X3753000Y3097000D02*
X3713000Y3057000D01*
X3739000Y3421000D02*
X3779000Y3381000D01*
X3779000Y3421000D02*
X3739000Y3381000D01*
X3747000Y3553000D02*
X3787000Y3513000D01*
X3787000Y3553000D02*
X3747000Y3513000D01*
X3838000Y3019000D02*
X3878000Y2979000D01*
X3878000Y3019000D02*
X3838000Y2979000D01*
X3938000Y3347000D02*
X3978000Y3307000D01*
X3978000Y3347000D02*
X3938000Y3307000D01*
X3979000Y3467000D02*
X4019000Y3427000D01*
X4019000Y3467000D02*
X3979000Y3427000D01*
X4135000Y3387000D02*
X4175000Y3347000D01*
X4175000Y3387000D02*
X4135000Y3347000D01*
X4299000Y3308000D02*
X4339000Y3268000D01*
X4339000Y3308000D02*
X4299000Y3268000D01*
X4354000Y3176000D02*
X4394000Y3136000D01*
X4394000Y3176000D02*
X4354000Y3136000D01*
X4480000Y3230000D02*
X4520000Y3190000D01*
X4520000Y3230000D02*
X4480000Y3190000D01*
X4704000Y3118000D02*
X4744000Y3078000D01*
X4744000Y3118000D02*
X4704000Y3078000D01*
X4713000Y3639000D02*
X4753000Y3599000D01*
X4753000Y3639000D02*
X4713000Y3599000D01*
X4891000Y3561000D02*
X4931000Y3521000D01*
X4931000Y3561000D02*
X4891000Y3521000D01*
X5057000Y3481000D02*
X5097000Y3441000D01*
X5097000Y3481000D02*
X5057000Y3441000D01*
X5310000Y3446000D02*
X5350000Y3406000D01*
X5350000Y3446000D02*
X5310000Y3406000D01*
X5421000Y3446000D02*
X5461000Y3406000D01*
X5461000Y3446000D02*
X5421000Y3406000D01*
D10*
X921000Y2961000D02*
G75*
G03*
X921000Y2961000I-25000J0D01*
G01*
X925000Y1972000D02*
G75*
G03*
X925000Y1972000I-25000J0D01*
G01*
X1235000Y1330000D02*
G75*
G03*
X1235000Y1330000I-25000J0D01*
G01*
X1251000Y751000D02*
G75*
G03*
X1251000Y751000I-25000J0D01*
G01*
X1334000Y4198000D02*
G75*
G03*
X1334000Y4198000I-25000J0D01*
G01*
X1920000Y902000D02*
G75*
G03*
X1920000Y902000I-25000J0D01*
G01*
X2575000Y750000D02*
G75*
G03*
X2575000Y750000I-25000J0D01*
G01*
X2812000Y1625000D02*
G75*
G03*
X2812000Y1625000I-25000J0D01*
G01*
X2867000Y2891000D02*
G75*
G03*
X2867000Y2891000I-25000J0D01*
G01*
X3135000Y750000D02*
G75*
G03*
X3135000Y750000I-25000J0D01*
G01*
X3137000Y1069000D02*
G75*
G03*
X3137000Y1069000I-25000J0D01*
G01*
X3148000Y4356000D02*
G75*
G03*
X3148000Y4356000I-25000J0D01*
G01*
X3636000Y1719000D02*
G75*
G03*
X3636000Y1719000I-25000J0D01*
G01*
X4102000Y834000D02*
G75*
G03*
X4102000Y834000I-25000J0D01*
G01*
X4112000Y2110000D02*
G75*
G03*
X4112000Y2110000I-25000J0D01*
G01*
X4701000Y2625000D02*
G75*
G03*
X4701000Y2625000I-25000J0D01*
G01*
X4857000Y832000D02*
G75*
G03*
X4857000Y832000I-25000J0D01*
G01*
X5115000Y1370000D02*
G75*
G03*
X5115000Y1370000I-25000J0D01*
G01*
X5353000Y2094000D02*
G75*
G03*
X5353000Y2094000I-25000J0D01*
G01*
X5500000Y1107000D02*
G75*
G03*
X5500000Y1107000I-25000J0D01*
G01*
X5503000Y1650000D02*
G75*
G03*
X5503000Y1650000I-25000J0D01*
G01*
X6368000Y3162000D02*
G75*
G03*
X6368000Y3162000I-25000J0D01*
G01*
X6374000Y4150000D02*
G75*
G03*
X6374000Y4150000I-25000J0D01*
G01*
D13*
X1538000Y1729000D02*
X1538000Y1669000D01*
X1508000Y1699000D02*
X1568000Y1699000D01*
D14*
X221356Y5254644D02*
X221356Y5325356D01*
X150644Y5325356D01*
X150644Y5254644D01*
X221356Y5254644D01*
X221356Y5000644D02*
X221356Y5071356D01*
X150644Y5071356D01*
X150644Y5000644D01*
X221356Y5000644D01*
X221356Y428644D02*
X221356Y499356D01*
X150644Y499356D01*
X150644Y428644D01*
X221356Y428644D01*
X221356Y174644D02*
X221356Y245356D01*
X150644Y245356D01*
X150644Y174644D01*
X221356Y174644D01*
X475356Y5254644D02*
X475356Y5325356D01*
X404644Y5325356D01*
X404644Y5254644D01*
X475356Y5254644D01*
X475356Y5000644D02*
X475356Y5071356D01*
X404644Y5071356D01*
X404644Y5000644D01*
X475356Y5000644D01*
X475356Y428644D02*
X475356Y499356D01*
X404644Y499356D01*
X404644Y428644D01*
X475356Y428644D01*
X475356Y174644D02*
X475356Y245356D01*
X404644Y245356D01*
X404644Y174644D01*
X475356Y174644D01*
X729356Y5254644D02*
X729356Y5325356D01*
X658644Y5325356D01*
X658644Y5254644D01*
X729356Y5254644D01*
X729356Y5000644D02*
X729356Y5071356D01*
X658644Y5071356D01*
X658644Y5000644D01*
X729356Y5000644D01*
X729356Y428644D02*
X729356Y499356D01*
X658644Y499356D01*
X658644Y428644D01*
X729356Y428644D01*
X729356Y174644D02*
X729356Y245356D01*
X658644Y245356D01*
X658644Y174644D01*
X729356Y174644D01*
X983356Y5254644D02*
X983356Y5325356D01*
X912644Y5325356D01*
X912644Y5254644D01*
X983356Y5254644D01*
X983356Y5000644D02*
X983356Y5071356D01*
X912644Y5071356D01*
X912644Y5000644D01*
X983356Y5000644D01*
X983356Y428644D02*
X983356Y499356D01*
X912644Y499356D01*
X912644Y428644D01*
X983356Y428644D01*
X983356Y174644D02*
X983356Y245356D01*
X912644Y245356D01*
X912644Y174644D01*
X983356Y174644D01*
X1237356Y5254644D02*
X1237356Y5325356D01*
X1166644Y5325356D01*
X1166644Y5254644D01*
X1237356Y5254644D01*
X1237356Y5000644D02*
X1237356Y5071356D01*
X1166644Y5071356D01*
X1166644Y5000644D01*
X1237356Y5000644D01*
X1237356Y428644D02*
X1237356Y499356D01*
X1166644Y499356D01*
X1166644Y428644D01*
X1237356Y428644D01*
X1237356Y174644D02*
X1237356Y245356D01*
X1166644Y245356D01*
X1166644Y174644D01*
X1237356Y174644D01*
X1491356Y5254644D02*
X1491356Y5325356D01*
X1420644Y5325356D01*
X1420644Y5254644D01*
X1491356Y5254644D01*
X1491356Y5000644D02*
X1491356Y5071356D01*
X1420644Y5071356D01*
X1420644Y5000644D01*
X1491356Y5000644D01*
X1491356Y428644D02*
X1491356Y499356D01*
X1420644Y499356D01*
X1420644Y428644D01*
X1491356Y428644D01*
X1491356Y174644D02*
X1491356Y245356D01*
X1420644Y245356D01*
X1420644Y174644D01*
X1491356Y174644D01*
X1745356Y5254644D02*
X1745356Y5325356D01*
X1674644Y5325356D01*
X1674644Y5254644D01*
X1745356Y5254644D01*
X1745356Y5000644D02*
X1745356Y5071356D01*
X1674644Y5071356D01*
X1674644Y5000644D01*
X1745356Y5000644D01*
X1745356Y428644D02*
X1745356Y499356D01*
X1674644Y499356D01*
X1674644Y428644D01*
X1745356Y428644D01*
X1745356Y174644D02*
X1745356Y245356D01*
X1674644Y245356D01*
X1674644Y174644D01*
X1745356Y174644D01*
X1999356Y5254644D02*
X1999356Y5325356D01*
X1928644Y5325356D01*
X1928644Y5254644D01*
X1999356Y5254644D01*
X1999356Y5000644D02*
X1999356Y5071356D01*
X1928644Y5071356D01*
X1928644Y5000644D01*
X1999356Y5000644D01*
X1999356Y428644D02*
X1999356Y499356D01*
X1928644Y499356D01*
X1928644Y428644D01*
X1999356Y428644D01*
X1999356Y174644D02*
X1999356Y245356D01*
X1928644Y245356D01*
X1928644Y174644D01*
X1999356Y174644D01*
X2253356Y5254644D02*
X2253356Y5325356D01*
X2182644Y5325356D01*
X2182644Y5254644D01*
X2253356Y5254644D01*
X2253356Y5000644D02*
X2253356Y5071356D01*
X2182644Y5071356D01*
X2182644Y5000644D01*
X2253356Y5000644D01*
X2253356Y428644D02*
X2253356Y499356D01*
X2182644Y499356D01*
X2182644Y428644D01*
X2253356Y428644D01*
X2253356Y174644D02*
X2253356Y245356D01*
X2182644Y245356D01*
X2182644Y174644D01*
X2253356Y174644D01*
X2507356Y5254644D02*
X2507356Y5325356D01*
X2436644Y5325356D01*
X2436644Y5254644D01*
X2507356Y5254644D01*
X2507356Y5000644D02*
X2507356Y5071356D01*
X2436644Y5071356D01*
X2436644Y5000644D01*
X2507356Y5000644D01*
X2507356Y428644D02*
X2507356Y499356D01*
X2436644Y499356D01*
X2436644Y428644D01*
X2507356Y428644D01*
X2507356Y174644D02*
X2507356Y245356D01*
X2436644Y245356D01*
X2436644Y174644D01*
X2507356Y174644D01*
X2761356Y5254644D02*
X2761356Y5325356D01*
X2690644Y5325356D01*
X2690644Y5254644D01*
X2761356Y5254644D01*
X2761356Y5000644D02*
X2761356Y5071356D01*
X2690644Y5071356D01*
X2690644Y5000644D01*
X2761356Y5000644D01*
X2761356Y428644D02*
X2761356Y499356D01*
X2690644Y499356D01*
X2690644Y428644D01*
X2761356Y428644D01*
X2761356Y174644D02*
X2761356Y245356D01*
X2690644Y245356D01*
X2690644Y174644D01*
X2761356Y174644D01*
X3015356Y5254644D02*
X3015356Y5325356D01*
X2944644Y5325356D01*
X2944644Y5254644D01*
X3015356Y5254644D01*
X3015356Y5000644D02*
X3015356Y5071356D01*
X2944644Y5071356D01*
X2944644Y5000644D01*
X3015356Y5000644D01*
X3015356Y428644D02*
X3015356Y499356D01*
X2944644Y499356D01*
X2944644Y428644D01*
X3015356Y428644D01*
X3015356Y174644D02*
X3015356Y245356D01*
X2944644Y245356D01*
X2944644Y174644D01*
X3015356Y174644D01*
X3269356Y5254644D02*
X3269356Y5325356D01*
X3198644Y5325356D01*
X3198644Y5254644D01*
X3269356Y5254644D01*
X3269356Y5000644D02*
X3269356Y5071356D01*
X3198644Y5071356D01*
X3198644Y5000644D01*
X3269356Y5000644D01*
X3269356Y428644D02*
X3269356Y499356D01*
X3198644Y499356D01*
X3198644Y428644D01*
X3269356Y428644D01*
X3269356Y174644D02*
X3269356Y245356D01*
X3198644Y245356D01*
X3198644Y174644D01*
X3269356Y174644D01*
X3523356Y5254644D02*
X3523356Y5325356D01*
X3452644Y5325356D01*
X3452644Y5254644D01*
X3523356Y5254644D01*
X3523356Y5000644D02*
X3523356Y5071356D01*
X3452644Y5071356D01*
X3452644Y5000644D01*
X3523356Y5000644D01*
X3523356Y428644D02*
X3523356Y499356D01*
X3452644Y499356D01*
X3452644Y428644D01*
X3523356Y428644D01*
X3523356Y174644D02*
X3523356Y245356D01*
X3452644Y245356D01*
X3452644Y174644D01*
X3523356Y174644D01*
X3777356Y5254644D02*
X3777356Y5325356D01*
X3706644Y5325356D01*
X3706644Y5254644D01*
X3777356Y5254644D01*
X3777356Y5000644D02*
X3777356Y5071356D01*
X3706644Y5071356D01*
X3706644Y5000644D01*
X3777356Y5000644D01*
X3777356Y428644D02*
X3777356Y499356D01*
X3706644Y499356D01*
X3706644Y428644D01*
X3777356Y428644D01*
X3777356Y174644D02*
X3777356Y245356D01*
X3706644Y245356D01*
X3706644Y174644D01*
X3777356Y174644D01*
X4031356Y5254644D02*
X4031356Y5325356D01*
X3960644Y5325356D01*
X3960644Y5254644D01*
X4031356Y5254644D01*
X4031356Y5000644D02*
X4031356Y5071356D01*
X3960644Y5071356D01*
X3960644Y5000644D01*
X4031356Y5000644D01*
X4031356Y428644D02*
X4031356Y499356D01*
X3960644Y499356D01*
X3960644Y428644D01*
X4031356Y428644D01*
X4031356Y174644D02*
X4031356Y245356D01*
X3960644Y245356D01*
X3960644Y174644D01*
X4031356Y174644D01*
X4285356Y5254644D02*
X4285356Y5325356D01*
X4214644Y5325356D01*
X4214644Y5254644D01*
X4285356Y5254644D01*
X4285356Y5000644D02*
X4285356Y5071356D01*
X4214644Y5071356D01*
X4214644Y5000644D01*
X4285356Y5000644D01*
X4285356Y428644D02*
X4285356Y499356D01*
X4214644Y499356D01*
X4214644Y428644D01*
X4285356Y428644D01*
X4285356Y174644D02*
X4285356Y245356D01*
X4214644Y245356D01*
X4214644Y174644D01*
X4285356Y174644D01*
X4539356Y5254644D02*
X4539356Y5325356D01*
X4468644Y5325356D01*
X4468644Y5254644D01*
X4539356Y5254644D01*
X4539356Y5000644D02*
X4539356Y5071356D01*
X4468644Y5071356D01*
X4468644Y5000644D01*
X4539356Y5000644D01*
X4539356Y428644D02*
X4539356Y499356D01*
X4468644Y499356D01*
X4468644Y428644D01*
X4539356Y428644D01*
X4539356Y174644D02*
X4539356Y245356D01*
X4468644Y245356D01*
X4468644Y174644D01*
X4539356Y174644D01*
X4793356Y5254644D02*
X4793356Y5325356D01*
X4722644Y5325356D01*
X4722644Y5254644D01*
X4793356Y5254644D01*
X4793356Y5000644D02*
X4793356Y5071356D01*
X4722644Y5071356D01*
X4722644Y5000644D01*
X4793356Y5000644D01*
X4793356Y428644D02*
X4793356Y499356D01*
X4722644Y499356D01*
X4722644Y428644D01*
X4793356Y428644D01*
X4793356Y174644D02*
X4793356Y245356D01*
X4722644Y245356D01*
X4722644Y174644D01*
X4793356Y174644D01*
X5047356Y5254644D02*
X5047356Y5325356D01*
X4976644Y5325356D01*
X4976644Y5254644D01*
X5047356Y5254644D01*
X5047356Y5000644D02*
X5047356Y5071356D01*
X4976644Y5071356D01*
X4976644Y5000644D01*
X5047356Y5000644D01*
X5047356Y428644D02*
X5047356Y499356D01*
X4976644Y499356D01*
X4976644Y428644D01*
X5047356Y428644D01*
X5047356Y174644D02*
X5047356Y245356D01*
X4976644Y245356D01*
X4976644Y174644D01*
X5047356Y174644D01*
X5301356Y5254644D02*
X5301356Y5325356D01*
X5230644Y5325356D01*
X5230644Y5254644D01*
X5301356Y5254644D01*
X5301356Y5000644D02*
X5301356Y5071356D01*
X5230644Y5071356D01*
X5230644Y5000644D01*
X5301356Y5000644D01*
X5301356Y428644D02*
X5301356Y499356D01*
X5230644Y499356D01*
X5230644Y428644D01*
X5301356Y428644D01*
X5301356Y174644D02*
X5301356Y245356D01*
X5230644Y245356D01*
X5230644Y174644D01*
X5301356Y174644D01*
X5555356Y5254644D02*
X5555356Y5325356D01*
X5484644Y5325356D01*
X5484644Y5254644D01*
X5555356Y5254644D01*
X5555356Y5000644D02*
X5555356Y5071356D01*
X5484644Y5071356D01*
X5484644Y5000644D01*
X5555356Y5000644D01*
X5555356Y428644D02*
X5555356Y499356D01*
X5484644Y499356D01*
X5484644Y428644D01*
X5555356Y428644D01*
X5555356Y174644D02*
X5555356Y245356D01*
X5484644Y245356D01*
X5484644Y174644D01*
X5555356Y174644D01*
X5809356Y5254644D02*
X5809356Y5325356D01*
X5738644Y5325356D01*
X5738644Y5254644D01*
X5809356Y5254644D01*
X5809356Y5000644D02*
X5809356Y5071356D01*
X5738644Y5071356D01*
X5738644Y5000644D01*
X5809356Y5000644D01*
X5809356Y428644D02*
X5809356Y499356D01*
X5738644Y499356D01*
X5738644Y428644D01*
X5809356Y428644D01*
X5809356Y174644D02*
X5809356Y245356D01*
X5738644Y245356D01*
X5738644Y174644D01*
X5809356Y174644D01*
D15*
X6200000Y1585000D02*
X6265000Y1650000D01*
X6200000Y1715000D01*
X6135000Y1650000D01*
X6200000Y1585000D01*
X6200000Y1085000D02*
X6265000Y1150000D01*
X6200000Y1215000D01*
X6135000Y1150000D01*
X6200000Y1085000D01*
D11*
X255119Y-312976D02*
X255119Y-112976D01*
X302738Y-112976D01*
X331310Y-122500D01*
X350357Y-141548D01*
X359881Y-160595D01*
X369405Y-198690D01*
X369405Y-227262D01*
X359881Y-265357D01*
X350357Y-284405D01*
X331310Y-303452D01*
X302738Y-312976D01*
X255119Y-312976D01*
X455119Y-312976D02*
X455119Y-179643D01*
X455119Y-217738D02*
X464643Y-198690D01*
X474167Y-189167D01*
X493214Y-179643D01*
X512262Y-179643D01*
X578929Y-312976D02*
X578929Y-179643D01*
X578929Y-112976D02*
X569405Y-122500D01*
X578929Y-132024D01*
X588452Y-122500D01*
X578929Y-112976D01*
X578929Y-132024D01*
X702738Y-312976D02*
X683690Y-303452D01*
X674167Y-284405D01*
X674167Y-112976D01*
X807500Y-312976D02*
X788452Y-303452D01*
X778928Y-284405D01*
X778928Y-112976D01*
X1036071Y-312976D02*
X1036071Y-112976D01*
X1102738Y-255833D01*
X1169405Y-112976D01*
X1169405Y-312976D01*
X1350357Y-312976D02*
X1350357Y-208214D01*
X1340833Y-189167D01*
X1321786Y-179643D01*
X1283690Y-179643D01*
X1264643Y-189167D01*
X1350357Y-303452D02*
X1331310Y-312976D01*
X1283690Y-312976D01*
X1264643Y-303452D01*
X1255119Y-284405D01*
X1255119Y-265357D01*
X1264643Y-246309D01*
X1283690Y-236786D01*
X1331310Y-236786D01*
X1350357Y-227262D01*
X1445595Y-179643D02*
X1445595Y-379643D01*
X1445595Y-189167D02*
X1464643Y-179643D01*
X1502738Y-179643D01*
X1521786Y-189167D01*
X1531309Y-198690D01*
X1540833Y-217738D01*
X1540833Y-274881D01*
X1531309Y-293929D01*
X1521786Y-303452D01*
X1502738Y-312976D01*
X1464643Y-312976D01*
X1445595Y-303452D01*
X1626548Y-293929D02*
X1636071Y-303452D01*
X1626548Y-312976D01*
X1617024Y-303452D01*
X1626548Y-293929D01*
X1626548Y-312976D01*
X1626548Y-189167D02*
X1636071Y-198690D01*
X1626548Y-208214D01*
X1617024Y-198690D01*
X1626548Y-189167D01*
X1626548Y-208214D01*
D12*
X-42500Y-622500D02*
X-2500Y-662500D01*
X-2500Y-622500D02*
X-42500Y-662500D01*
D11*
X293214Y-532976D02*
X312262Y-532976D01*
X331310Y-542500D01*
X340833Y-552024D01*
X350357Y-571071D01*
X359881Y-609167D01*
X359881Y-656786D01*
X350357Y-694881D01*
X340833Y-713928D01*
X331310Y-723452D01*
X312262Y-732976D01*
X293214Y-732976D01*
X274167Y-723452D01*
X264643Y-713928D01*
X255119Y-694881D01*
X245595Y-656786D01*
X245595Y-609167D01*
X255119Y-571071D01*
X264643Y-552024D01*
X274167Y-542500D01*
X293214Y-532976D01*
X445595Y-713928D02*
X455119Y-723452D01*
X445595Y-732976D01*
X436071Y-723452D01*
X445595Y-713928D01*
X445595Y-732976D01*
X626548Y-599643D02*
X626548Y-732976D01*
X578929Y-523452D02*
X531310Y-666310D01*
X655119Y-666310D01*
X769405Y-532976D02*
X788452Y-532976D01*
X807500Y-542500D01*
X817024Y-552024D01*
X826548Y-571071D01*
X836071Y-609167D01*
X836071Y-656786D01*
X826548Y-694881D01*
X817024Y-713928D01*
X807500Y-723452D01*
X788452Y-732976D01*
X769405Y-732976D01*
X750357Y-723452D01*
X740833Y-713928D01*
X731309Y-694881D01*
X721786Y-656786D01*
X721786Y-609167D01*
X731309Y-571071D01*
X740833Y-552024D01*
X750357Y-542500D01*
X769405Y-532976D01*
X959881Y-532976D02*
X978928Y-532976D01*
X997976Y-542500D01*
X1007500Y-552024D01*
X1017024Y-571071D01*
X1026548Y-609167D01*
X1026548Y-656786D01*
X1017024Y-694881D01*
X1007500Y-713928D01*
X997976Y-723452D01*
X978928Y-732976D01*
X959881Y-732976D01*
X940833Y-723452D01*
X931309Y-713928D01*
X921786Y-694881D01*
X912262Y-656786D01*
X912262Y-609167D01*
X921786Y-571071D01*
X931309Y-552024D01*
X940833Y-542500D01*
X959881Y-532976D01*
X1112262Y-732976D02*
X1112262Y-599643D01*
X1112262Y-618690D02*
X1121786Y-609167D01*
X1140833Y-599643D01*
X1169405Y-599643D01*
X1188452Y-609167D01*
X1197976Y-628214D01*
X1197976Y-732976D01*
X1197976Y-628214D02*
X1207500Y-609167D01*
X1226548Y-599643D01*
X1255119Y-599643D01*
X1274167Y-609167D01*
X1283690Y-628214D01*
X1283690Y-732976D01*
X1378929Y-732976D02*
X1378929Y-599643D01*
X1378929Y-618690D02*
X1388452Y-609167D01*
X1407500Y-599643D01*
X1436071Y-599643D01*
X1455119Y-609167D01*
X1464643Y-628214D01*
X1464643Y-732976D01*
X1464643Y-628214D02*
X1474167Y-609167D01*
X1493214Y-599643D01*
X1521786Y-599643D01*
X1540833Y-609167D01*
X1550357Y-628214D01*
X1550357Y-732976D01*
X1940833Y-523452D02*
X1769405Y-780595D01*
X2197976Y-532976D02*
X2217024Y-532976D01*
X2236071Y-542500D01*
X2245595Y-552024D01*
X2255119Y-571071D01*
X2264643Y-609167D01*
X2264643Y-656786D01*
X2255119Y-694881D01*
X2245595Y-713928D01*
X2236071Y-723452D01*
X2217024Y-732976D01*
X2197976Y-732976D01*
X2178929Y-723452D01*
X2169405Y-713928D01*
X2159881Y-694881D01*
X2150357Y-656786D01*
X2150357Y-609167D01*
X2159881Y-571071D01*
X2169405Y-552024D01*
X2178929Y-542500D01*
X2197976Y-532976D01*
X2350357Y-713928D02*
X2359881Y-723452D01*
X2350357Y-732976D01*
X2340833Y-723452D01*
X2350357Y-713928D01*
X2350357Y-732976D01*
X2483690Y-532976D02*
X2502738Y-532976D01*
X2521786Y-542500D01*
X2531310Y-552024D01*
X2540833Y-571071D01*
X2550357Y-609167D01*
X2550357Y-656786D01*
X2540833Y-694881D01*
X2531310Y-713928D01*
X2521786Y-723452D01*
X2502738Y-732976D01*
X2483690Y-732976D01*
X2464643Y-723452D01*
X2455119Y-713928D01*
X2445595Y-694881D01*
X2436071Y-656786D01*
X2436071Y-609167D01*
X2445595Y-571071D01*
X2455119Y-552024D01*
X2464643Y-542500D01*
X2483690Y-532976D01*
X2740833Y-732976D02*
X2626548Y-732976D01*
X2683690Y-732976D02*
X2683690Y-532976D01*
X2664643Y-561548D01*
X2645595Y-580595D01*
X2626548Y-590119D01*
X2921786Y-532976D02*
X2826548Y-532976D01*
X2817024Y-628214D01*
X2826548Y-618690D01*
X2845595Y-609167D01*
X2893214Y-609167D01*
X2912262Y-618690D01*
X2921786Y-628214D01*
X2931309Y-647262D01*
X2931309Y-694881D01*
X2921786Y-713928D01*
X2912262Y-723452D01*
X2893214Y-732976D01*
X2845595Y-732976D01*
X2826548Y-723452D01*
X2817024Y-713928D01*
X2997976Y-532976D02*
X3131309Y-532976D01*
X3045595Y-732976D01*
X3197976Y-532976D02*
X3197976Y-571071D01*
X3274167Y-532976D02*
X3274167Y-571071D01*
X3569405Y-809167D02*
X3559881Y-799643D01*
X3540833Y-771071D01*
X3531309Y-752024D01*
X3521786Y-723452D01*
X3512262Y-675833D01*
X3512262Y-637738D01*
X3521786Y-590119D01*
X3531309Y-561548D01*
X3540833Y-542500D01*
X3559881Y-513928D01*
X3569405Y-504405D01*
X3636071Y-552024D02*
X3645595Y-542500D01*
X3664643Y-532976D01*
X3712262Y-532976D01*
X3731309Y-542500D01*
X3740833Y-552024D01*
X3750357Y-571071D01*
X3750357Y-590119D01*
X3740833Y-618690D01*
X3626548Y-732976D01*
X3750357Y-732976D01*
X3845595Y-732976D02*
X3883690Y-732976D01*
X3902738Y-723452D01*
X3912262Y-713928D01*
X3931309Y-685357D01*
X3940833Y-647262D01*
X3940833Y-571071D01*
X3931309Y-552024D01*
X3921786Y-542500D01*
X3902738Y-532976D01*
X3864643Y-532976D01*
X3845595Y-542500D01*
X3836071Y-552024D01*
X3826548Y-571071D01*
X3826548Y-618690D01*
X3836071Y-637738D01*
X3845595Y-647262D01*
X3864643Y-656786D01*
X3902738Y-656786D01*
X3921786Y-647262D01*
X3931309Y-637738D01*
X3940833Y-618690D01*
X4178928Y-732976D02*
X4178928Y-532976D01*
X4264643Y-732976D02*
X4264643Y-628214D01*
X4255119Y-609167D01*
X4236071Y-599643D01*
X4207500Y-599643D01*
X4188452Y-609167D01*
X4178928Y-618690D01*
X4388452Y-732976D02*
X4369405Y-723452D01*
X4359881Y-713928D01*
X4350357Y-694881D01*
X4350357Y-637738D01*
X4359881Y-618690D01*
X4369405Y-609167D01*
X4388452Y-599643D01*
X4417024Y-599643D01*
X4436071Y-609167D01*
X4445595Y-618690D01*
X4455119Y-637738D01*
X4455119Y-694881D01*
X4445595Y-713928D01*
X4436071Y-723452D01*
X4417024Y-732976D01*
X4388452Y-732976D01*
X4569405Y-732976D02*
X4550357Y-723452D01*
X4540833Y-704405D01*
X4540833Y-532976D01*
X4721786Y-723452D02*
X4702738Y-732976D01*
X4664643Y-732976D01*
X4645595Y-723452D01*
X4636071Y-704405D01*
X4636071Y-628214D01*
X4645595Y-609167D01*
X4664643Y-599643D01*
X4702738Y-599643D01*
X4721786Y-609167D01*
X4731310Y-628214D01*
X4731310Y-647262D01*
X4636071Y-666310D01*
X4807500Y-723452D02*
X4826548Y-732976D01*
X4864643Y-732976D01*
X4883690Y-723452D01*
X4893214Y-704405D01*
X4893214Y-694881D01*
X4883690Y-675833D01*
X4864643Y-666310D01*
X4836071Y-666310D01*
X4817024Y-656786D01*
X4807500Y-637738D01*
X4807500Y-628214D01*
X4817024Y-609167D01*
X4836071Y-599643D01*
X4864643Y-599643D01*
X4883690Y-609167D01*
X4959881Y-809167D02*
X4969405Y-799643D01*
X4988452Y-771071D01*
X4997976Y-752024D01*
X5007500Y-723452D01*
X5017024Y-675833D01*
X5017024Y-637738D01*
X5007500Y-590119D01*
X4997976Y-561548D01*
X4988452Y-542500D01*
X4969405Y-513928D01*
X4959881Y-504405D01*
D10*
X-2500Y-906500D02*
G75*
G03*
X-2500Y-906500I-25000J0D01*
G01*
D11*
X293214Y-796976D02*
X312262Y-796976D01*
X331310Y-806500D01*
X340833Y-816024D01*
X350357Y-835071D01*
X359881Y-873167D01*
X359881Y-920786D01*
X350357Y-958881D01*
X340833Y-977928D01*
X331310Y-987452D01*
X312262Y-996976D01*
X293214Y-996976D01*
X274167Y-987452D01*
X264643Y-977928D01*
X255119Y-958881D01*
X245595Y-920786D01*
X245595Y-873167D01*
X255119Y-835071D01*
X264643Y-816024D01*
X274167Y-806500D01*
X293214Y-796976D01*
X445595Y-977928D02*
X455119Y-987452D01*
X445595Y-996976D01*
X436071Y-987452D01*
X445595Y-977928D01*
X445595Y-996976D01*
X636071Y-796976D02*
X540833Y-796976D01*
X531310Y-892214D01*
X540833Y-882690D01*
X559881Y-873167D01*
X607500Y-873167D01*
X626548Y-882690D01*
X636071Y-892214D01*
X645595Y-911262D01*
X645595Y-958881D01*
X636071Y-977928D01*
X626548Y-987452D01*
X607500Y-996976D01*
X559881Y-996976D01*
X540833Y-987452D01*
X531310Y-977928D01*
X769405Y-796976D02*
X788452Y-796976D01*
X807500Y-806500D01*
X817024Y-816024D01*
X826548Y-835071D01*
X836071Y-873167D01*
X836071Y-920786D01*
X826548Y-958881D01*
X817024Y-977928D01*
X807500Y-987452D01*
X788452Y-996976D01*
X769405Y-996976D01*
X750357Y-987452D01*
X740833Y-977928D01*
X731309Y-958881D01*
X721786Y-920786D01*
X721786Y-873167D01*
X731309Y-835071D01*
X740833Y-816024D01*
X750357Y-806500D01*
X769405Y-796976D01*
X959881Y-796976D02*
X978928Y-796976D01*
X997976Y-806500D01*
X1007500Y-816024D01*
X1017024Y-835071D01*
X1026548Y-873167D01*
X1026548Y-920786D01*
X1017024Y-958881D01*
X1007500Y-977928D01*
X997976Y-987452D01*
X978928Y-996976D01*
X959881Y-996976D01*
X940833Y-987452D01*
X931309Y-977928D01*
X921786Y-958881D01*
X912262Y-920786D01*
X912262Y-873167D01*
X921786Y-835071D01*
X931309Y-816024D01*
X940833Y-806500D01*
X959881Y-796976D01*
X1112262Y-996976D02*
X1112262Y-863643D01*
X1112262Y-882690D02*
X1121786Y-873167D01*
X1140833Y-863643D01*
X1169405Y-863643D01*
X1188452Y-873167D01*
X1197976Y-892214D01*
X1197976Y-996976D01*
X1197976Y-892214D02*
X1207500Y-873167D01*
X1226548Y-863643D01*
X1255119Y-863643D01*
X1274167Y-873167D01*
X1283690Y-892214D01*
X1283690Y-996976D01*
X1378929Y-996976D02*
X1378929Y-863643D01*
X1378929Y-882690D02*
X1388452Y-873167D01*
X1407500Y-863643D01*
X1436071Y-863643D01*
X1455119Y-873167D01*
X1464643Y-892214D01*
X1464643Y-996976D01*
X1464643Y-892214D02*
X1474167Y-873167D01*
X1493214Y-863643D01*
X1521786Y-863643D01*
X1540833Y-873167D01*
X1550357Y-892214D01*
X1550357Y-996976D01*
X1940833Y-787452D02*
X1769405Y-1044595D01*
X2197976Y-796976D02*
X2217024Y-796976D01*
X2236071Y-806500D01*
X2245595Y-816024D01*
X2255119Y-835071D01*
X2264643Y-873167D01*
X2264643Y-920786D01*
X2255119Y-958881D01*
X2245595Y-977928D01*
X2236071Y-987452D01*
X2217024Y-996976D01*
X2197976Y-996976D01*
X2178929Y-987452D01*
X2169405Y-977928D01*
X2159881Y-958881D01*
X2150357Y-920786D01*
X2150357Y-873167D01*
X2159881Y-835071D01*
X2169405Y-816024D01*
X2178929Y-806500D01*
X2197976Y-796976D01*
X2350357Y-977928D02*
X2359881Y-987452D01*
X2350357Y-996976D01*
X2340833Y-987452D01*
X2350357Y-977928D01*
X2350357Y-996976D01*
X2483690Y-796976D02*
X2502738Y-796976D01*
X2521786Y-806500D01*
X2531310Y-816024D01*
X2540833Y-835071D01*
X2550357Y-873167D01*
X2550357Y-920786D01*
X2540833Y-958881D01*
X2531310Y-977928D01*
X2521786Y-987452D01*
X2502738Y-996976D01*
X2483690Y-996976D01*
X2464643Y-987452D01*
X2455119Y-977928D01*
X2445595Y-958881D01*
X2436071Y-920786D01*
X2436071Y-873167D01*
X2445595Y-835071D01*
X2455119Y-816024D01*
X2464643Y-806500D01*
X2483690Y-796976D01*
X2740833Y-996976D02*
X2626548Y-996976D01*
X2683690Y-996976D02*
X2683690Y-796976D01*
X2664643Y-825548D01*
X2645595Y-844595D01*
X2626548Y-854119D01*
X2836071Y-996976D02*
X2874167Y-996976D01*
X2893214Y-987452D01*
X2902738Y-977928D01*
X2921786Y-949357D01*
X2931309Y-911262D01*
X2931309Y-835071D01*
X2921786Y-816024D01*
X2912262Y-806500D01*
X2893214Y-796976D01*
X2855119Y-796976D01*
X2836071Y-806500D01*
X2826548Y-816024D01*
X2817024Y-835071D01*
X2817024Y-882690D01*
X2826548Y-901738D01*
X2836071Y-911262D01*
X2855119Y-920786D01*
X2893214Y-920786D01*
X2912262Y-911262D01*
X2921786Y-901738D01*
X2931309Y-882690D01*
X2997976Y-796976D02*
X3131309Y-796976D01*
X3045595Y-996976D01*
X3197976Y-796976D02*
X3197976Y-835071D01*
X3274167Y-796976D02*
X3274167Y-835071D01*
X3569405Y-1073167D02*
X3559881Y-1063643D01*
X3540833Y-1035071D01*
X3531309Y-1016024D01*
X3521786Y-987452D01*
X3512262Y-939833D01*
X3512262Y-901738D01*
X3521786Y-854119D01*
X3531309Y-825548D01*
X3540833Y-806500D01*
X3559881Y-777928D01*
X3569405Y-768405D01*
X3636071Y-816024D02*
X3645595Y-806500D01*
X3664643Y-796976D01*
X3712262Y-796976D01*
X3731309Y-806500D01*
X3740833Y-816024D01*
X3750357Y-835071D01*
X3750357Y-854119D01*
X3740833Y-882690D01*
X3626548Y-996976D01*
X3750357Y-996976D01*
X3817024Y-796976D02*
X3940833Y-796976D01*
X3874167Y-873167D01*
X3902738Y-873167D01*
X3921786Y-882690D01*
X3931309Y-892214D01*
X3940833Y-911262D01*
X3940833Y-958881D01*
X3931309Y-977928D01*
X3921786Y-987452D01*
X3902738Y-996976D01*
X3845595Y-996976D01*
X3826548Y-987452D01*
X3817024Y-977928D01*
X4178928Y-996976D02*
X4178928Y-796976D01*
X4264643Y-996976D02*
X4264643Y-892214D01*
X4255119Y-873167D01*
X4236071Y-863643D01*
X4207500Y-863643D01*
X4188452Y-873167D01*
X4178928Y-882690D01*
X4388452Y-996976D02*
X4369405Y-987452D01*
X4359881Y-977928D01*
X4350357Y-958881D01*
X4350357Y-901738D01*
X4359881Y-882690D01*
X4369405Y-873167D01*
X4388452Y-863643D01*
X4417024Y-863643D01*
X4436071Y-873167D01*
X4445595Y-882690D01*
X4455119Y-901738D01*
X4455119Y-958881D01*
X4445595Y-977928D01*
X4436071Y-987452D01*
X4417024Y-996976D01*
X4388452Y-996976D01*
X4569405Y-996976D02*
X4550357Y-987452D01*
X4540833Y-968405D01*
X4540833Y-796976D01*
X4721786Y-987452D02*
X4702738Y-996976D01*
X4664643Y-996976D01*
X4645595Y-987452D01*
X4636071Y-968405D01*
X4636071Y-892214D01*
X4645595Y-873167D01*
X4664643Y-863643D01*
X4702738Y-863643D01*
X4721786Y-873167D01*
X4731310Y-892214D01*
X4731310Y-911262D01*
X4636071Y-930309D01*
X4807500Y-987452D02*
X4826548Y-996976D01*
X4864643Y-996976D01*
X4883690Y-987452D01*
X4893214Y-968405D01*
X4893214Y-958881D01*
X4883690Y-939833D01*
X4864643Y-930309D01*
X4836071Y-930309D01*
X4817024Y-920786D01*
X4807500Y-901738D01*
X4807500Y-892214D01*
X4817024Y-873167D01*
X4836071Y-863643D01*
X4864643Y-863643D01*
X4883690Y-873167D01*
X4959881Y-1073167D02*
X4969405Y-1063643D01*
X4988452Y-1035071D01*
X4997976Y-1016024D01*
X5007500Y-987452D01*
X5017024Y-939833D01*
X5017024Y-901738D01*
X5007500Y-854119D01*
X4997976Y-825548D01*
X4988452Y-806500D01*
X4969405Y-777928D01*
X4959881Y-768405D01*
D13*
X-32500Y-1140500D02*
X-32500Y-1200500D01*
X-62500Y-1170500D02*
X-2500Y-1170500D01*
D11*
X293214Y-1060976D02*
X312262Y-1060976D01*
X331310Y-1070500D01*
X340833Y-1080024D01*
X350357Y-1099071D01*
X359881Y-1137167D01*
X359881Y-1184786D01*
X350357Y-1222881D01*
X340833Y-1241929D01*
X331310Y-1251452D01*
X312262Y-1260976D01*
X293214Y-1260976D01*
X274167Y-1251452D01*
X264643Y-1241929D01*
X255119Y-1222881D01*
X245595Y-1184786D01*
X245595Y-1137167D01*
X255119Y-1099071D01*
X264643Y-1080024D01*
X274167Y-1070500D01*
X293214Y-1060976D01*
X445595Y-1241929D02*
X455119Y-1251452D01*
X445595Y-1260976D01*
X436071Y-1251452D01*
X445595Y-1241929D01*
X445595Y-1260976D01*
X626548Y-1060976D02*
X588452Y-1060976D01*
X569405Y-1070500D01*
X559881Y-1080024D01*
X540833Y-1108595D01*
X531310Y-1146690D01*
X531310Y-1222881D01*
X540833Y-1241929D01*
X550357Y-1251452D01*
X569405Y-1260976D01*
X607500Y-1260976D01*
X626548Y-1251452D01*
X636071Y-1241929D01*
X645595Y-1222881D01*
X645595Y-1175262D01*
X636071Y-1156214D01*
X626548Y-1146690D01*
X607500Y-1137167D01*
X569405Y-1137167D01*
X550357Y-1146690D01*
X540833Y-1156214D01*
X531310Y-1175262D01*
X769405Y-1060976D02*
X788452Y-1060976D01*
X807500Y-1070500D01*
X817024Y-1080024D01*
X826548Y-1099071D01*
X836071Y-1137167D01*
X836071Y-1184786D01*
X826548Y-1222881D01*
X817024Y-1241929D01*
X807500Y-1251452D01*
X788452Y-1260976D01*
X769405Y-1260976D01*
X750357Y-1251452D01*
X740833Y-1241929D01*
X731309Y-1222881D01*
X721786Y-1184786D01*
X721786Y-1137167D01*
X731309Y-1099071D01*
X740833Y-1080024D01*
X750357Y-1070500D01*
X769405Y-1060976D01*
X959881Y-1060976D02*
X978928Y-1060976D01*
X997976Y-1070500D01*
X1007500Y-1080024D01*
X1017024Y-1099071D01*
X1026548Y-1137167D01*
X1026548Y-1184786D01*
X1017024Y-1222881D01*
X1007500Y-1241929D01*
X997976Y-1251452D01*
X978928Y-1260976D01*
X959881Y-1260976D01*
X940833Y-1251452D01*
X931309Y-1241929D01*
X921786Y-1222881D01*
X912262Y-1184786D01*
X912262Y-1137167D01*
X921786Y-1099071D01*
X931309Y-1080024D01*
X940833Y-1070500D01*
X959881Y-1060976D01*
X1112262Y-1260976D02*
X1112262Y-1127643D01*
X1112262Y-1146690D02*
X1121786Y-1137167D01*
X1140833Y-1127643D01*
X1169405Y-1127643D01*
X1188452Y-1137167D01*
X1197976Y-1156214D01*
X1197976Y-1260976D01*
X1197976Y-1156214D02*
X1207500Y-1137167D01*
X1226548Y-1127643D01*
X1255119Y-1127643D01*
X1274167Y-1137167D01*
X1283690Y-1156214D01*
X1283690Y-1260976D01*
X1378929Y-1260976D02*
X1378929Y-1127643D01*
X1378929Y-1146690D02*
X1388452Y-1137167D01*
X1407500Y-1127643D01*
X1436071Y-1127643D01*
X1455119Y-1137167D01*
X1464643Y-1156214D01*
X1464643Y-1260976D01*
X1464643Y-1156214D02*
X1474167Y-1137167D01*
X1493214Y-1127643D01*
X1521786Y-1127643D01*
X1540833Y-1137167D01*
X1550357Y-1156214D01*
X1550357Y-1260976D01*
X1940833Y-1051452D02*
X1769405Y-1308595D01*
X2197976Y-1060976D02*
X2217024Y-1060976D01*
X2236071Y-1070500D01*
X2245595Y-1080024D01*
X2255119Y-1099071D01*
X2264643Y-1137167D01*
X2264643Y-1184786D01*
X2255119Y-1222881D01*
X2245595Y-1241929D01*
X2236071Y-1251452D01*
X2217024Y-1260976D01*
X2197976Y-1260976D01*
X2178929Y-1251452D01*
X2169405Y-1241929D01*
X2159881Y-1222881D01*
X2150357Y-1184786D01*
X2150357Y-1137167D01*
X2159881Y-1099071D01*
X2169405Y-1080024D01*
X2178929Y-1070500D01*
X2197976Y-1060976D01*
X2350357Y-1241929D02*
X2359881Y-1251452D01*
X2350357Y-1260976D01*
X2340833Y-1251452D01*
X2350357Y-1241929D01*
X2350357Y-1260976D01*
X2483690Y-1060976D02*
X2502738Y-1060976D01*
X2521786Y-1070500D01*
X2531310Y-1080024D01*
X2540833Y-1099071D01*
X2550357Y-1137167D01*
X2550357Y-1184786D01*
X2540833Y-1222881D01*
X2531310Y-1241929D01*
X2521786Y-1251452D01*
X2502738Y-1260976D01*
X2483690Y-1260976D01*
X2464643Y-1251452D01*
X2455119Y-1241929D01*
X2445595Y-1222881D01*
X2436071Y-1184786D01*
X2436071Y-1137167D01*
X2445595Y-1099071D01*
X2455119Y-1080024D01*
X2464643Y-1070500D01*
X2483690Y-1060976D01*
X2626548Y-1080024D02*
X2636071Y-1070500D01*
X2655119Y-1060976D01*
X2702738Y-1060976D01*
X2721786Y-1070500D01*
X2731310Y-1080024D01*
X2740833Y-1099071D01*
X2740833Y-1118119D01*
X2731310Y-1146690D01*
X2617024Y-1260976D01*
X2740833Y-1260976D01*
X2807500Y-1060976D02*
X2931309Y-1060976D01*
X2864643Y-1137167D01*
X2893214Y-1137167D01*
X2912262Y-1146690D01*
X2921786Y-1156214D01*
X2931309Y-1175262D01*
X2931309Y-1222881D01*
X2921786Y-1241929D01*
X2912262Y-1251452D01*
X2893214Y-1260976D01*
X2836071Y-1260976D01*
X2817024Y-1251452D01*
X2807500Y-1241929D01*
X3102738Y-1060976D02*
X3064643Y-1060976D01*
X3045595Y-1070500D01*
X3036071Y-1080024D01*
X3017024Y-1108595D01*
X3007500Y-1146690D01*
X3007500Y-1222881D01*
X3017024Y-1241929D01*
X3026548Y-1251452D01*
X3045595Y-1260976D01*
X3083690Y-1260976D01*
X3102738Y-1251452D01*
X3112262Y-1241929D01*
X3121786Y-1222881D01*
X3121786Y-1175262D01*
X3112262Y-1156214D01*
X3102738Y-1146690D01*
X3083690Y-1137167D01*
X3045595Y-1137167D01*
X3026548Y-1146690D01*
X3017024Y-1156214D01*
X3007500Y-1175262D01*
X3197976Y-1060976D02*
X3197976Y-1099071D01*
X3274167Y-1060976D02*
X3274167Y-1099071D01*
X3569405Y-1337167D02*
X3559881Y-1327643D01*
X3540833Y-1299071D01*
X3531309Y-1280024D01*
X3521786Y-1251452D01*
X3512262Y-1203833D01*
X3512262Y-1165738D01*
X3521786Y-1118119D01*
X3531309Y-1089548D01*
X3540833Y-1070500D01*
X3559881Y-1041928D01*
X3569405Y-1032405D01*
X3750357Y-1260976D02*
X3636071Y-1260976D01*
X3693214Y-1260976D02*
X3693214Y-1060976D01*
X3674167Y-1089548D01*
X3655119Y-1108595D01*
X3636071Y-1118119D01*
X3988452Y-1260976D02*
X3988452Y-1060976D01*
X4074167Y-1260976D02*
X4074167Y-1156214D01*
X4064643Y-1137167D01*
X4045595Y-1127643D01*
X4017024Y-1127643D01*
X3997976Y-1137167D01*
X3988452Y-1146690D01*
X4197976Y-1260976D02*
X4178928Y-1251452D01*
X4169405Y-1241929D01*
X4159881Y-1222881D01*
X4159881Y-1165738D01*
X4169405Y-1146690D01*
X4178928Y-1137167D01*
X4197976Y-1127643D01*
X4226548Y-1127643D01*
X4245595Y-1137167D01*
X4255119Y-1146690D01*
X4264643Y-1165738D01*
X4264643Y-1222881D01*
X4255119Y-1241929D01*
X4245595Y-1251452D01*
X4226548Y-1260976D01*
X4197976Y-1260976D01*
X4378929Y-1260976D02*
X4359881Y-1251452D01*
X4350357Y-1232405D01*
X4350357Y-1060976D01*
X4531310Y-1251452D02*
X4512262Y-1260976D01*
X4474167Y-1260976D01*
X4455119Y-1251452D01*
X4445595Y-1232405D01*
X4445595Y-1156214D01*
X4455119Y-1137167D01*
X4474167Y-1127643D01*
X4512262Y-1127643D01*
X4531310Y-1137167D01*
X4540833Y-1156214D01*
X4540833Y-1175262D01*
X4445595Y-1194310D01*
X4607500Y-1337167D02*
X4617024Y-1327643D01*
X4636071Y-1299071D01*
X4645595Y-1280024D01*
X4655119Y-1251452D01*
X4664643Y-1203833D01*
X4664643Y-1165738D01*
X4655119Y-1118119D01*
X4645595Y-1089548D01*
X4636071Y-1070500D01*
X4617024Y-1041928D01*
X4607500Y-1032405D01*
D14*
X-17144Y-1469856D02*
X-17144Y-1399144D01*
X-87856Y-1399144D01*
X-87856Y-1469856D01*
X-17144Y-1469856D01*
D11*
X359881Y-1524976D02*
X245595Y-1524976D01*
X302738Y-1524976D02*
X302738Y-1324976D01*
X283690Y-1353548D01*
X264643Y-1372595D01*
X245595Y-1382119D01*
X445595Y-1505928D02*
X455119Y-1515452D01*
X445595Y-1524976D01*
X436071Y-1515452D01*
X445595Y-1505928D01*
X445595Y-1524976D01*
X578929Y-1324976D02*
X597976Y-1324976D01*
X617024Y-1334500D01*
X626548Y-1344024D01*
X636071Y-1363071D01*
X645595Y-1401167D01*
X645595Y-1448786D01*
X636071Y-1486881D01*
X626548Y-1505928D01*
X617024Y-1515452D01*
X597976Y-1524976D01*
X578929Y-1524976D01*
X559881Y-1515452D01*
X550357Y-1505928D01*
X540833Y-1486881D01*
X531310Y-1448786D01*
X531310Y-1401167D01*
X540833Y-1363071D01*
X550357Y-1344024D01*
X559881Y-1334500D01*
X578929Y-1324976D01*
X769405Y-1324976D02*
X788452Y-1324976D01*
X807500Y-1334500D01*
X817024Y-1344024D01*
X826548Y-1363071D01*
X836071Y-1401167D01*
X836071Y-1448786D01*
X826548Y-1486881D01*
X817024Y-1505928D01*
X807500Y-1515452D01*
X788452Y-1524976D01*
X769405Y-1524976D01*
X750357Y-1515452D01*
X740833Y-1505928D01*
X731309Y-1486881D01*
X721786Y-1448786D01*
X721786Y-1401167D01*
X731309Y-1363071D01*
X740833Y-1344024D01*
X750357Y-1334500D01*
X769405Y-1324976D01*
X959881Y-1324976D02*
X978928Y-1324976D01*
X997976Y-1334500D01*
X1007500Y-1344024D01*
X1017024Y-1363071D01*
X1026548Y-1401167D01*
X1026548Y-1448786D01*
X1017024Y-1486881D01*
X1007500Y-1505928D01*
X997976Y-1515452D01*
X978928Y-1524976D01*
X959881Y-1524976D01*
X940833Y-1515452D01*
X931309Y-1505928D01*
X921786Y-1486881D01*
X912262Y-1448786D01*
X912262Y-1401167D01*
X921786Y-1363071D01*
X931309Y-1344024D01*
X940833Y-1334500D01*
X959881Y-1324976D01*
X1112262Y-1524976D02*
X1112262Y-1391643D01*
X1112262Y-1410690D02*
X1121786Y-1401167D01*
X1140833Y-1391643D01*
X1169405Y-1391643D01*
X1188452Y-1401167D01*
X1197976Y-1420214D01*
X1197976Y-1524976D01*
X1197976Y-1420214D02*
X1207500Y-1401167D01*
X1226548Y-1391643D01*
X1255119Y-1391643D01*
X1274167Y-1401167D01*
X1283690Y-1420214D01*
X1283690Y-1524976D01*
X1378929Y-1524976D02*
X1378929Y-1391643D01*
X1378929Y-1410690D02*
X1388452Y-1401167D01*
X1407500Y-1391643D01*
X1436071Y-1391643D01*
X1455119Y-1401167D01*
X1464643Y-1420214D01*
X1464643Y-1524976D01*
X1464643Y-1420214D02*
X1474167Y-1401167D01*
X1493214Y-1391643D01*
X1521786Y-1391643D01*
X1540833Y-1401167D01*
X1550357Y-1420214D01*
X1550357Y-1524976D01*
X1940833Y-1315452D02*
X1769405Y-1572595D01*
X2197976Y-1324976D02*
X2217024Y-1324976D01*
X2236071Y-1334500D01*
X2245595Y-1344024D01*
X2255119Y-1363071D01*
X2264643Y-1401167D01*
X2264643Y-1448786D01*
X2255119Y-1486881D01*
X2245595Y-1505928D01*
X2236071Y-1515452D01*
X2217024Y-1524976D01*
X2197976Y-1524976D01*
X2178929Y-1515452D01*
X2169405Y-1505928D01*
X2159881Y-1486881D01*
X2150357Y-1448786D01*
X2150357Y-1401167D01*
X2159881Y-1363071D01*
X2169405Y-1344024D01*
X2178929Y-1334500D01*
X2197976Y-1324976D01*
X2350357Y-1505928D02*
X2359881Y-1515452D01*
X2350357Y-1524976D01*
X2340833Y-1515452D01*
X2350357Y-1505928D01*
X2350357Y-1524976D01*
X2483690Y-1324976D02*
X2502738Y-1324976D01*
X2521786Y-1334500D01*
X2531310Y-1344024D01*
X2540833Y-1363071D01*
X2550357Y-1401167D01*
X2550357Y-1448786D01*
X2540833Y-1486881D01*
X2531310Y-1505928D01*
X2521786Y-1515452D01*
X2502738Y-1524976D01*
X2483690Y-1524976D01*
X2464643Y-1515452D01*
X2455119Y-1505928D01*
X2445595Y-1486881D01*
X2436071Y-1448786D01*
X2436071Y-1401167D01*
X2445595Y-1363071D01*
X2455119Y-1344024D01*
X2464643Y-1334500D01*
X2483690Y-1324976D01*
X2617024Y-1324976D02*
X2740833Y-1324976D01*
X2674167Y-1401167D01*
X2702738Y-1401167D01*
X2721786Y-1410690D01*
X2731310Y-1420214D01*
X2740833Y-1439262D01*
X2740833Y-1486881D01*
X2731310Y-1505928D01*
X2721786Y-1515452D01*
X2702738Y-1524976D01*
X2645595Y-1524976D01*
X2626548Y-1515452D01*
X2617024Y-1505928D01*
X2836071Y-1524976D02*
X2874167Y-1524976D01*
X2893214Y-1515452D01*
X2902738Y-1505928D01*
X2921786Y-1477357D01*
X2931309Y-1439262D01*
X2931309Y-1363071D01*
X2921786Y-1344024D01*
X2912262Y-1334500D01*
X2893214Y-1324976D01*
X2855119Y-1324976D01*
X2836071Y-1334500D01*
X2826548Y-1344024D01*
X2817024Y-1363071D01*
X2817024Y-1410690D01*
X2826548Y-1429738D01*
X2836071Y-1439262D01*
X2855119Y-1448786D01*
X2893214Y-1448786D01*
X2912262Y-1439262D01*
X2921786Y-1429738D01*
X2931309Y-1410690D01*
X3102738Y-1391643D02*
X3102738Y-1524976D01*
X3055119Y-1315452D02*
X3007500Y-1458309D01*
X3131309Y-1458309D01*
X3197976Y-1324976D02*
X3197976Y-1363071D01*
X3274167Y-1324976D02*
X3274167Y-1363071D01*
X3569405Y-1601167D02*
X3559881Y-1591643D01*
X3540833Y-1563071D01*
X3531309Y-1544024D01*
X3521786Y-1515452D01*
X3512262Y-1467833D01*
X3512262Y-1429738D01*
X3521786Y-1382119D01*
X3531309Y-1353548D01*
X3540833Y-1334500D01*
X3559881Y-1305929D01*
X3569405Y-1296405D01*
X3655119Y-1524976D02*
X3693214Y-1524976D01*
X3712262Y-1515452D01*
X3721786Y-1505928D01*
X3740833Y-1477357D01*
X3750357Y-1439262D01*
X3750357Y-1363071D01*
X3740833Y-1344024D01*
X3731309Y-1334500D01*
X3712262Y-1324976D01*
X3674167Y-1324976D01*
X3655119Y-1334500D01*
X3645595Y-1344024D01*
X3636071Y-1363071D01*
X3636071Y-1410690D01*
X3645595Y-1429738D01*
X3655119Y-1439262D01*
X3674167Y-1448786D01*
X3712262Y-1448786D01*
X3731309Y-1439262D01*
X3740833Y-1429738D01*
X3750357Y-1410690D01*
X3826548Y-1344024D02*
X3836071Y-1334500D01*
X3855119Y-1324976D01*
X3902738Y-1324976D01*
X3921786Y-1334500D01*
X3931309Y-1344024D01*
X3940833Y-1363071D01*
X3940833Y-1382119D01*
X3931309Y-1410690D01*
X3817024Y-1524976D01*
X3940833Y-1524976D01*
X4178928Y-1524976D02*
X4178928Y-1324976D01*
X4264643Y-1524976D02*
X4264643Y-1420214D01*
X4255119Y-1401167D01*
X4236071Y-1391643D01*
X4207500Y-1391643D01*
X4188452Y-1401167D01*
X4178928Y-1410690D01*
X4388452Y-1524976D02*
X4369405Y-1515452D01*
X4359881Y-1505928D01*
X4350357Y-1486881D01*
X4350357Y-1429738D01*
X4359881Y-1410690D01*
X4369405Y-1401167D01*
X4388452Y-1391643D01*
X4417024Y-1391643D01*
X4436071Y-1401167D01*
X4445595Y-1410690D01*
X4455119Y-1429738D01*
X4455119Y-1486881D01*
X4445595Y-1505928D01*
X4436071Y-1515452D01*
X4417024Y-1524976D01*
X4388452Y-1524976D01*
X4569405Y-1524976D02*
X4550357Y-1515452D01*
X4540833Y-1496405D01*
X4540833Y-1324976D01*
X4721786Y-1515452D02*
X4702738Y-1524976D01*
X4664643Y-1524976D01*
X4645595Y-1515452D01*
X4636071Y-1496405D01*
X4636071Y-1420214D01*
X4645595Y-1401167D01*
X4664643Y-1391643D01*
X4702738Y-1391643D01*
X4721786Y-1401167D01*
X4731310Y-1420214D01*
X4731310Y-1439262D01*
X4636071Y-1458309D01*
X4807500Y-1515452D02*
X4826548Y-1524976D01*
X4864643Y-1524976D01*
X4883690Y-1515452D01*
X4893214Y-1496405D01*
X4893214Y-1486881D01*
X4883690Y-1467833D01*
X4864643Y-1458309D01*
X4836071Y-1458309D01*
X4817024Y-1448786D01*
X4807500Y-1429738D01*
X4807500Y-1420214D01*
X4817024Y-1401167D01*
X4836071Y-1391643D01*
X4864643Y-1391643D01*
X4883690Y-1401167D01*
X4959881Y-1601167D02*
X4969405Y-1591643D01*
X4988452Y-1563071D01*
X4997976Y-1544024D01*
X5007500Y-1515452D01*
X5017024Y-1467833D01*
X5017024Y-1429738D01*
X5007500Y-1382119D01*
X4997976Y-1353548D01*
X4988452Y-1334500D01*
X4969405Y-1305929D01*
X4959881Y-1296405D01*
D15*
X-67500Y-1763500D02*
X-2500Y-1698500D01*
X-67500Y-1633500D01*
X-132500Y-1698500D01*
X-67500Y-1763500D01*
D11*
X359881Y-1788976D02*
X245595Y-1788976D01*
X302738Y-1788976D02*
X302738Y-1588976D01*
X283690Y-1617548D01*
X264643Y-1636595D01*
X245595Y-1646119D01*
X445595Y-1769928D02*
X455119Y-1779452D01*
X445595Y-1788976D01*
X436071Y-1779452D01*
X445595Y-1769928D01*
X445595Y-1788976D01*
X521786Y-1588976D02*
X645595Y-1588976D01*
X578929Y-1665167D01*
X607500Y-1665167D01*
X626548Y-1674690D01*
X636071Y-1684214D01*
X645595Y-1703262D01*
X645595Y-1750881D01*
X636071Y-1769928D01*
X626548Y-1779452D01*
X607500Y-1788976D01*
X550357Y-1788976D01*
X531310Y-1779452D01*
X521786Y-1769928D01*
X769405Y-1588976D02*
X788452Y-1588976D01*
X807500Y-1598500D01*
X817024Y-1608024D01*
X826548Y-1627071D01*
X836071Y-1665167D01*
X836071Y-1712786D01*
X826548Y-1750881D01*
X817024Y-1769928D01*
X807500Y-1779452D01*
X788452Y-1788976D01*
X769405Y-1788976D01*
X750357Y-1779452D01*
X740833Y-1769928D01*
X731309Y-1750881D01*
X721786Y-1712786D01*
X721786Y-1665167D01*
X731309Y-1627071D01*
X740833Y-1608024D01*
X750357Y-1598500D01*
X769405Y-1588976D01*
X959881Y-1588976D02*
X978928Y-1588976D01*
X997976Y-1598500D01*
X1007500Y-1608024D01*
X1017024Y-1627071D01*
X1026548Y-1665167D01*
X1026548Y-1712786D01*
X1017024Y-1750881D01*
X1007500Y-1769928D01*
X997976Y-1779452D01*
X978928Y-1788976D01*
X959881Y-1788976D01*
X940833Y-1779452D01*
X931309Y-1769928D01*
X921786Y-1750881D01*
X912262Y-1712786D01*
X912262Y-1665167D01*
X921786Y-1627071D01*
X931309Y-1608024D01*
X940833Y-1598500D01*
X959881Y-1588976D01*
X1112262Y-1788976D02*
X1112262Y-1655643D01*
X1112262Y-1674690D02*
X1121786Y-1665167D01*
X1140833Y-1655643D01*
X1169405Y-1655643D01*
X1188452Y-1665167D01*
X1197976Y-1684214D01*
X1197976Y-1788976D01*
X1197976Y-1684214D02*
X1207500Y-1665167D01*
X1226548Y-1655643D01*
X1255119Y-1655643D01*
X1274167Y-1665167D01*
X1283690Y-1684214D01*
X1283690Y-1788976D01*
X1378929Y-1788976D02*
X1378929Y-1655643D01*
X1378929Y-1674690D02*
X1388452Y-1665167D01*
X1407500Y-1655643D01*
X1436071Y-1655643D01*
X1455119Y-1665167D01*
X1464643Y-1684214D01*
X1464643Y-1788976D01*
X1464643Y-1684214D02*
X1474167Y-1665167D01*
X1493214Y-1655643D01*
X1521786Y-1655643D01*
X1540833Y-1665167D01*
X1550357Y-1684214D01*
X1550357Y-1788976D01*
X1940833Y-1579452D02*
X1769405Y-1836595D01*
X2197976Y-1588976D02*
X2217024Y-1588976D01*
X2236071Y-1598500D01*
X2245595Y-1608024D01*
X2255119Y-1627071D01*
X2264643Y-1665167D01*
X2264643Y-1712786D01*
X2255119Y-1750881D01*
X2245595Y-1769928D01*
X2236071Y-1779452D01*
X2217024Y-1788976D01*
X2197976Y-1788976D01*
X2178929Y-1779452D01*
X2169405Y-1769928D01*
X2159881Y-1750881D01*
X2150357Y-1712786D01*
X2150357Y-1665167D01*
X2159881Y-1627071D01*
X2169405Y-1608024D01*
X2178929Y-1598500D01*
X2197976Y-1588976D01*
X2350357Y-1769928D02*
X2359881Y-1779452D01*
X2350357Y-1788976D01*
X2340833Y-1779452D01*
X2350357Y-1769928D01*
X2350357Y-1788976D01*
X2483690Y-1588976D02*
X2502738Y-1588976D01*
X2521786Y-1598500D01*
X2531310Y-1608024D01*
X2540833Y-1627071D01*
X2550357Y-1665167D01*
X2550357Y-1712786D01*
X2540833Y-1750881D01*
X2531310Y-1769928D01*
X2521786Y-1779452D01*
X2502738Y-1788976D01*
X2483690Y-1788976D01*
X2464643Y-1779452D01*
X2455119Y-1769928D01*
X2445595Y-1750881D01*
X2436071Y-1712786D01*
X2436071Y-1665167D01*
X2445595Y-1627071D01*
X2455119Y-1608024D01*
X2464643Y-1598500D01*
X2483690Y-1588976D01*
X2731310Y-1588976D02*
X2636071Y-1588976D01*
X2626548Y-1684214D01*
X2636071Y-1674690D01*
X2655119Y-1665167D01*
X2702738Y-1665167D01*
X2721786Y-1674690D01*
X2731310Y-1684214D01*
X2740833Y-1703262D01*
X2740833Y-1750881D01*
X2731310Y-1769928D01*
X2721786Y-1779452D01*
X2702738Y-1788976D01*
X2655119Y-1788976D01*
X2636071Y-1779452D01*
X2626548Y-1769928D01*
X2931309Y-1788976D02*
X2817024Y-1788976D01*
X2874167Y-1788976D02*
X2874167Y-1588976D01*
X2855119Y-1617548D01*
X2836071Y-1636595D01*
X2817024Y-1646119D01*
X3007500Y-1608024D02*
X3017024Y-1598500D01*
X3036071Y-1588976D01*
X3083690Y-1588976D01*
X3102738Y-1598500D01*
X3112262Y-1608024D01*
X3121786Y-1627071D01*
X3121786Y-1646119D01*
X3112262Y-1674690D01*
X2997976Y-1788976D01*
X3121786Y-1788976D01*
X3197976Y-1588976D02*
X3197976Y-1627071D01*
X3274167Y-1588976D02*
X3274167Y-1627071D01*
X3569405Y-1865167D02*
X3559881Y-1855643D01*
X3540833Y-1827071D01*
X3531309Y-1808024D01*
X3521786Y-1779452D01*
X3512262Y-1731833D01*
X3512262Y-1693738D01*
X3521786Y-1646119D01*
X3531309Y-1617548D01*
X3540833Y-1598500D01*
X3559881Y-1569928D01*
X3569405Y-1560405D01*
X3636071Y-1608024D02*
X3645595Y-1598500D01*
X3664643Y-1588976D01*
X3712262Y-1588976D01*
X3731309Y-1598500D01*
X3740833Y-1608024D01*
X3750357Y-1627071D01*
X3750357Y-1646119D01*
X3740833Y-1674690D01*
X3626548Y-1788976D01*
X3750357Y-1788976D01*
X3988452Y-1788976D02*
X3988452Y-1588976D01*
X4074167Y-1788976D02*
X4074167Y-1684214D01*
X4064643Y-1665167D01*
X4045595Y-1655643D01*
X4017024Y-1655643D01*
X3997976Y-1665167D01*
X3988452Y-1674690D01*
X4197976Y-1788976D02*
X4178928Y-1779452D01*
X4169405Y-1769928D01*
X4159881Y-1750881D01*
X4159881Y-1693738D01*
X4169405Y-1674690D01*
X4178928Y-1665167D01*
X4197976Y-1655643D01*
X4226548Y-1655643D01*
X4245595Y-1665167D01*
X4255119Y-1674690D01*
X4264643Y-1693738D01*
X4264643Y-1750881D01*
X4255119Y-1769928D01*
X4245595Y-1779452D01*
X4226548Y-1788976D01*
X4197976Y-1788976D01*
X4378929Y-1788976D02*
X4359881Y-1779452D01*
X4350357Y-1760405D01*
X4350357Y-1588976D01*
X4531310Y-1779452D02*
X4512262Y-1788976D01*
X4474167Y-1788976D01*
X4455119Y-1779452D01*
X4445595Y-1760405D01*
X4445595Y-1684214D01*
X4455119Y-1665167D01*
X4474167Y-1655643D01*
X4512262Y-1655643D01*
X4531310Y-1665167D01*
X4540833Y-1684214D01*
X4540833Y-1703262D01*
X4445595Y-1722309D01*
X4617024Y-1779452D02*
X4636071Y-1788976D01*
X4674167Y-1788976D01*
X4693214Y-1779452D01*
X4702738Y-1760405D01*
X4702738Y-1750881D01*
X4693214Y-1731833D01*
X4674167Y-1722309D01*
X4645595Y-1722309D01*
X4626548Y-1712786D01*
X4617024Y-1693738D01*
X4617024Y-1684214D01*
X4626548Y-1665167D01*
X4645595Y-1655643D01*
X4674167Y-1655643D01*
X4693214Y-1665167D01*
X4769405Y-1865167D02*
X4778929Y-1855643D01*
X4797976Y-1827071D01*
X4807500Y-1808024D01*
X4817024Y-1779452D01*
X4826548Y-1731833D01*
X4826548Y-1693738D01*
X4817024Y-1646119D01*
X4807500Y-1617548D01*
X4797976Y-1598500D01*
X4778929Y-1569928D01*
X4769405Y-1560405D01*
M02*
