M48
; DRILL file {KiCad (6.0.11)} date Wed May  8 12:07:39 2024
; FORMAT={-:-/ absolute / metric / decimal}
; #@! TF.CreationDate,2024-05-08T12:07:39+07:00
; #@! TF.GenerationSoftware,Kicad,Pcbnew,(6.0.11)
; #@! TF.FileFunction,Plated,1,2,PTH
FMAT,2
METRIC
; #@! TA.AperFunction,Plated,PTH,ViaDrill
T1C0.400
; #@! TA.AperFunction,Plated,PTH,ViaDrill
T2C0.500
; #@! TA.AperFunction,Plated,PTH,ViaDrill
T3C0.600
; #@! TA.AperFunction,Plated,PTH,ComponentDrill
T4C1.000
; #@! TA.AperFunction,Plated,PTH,ComponentDrill
T5C1.300
%
G90
G05
T1
X17.1Y33.46
X19.67Y28.39
X20.9Y22.69
X22.18Y22.7
X26.69Y35.41
X26.7Y37.05
X27.43Y43.2
X27.51Y37.86
X29.9Y36.26
X33.94Y36.14
X34.76Y33.93
X34.82Y11.7
X35.61Y30.76
X37.33Y30.77
X37.59Y34.01
X37.67Y35.33
X38.58Y29.99
X39.58Y33.27
X39.99Y34.47
X41.55Y33.67
X43.19Y32.88
X43.74Y31.56
X45.0Y32.1
X47.24Y30.98
X47.33Y36.19
X49.11Y35.41
X50.77Y34.61
X53.3Y34.26
X54.41Y34.26
T2
X8.96Y29.61
X9.0Y19.72
X12.1Y13.3
X12.26Y7.51
X13.09Y41.98
X18.95Y9.02
X25.5Y7.5
X27.87Y16.25
X28.42Y28.91
X31.1Y7.5
X31.12Y10.69
X31.23Y43.56
X36.11Y17.19
X40.77Y8.34
X40.87Y21.1
X46.76Y26.25
X48.32Y8.32
X50.9Y13.7
X53.28Y20.94
X54.75Y11.07
X54.78Y16.5
X63.43Y31.62
X63.49Y41.5
T3
X15.38Y16.99
T4
X1.86Y52.9
X1.86Y50.36
X1.86Y4.64
X1.86Y2.1
X4.4Y52.9
X4.4Y50.36
X4.4Y4.64
X4.4Y2.1
X6.94Y52.9
X6.94Y50.36
X6.94Y4.64
X6.94Y2.1
X9.48Y52.9
X9.48Y50.36
X9.48Y4.64
X9.48Y2.1
X12.02Y52.9
X12.02Y50.36
X12.02Y4.64
X12.02Y2.1
X14.56Y52.9
X14.56Y50.36
X14.56Y4.64
X14.56Y2.1
X17.1Y52.9
X17.1Y50.36
X17.1Y4.64
X17.1Y2.1
X19.64Y52.9
X19.64Y50.36
X19.64Y4.64
X19.64Y2.1
X22.18Y52.9
X22.18Y50.36
X22.18Y4.64
X22.18Y2.1
X24.72Y52.9
X24.72Y50.36
X24.72Y4.64
X24.72Y2.1
X27.26Y52.9
X27.26Y50.36
X27.26Y4.64
X27.26Y2.1
X29.8Y52.9
X29.8Y50.36
X29.8Y4.64
X29.8Y2.1
X32.34Y52.9
X32.34Y50.36
X32.34Y4.64
X32.34Y2.1
X34.88Y52.9
X34.88Y50.36
X34.88Y4.64
X34.88Y2.1
X37.42Y52.9
X37.42Y50.36
X37.42Y4.64
X37.42Y2.1
X39.96Y52.9
X39.96Y50.36
X39.96Y4.64
X39.96Y2.1
X42.5Y52.9
X42.5Y50.36
X42.5Y4.64
X42.5Y2.1
X45.04Y52.9
X45.04Y50.36
X45.04Y4.64
X45.04Y2.1
X47.58Y52.9
X47.58Y50.36
X47.58Y4.64
X47.58Y2.1
X50.12Y52.9
X50.12Y50.36
X50.12Y4.64
X50.12Y2.1
X52.66Y52.9
X52.66Y50.36
X52.66Y4.64
X52.66Y2.1
X55.2Y52.9
X55.2Y50.36
X55.2Y4.64
X55.2Y2.1
X57.74Y52.9
X57.74Y50.36
X57.74Y4.64
X57.74Y2.1
T5
X62.0Y16.5
X62.0Y11.5
T0
M30
