%TF.GenerationSoftware,KiCad,Pcbnew,(6.0.11)*%
%TF.CreationDate,2024-05-08T14:50:22+07:00*%
%TF.ProjectId,CTP_Display_CANbus_revA,4354505f-4469-4737-906c-61795f43414e,rev?*%
%TF.SameCoordinates,PX5f5e100PY5f5e100*%
%TF.FileFunction,Copper,L2,Bot*%
%TF.FilePolarity,Positive*%
%FSLAX46Y46*%
G04 Gerber Fmt 4.6, Leading zero omitted, Abs format (unit mm)*
G04 Created by KiCad (PCBNEW (6.0.11)) date 2024-05-08 14:50:22*
%MOMM*%
%LPD*%
G01*
G04 APERTURE LIST*
%TA.AperFunction,ComponentPad*%
%ADD10C,1.600000*%
%TD*%
%TA.AperFunction,ComponentPad*%
%ADD11C,2.600000*%
%TD*%
%TA.AperFunction,ViaPad*%
%ADD12C,1.000000*%
%TD*%
%TA.AperFunction,ViaPad*%
%ADD13C,0.800000*%
%TD*%
%TA.AperFunction,ViaPad*%
%ADD14C,1.200000*%
%TD*%
%TA.AperFunction,Conductor*%
%ADD15C,0.500000*%
%TD*%
%TA.AperFunction,Conductor*%
%ADD16C,0.250000*%
%TD*%
%TA.AperFunction,Conductor*%
%ADD17C,0.600000*%
%TD*%
%TA.AperFunction,Conductor*%
%ADD18C,0.400000*%
%TD*%
G04 APERTURE END LIST*
%TA.AperFunction,ComponentPad*%
G36*
G01*
X2500000Y1300000D02*
X1220000Y1300000D01*
G75*
G02*
X1060000Y1460000I0J160000D01*
G01*
X1060000Y2740000D01*
G75*
G02*
X1220000Y2900000I160000J0D01*
G01*
X2500000Y2900000D01*
G75*
G02*
X2660000Y2740000I0J-160000D01*
G01*
X2660000Y1460000D01*
G75*
G02*
X2500000Y1300000I-160000J0D01*
G01*
G37*
%TD.AperFunction*%
D10*
X1860000Y4640000D03*
X4400000Y2100000D03*
X4400000Y4640000D03*
X6940000Y2100000D03*
X6940000Y4640000D03*
X9480000Y2100000D03*
X9480000Y4640000D03*
X12020000Y2100000D03*
X12020000Y4640000D03*
X14560000Y2100000D03*
X14560000Y4640000D03*
X17100000Y2100000D03*
X17100000Y4640000D03*
X19640000Y2100000D03*
X19640000Y4640000D03*
X22180000Y2100000D03*
X22180000Y4640000D03*
X24720000Y2100000D03*
X24720000Y4640000D03*
X27260000Y2100000D03*
X27260000Y4640000D03*
X29800000Y2100000D03*
X29800000Y4640000D03*
X32340000Y2100000D03*
X32340000Y4640000D03*
X34880000Y2100000D03*
X34880000Y4640000D03*
X37420000Y2100000D03*
X37420000Y4640000D03*
X39960000Y2100000D03*
X39960000Y4640000D03*
X42500000Y2100000D03*
X42500000Y4640000D03*
X45040000Y2100000D03*
X45040000Y4640000D03*
X47580000Y2100000D03*
X47580000Y4640000D03*
X50120000Y2100000D03*
X50120000Y4640000D03*
X52660000Y2100000D03*
X52660000Y4640000D03*
X55200000Y2100000D03*
X55200000Y4640000D03*
X57740000Y2100000D03*
X57740000Y4640000D03*
%TA.AperFunction,ComponentPad*%
G36*
G01*
X60830000Y17800000D02*
X63170000Y17800000D01*
G75*
G02*
X63300000Y17670000I0J-130000D01*
G01*
X63300000Y15330000D01*
G75*
G02*
X63170000Y15200000I-130000J0D01*
G01*
X60830000Y15200000D01*
G75*
G02*
X60700000Y15330000I0J130000D01*
G01*
X60700000Y17670000D01*
G75*
G02*
X60830000Y17800000I130000J0D01*
G01*
G37*
%TD.AperFunction*%
D11*
X62000000Y11500000D03*
%TA.AperFunction,ComponentPad*%
G36*
G01*
X2500000Y49560000D02*
X1220000Y49560000D01*
G75*
G02*
X1060000Y49720000I0J160000D01*
G01*
X1060000Y51000000D01*
G75*
G02*
X1220000Y51160000I160000J0D01*
G01*
X2500000Y51160000D01*
G75*
G02*
X2660000Y51000000I0J-160000D01*
G01*
X2660000Y49720000D01*
G75*
G02*
X2500000Y49560000I-160000J0D01*
G01*
G37*
%TD.AperFunction*%
D10*
X1860000Y52900000D03*
X4400000Y50360000D03*
X4400000Y52900000D03*
X6940000Y50360000D03*
X6940000Y52900000D03*
X9480000Y50360000D03*
X9480000Y52900000D03*
X12020000Y50360000D03*
X12020000Y52900000D03*
X14560000Y50360000D03*
X14560000Y52900000D03*
X17100000Y50360000D03*
X17100000Y52900000D03*
X19640000Y50360000D03*
X19640000Y52900000D03*
X22180000Y50360000D03*
X22180000Y52900000D03*
X24720000Y50360000D03*
X24720000Y52900000D03*
X27260000Y50360000D03*
X27260000Y52900000D03*
X29800000Y50360000D03*
X29800000Y52900000D03*
X32340000Y50360000D03*
X32340000Y52900000D03*
X34880000Y50360000D03*
X34880000Y52900000D03*
X37420000Y50360000D03*
X37420000Y52900000D03*
X39960000Y50360000D03*
X39960000Y52900000D03*
X42500000Y50360000D03*
X42500000Y52900000D03*
X45040000Y50360000D03*
X45040000Y52900000D03*
X47580000Y50360000D03*
X47580000Y52900000D03*
X50120000Y50360000D03*
X50120000Y52900000D03*
X52660000Y50360000D03*
X52660000Y52900000D03*
X55200000Y50360000D03*
X55200000Y52900000D03*
X57740000Y50360000D03*
X57740000Y52900000D03*
D12*
X12100000Y13300000D03*
X12260000Y7510000D03*
X13090000Y41980000D03*
D13*
X39580000Y33270000D03*
D12*
X31100000Y7500000D03*
X9000000Y19720000D03*
D13*
X37590000Y34010000D03*
D12*
X40870000Y21100000D03*
X53280000Y20940000D03*
X46760000Y26250000D03*
X48320000Y8320000D03*
X50900000Y13700000D03*
X8960000Y29610000D03*
X63490000Y41500000D03*
X25500000Y7500000D03*
X31230000Y43560000D03*
X63430000Y31620000D03*
X18950000Y9020000D03*
X28420000Y28910000D03*
D13*
X43740000Y31560000D03*
X27430000Y43200000D03*
X34820000Y11700000D03*
D12*
X40770000Y8340000D03*
X27870000Y16250000D03*
D13*
X17100000Y33460000D03*
X19670000Y28390000D03*
X20900000Y22690000D03*
X22180000Y22700000D03*
X27510000Y37860000D03*
X26700000Y37050000D03*
X29900000Y36260000D03*
X26690000Y35410000D03*
X47330000Y36190000D03*
X49110000Y35410000D03*
X50770000Y34610000D03*
X53300000Y34260000D03*
X54410000Y34260000D03*
X37670000Y35330000D03*
X39990000Y34470000D03*
X41550000Y33670000D03*
X43190000Y32880000D03*
X45000000Y32100000D03*
X47240000Y30980000D03*
X33940000Y36140000D03*
X34760000Y33930000D03*
X37330000Y30770000D03*
X38580000Y29990000D03*
X35610000Y30760000D03*
D14*
X15380000Y16990000D03*
D12*
X31120000Y10690000D03*
X36110000Y17190000D03*
X54780000Y16500000D03*
X54750000Y11070000D03*
D15*
X7900000Y13300000D02*
X12100000Y13300000D01*
X4400000Y2100000D02*
X4400000Y9800000D01*
X4400000Y9800000D02*
X7900000Y13300000D01*
D16*
X17100000Y4640000D02*
X17100000Y33460000D01*
X28525000Y10405000D02*
X28525000Y3375000D01*
X23440000Y15490000D02*
X28525000Y10405000D01*
X23440000Y24620000D02*
X23440000Y15490000D01*
X28525000Y3375000D02*
X29800000Y2100000D01*
X19670000Y28390000D02*
X23440000Y24620000D01*
X20900000Y3380000D02*
X20900000Y22690000D01*
X22180000Y2100000D02*
X20900000Y3380000D01*
X22180000Y4640000D02*
X22180000Y22700000D01*
X26480000Y43970000D02*
X28730000Y46220000D01*
X26480000Y38890000D02*
X26480000Y43970000D01*
X27510000Y37860000D02*
X26480000Y38890000D01*
X28730000Y46220000D02*
X34220000Y46220000D01*
X36150000Y51630000D02*
X37420000Y52900000D01*
X36150000Y48150000D02*
X36150000Y51630000D01*
X34220000Y46220000D02*
X36150000Y48150000D01*
X25710000Y38040000D02*
X25710000Y44080000D01*
X26700000Y37050000D02*
X25710000Y38040000D01*
X34880000Y48200000D02*
X34880000Y50360000D01*
X33480000Y46800000D02*
X34880000Y48200000D01*
X28430000Y46800000D02*
X33480000Y46800000D01*
X25710000Y44080000D02*
X28430000Y46800000D01*
X28370000Y37790000D02*
X28370000Y43950000D01*
X28370000Y43950000D02*
X30020000Y45600000D01*
X29900000Y36260000D02*
X28370000Y37790000D01*
X34410000Y45600000D02*
X37420000Y48610000D01*
X37420000Y48610000D02*
X37420000Y50360000D01*
X30020000Y45600000D02*
X34410000Y45600000D01*
X25120000Y44300000D02*
X28170000Y47350000D01*
X32270000Y47350000D02*
X33600000Y48680000D01*
X26690000Y35410000D02*
X25120000Y36980000D01*
X33600000Y48680000D02*
X33600000Y51620000D01*
X25120000Y36980000D02*
X25120000Y44300000D01*
X28170000Y47350000D02*
X32270000Y47350000D01*
X33600000Y51620000D02*
X34880000Y52900000D01*
X46300000Y39980000D02*
X47920000Y41600000D01*
X51420000Y41600000D02*
X52660000Y42840000D01*
X47920000Y41600000D02*
X51420000Y41600000D01*
X47330000Y36190000D02*
X46300000Y37220000D01*
X46300000Y37220000D02*
X46300000Y39980000D01*
X52660000Y42840000D02*
X52660000Y50360000D01*
X48080000Y36440000D02*
X49110000Y35410000D01*
X48080000Y39460000D02*
X48080000Y36440000D01*
X52700000Y41040000D02*
X49660000Y41040000D01*
X53925000Y42265000D02*
X52700000Y41040000D01*
X53925000Y51625000D02*
X53925000Y42265000D01*
X55200000Y52900000D02*
X53925000Y51625000D01*
X49660000Y41040000D02*
X48080000Y39460000D01*
X55200000Y41570000D02*
X55200000Y50360000D01*
X51310000Y40510000D02*
X54140000Y40510000D01*
X54140000Y40510000D02*
X55200000Y41570000D01*
X49900000Y39100000D02*
X51310000Y40510000D01*
X49900000Y35480000D02*
X49900000Y39100000D01*
X50770000Y34610000D02*
X49900000Y35480000D01*
X51520000Y34890000D02*
X52150000Y34260000D01*
X56475000Y51635000D02*
X56475000Y41165000D01*
X51520000Y39010000D02*
X51520000Y34890000D01*
X52510000Y40000000D02*
X51520000Y39010000D01*
X55310000Y40000000D02*
X52510000Y40000000D01*
X57740000Y52900000D02*
X56475000Y51635000D01*
X52150000Y34260000D02*
X53300000Y34260000D01*
X56475000Y41165000D02*
X55310000Y40000000D01*
X53350000Y35320000D02*
X54410000Y34260000D01*
X56480000Y39500000D02*
X54410000Y39500000D01*
X53350000Y38440000D02*
X53350000Y35320000D01*
X57740000Y40760000D02*
X56480000Y39500000D01*
X57740000Y50360000D02*
X57740000Y40760000D01*
X54410000Y39500000D02*
X53350000Y38440000D01*
X36760000Y36240000D02*
X36760000Y42850000D01*
X43760000Y47040000D02*
X43760000Y51620000D01*
X43760000Y51620000D02*
X45040000Y52900000D01*
X42050000Y45330000D02*
X43760000Y47040000D01*
X37670000Y35330000D02*
X36760000Y36240000D01*
X39240000Y45330000D02*
X42050000Y45330000D01*
X36760000Y42850000D02*
X39240000Y45330000D01*
X46300000Y45350000D02*
X45200000Y44250000D01*
X41970000Y44250000D02*
X39200000Y41480000D01*
X46300000Y51620000D02*
X46300000Y45350000D01*
X47580000Y52900000D02*
X46300000Y51620000D01*
X39200000Y35260000D02*
X39990000Y34470000D01*
X45200000Y44250000D02*
X41970000Y44250000D01*
X39200000Y41480000D02*
X39200000Y35260000D01*
X47580000Y44840000D02*
X46460000Y43720000D01*
X43540000Y43720000D02*
X40790000Y40970000D01*
X47580000Y50360000D02*
X47580000Y44840000D01*
X40790000Y34430000D02*
X41550000Y33670000D01*
X40790000Y40970000D02*
X40790000Y34430000D01*
X46460000Y43720000D02*
X43540000Y43720000D01*
X43190000Y32880000D02*
X42360000Y33710000D01*
X42360000Y33710000D02*
X42360000Y40740000D01*
X48850000Y44280000D02*
X47750000Y43180000D01*
X44790000Y43170000D02*
X47750000Y43170000D01*
X48850000Y51630000D02*
X48850000Y44280000D01*
X42360000Y40740000D02*
X44790000Y43170000D01*
X50120000Y52900000D02*
X48850000Y51630000D01*
X45000000Y32100000D02*
X43950000Y33150000D01*
X50120000Y43800000D02*
X50120000Y50360000D01*
X45920000Y42640000D02*
X48960000Y42640000D01*
X48960000Y42640000D02*
X50120000Y43800000D01*
X43950000Y33150000D02*
X43950000Y40670000D01*
X43950000Y40670000D02*
X45920000Y42640000D01*
X50060000Y42130000D02*
X51390000Y43460000D01*
X51390000Y51630000D02*
X52660000Y52900000D01*
X45580000Y32640000D02*
X45580000Y40470000D01*
X47240000Y30980000D02*
X45580000Y32640000D01*
X51390000Y43460000D02*
X51390000Y51630000D01*
X45580000Y40470000D02*
X47240000Y42130000D01*
X47240000Y42130000D02*
X50060000Y42130000D01*
X38690000Y49055000D02*
X38690000Y51630000D01*
X38690000Y51630000D02*
X39960000Y52900000D01*
X33940000Y36140000D02*
X33940000Y44305000D01*
X33940000Y44305000D02*
X38690000Y49055000D01*
X34760000Y44320000D02*
X37330000Y46890000D01*
X37330000Y46890000D02*
X38970000Y46890000D01*
X38970000Y46890000D02*
X39960000Y47880000D01*
X39960000Y47880000D02*
X39960000Y50360000D01*
X34760000Y33930000D02*
X34760000Y44320000D01*
X41160000Y45860000D02*
X42500000Y47200000D01*
X42500000Y47200000D02*
X42500000Y50360000D01*
X37330000Y30770000D02*
X36190000Y31910000D01*
X38660000Y45860000D02*
X41160000Y45860000D01*
X36190000Y31910000D02*
X36190000Y43390000D01*
X36190000Y43390000D02*
X38660000Y45860000D01*
X40900000Y44780000D02*
X38580000Y42460000D01*
X45040000Y50360000D02*
X45040000Y46330000D01*
X45040000Y46330000D02*
X43490000Y44780000D01*
X38580000Y42460000D02*
X38580000Y29990000D01*
X43490000Y44780000D02*
X40900000Y44780000D01*
X41220000Y51620000D02*
X41220000Y47580000D01*
X41220000Y47580000D02*
X40020000Y46380000D01*
X35610000Y43930000D02*
X35610000Y30760000D01*
X38060000Y46380000D02*
X35610000Y43930000D01*
X42500000Y52900000D02*
X41220000Y51620000D01*
X40020000Y46380000D02*
X38060000Y46380000D01*
D17*
X15380000Y12780000D02*
X15380000Y16990000D01*
X12890000Y10290000D02*
X15380000Y12780000D01*
X9180000Y10290000D02*
X12890000Y10290000D01*
X6940000Y2100000D02*
X6940000Y8050000D01*
X6940000Y8050000D02*
X9180000Y10290000D01*
X9480000Y2100000D02*
X9480000Y4640000D01*
D18*
X29800000Y4640000D02*
X29800000Y9370000D01*
X29800000Y9370000D02*
X31120000Y10690000D01*
X33990000Y17190000D02*
X36110000Y17190000D01*
X32340000Y4640000D02*
X32340000Y15540000D01*
X32340000Y15540000D02*
X33990000Y17190000D01*
D15*
X58840000Y16850000D02*
X61650000Y16850000D01*
X58010000Y17680000D02*
X58840000Y16850000D01*
X54780000Y16500000D02*
X55960000Y17680000D01*
X55960000Y17680000D02*
X58010000Y17680000D01*
X61650000Y16850000D02*
X62000000Y16500000D01*
X55890000Y9930000D02*
X60040000Y9930000D01*
X54750000Y11070000D02*
X55890000Y9930000D01*
X61610000Y11500000D02*
X62000000Y11500000D01*
X60040000Y9930000D02*
X61610000Y11500000D01*
%TA.AperFunction,Conductor*%
G36*
X3571015Y53980315D02*
G01*
X3616770Y53927511D01*
X3626714Y53858353D01*
X3597689Y53794797D01*
X3585737Y53782774D01*
X3525457Y53729910D01*
X3388863Y53556640D01*
X3386216Y53551609D01*
X3377548Y53535133D01*
X3286131Y53361380D01*
X3220703Y53150667D01*
X3220035Y53145022D01*
X3220034Y53145018D01*
X3196164Y52943334D01*
X3194770Y52931560D01*
X3195141Y52925898D01*
X3195141Y52925894D01*
X3200974Y52836902D01*
X3209200Y52711396D01*
X3263511Y52497548D01*
X3355883Y52297179D01*
X3483222Y52116998D01*
X3487293Y52113032D01*
X3487294Y52113031D01*
X3637190Y51967007D01*
X3637195Y51967003D01*
X3641264Y51963039D01*
X3645987Y51959883D01*
X3645991Y51959880D01*
X3730185Y51903624D01*
X3824717Y51840460D01*
X4027436Y51753365D01*
X4041070Y51750280D01*
X4102111Y51716288D01*
X4135085Y51654688D01*
X4129522Y51585040D01*
X4087187Y51529457D01*
X4056622Y51513002D01*
X3880957Y51448196D01*
X3691341Y51335386D01*
X3525457Y51189910D01*
X3388863Y51016640D01*
X3286131Y50821380D01*
X3220703Y50610667D01*
X3220035Y50605022D01*
X3220034Y50605018D01*
X3206164Y50487831D01*
X3194770Y50391560D01*
X3195141Y50385898D01*
X3195141Y50385894D01*
X3200974Y50296902D01*
X3209200Y50171396D01*
X3263511Y49957548D01*
X3355883Y49757179D01*
X3483222Y49576998D01*
X3487293Y49573032D01*
X3487294Y49573031D01*
X3637190Y49427007D01*
X3637195Y49427003D01*
X3641264Y49423039D01*
X3645987Y49419883D01*
X3645991Y49419880D01*
X3730185Y49363624D01*
X3824717Y49300460D01*
X4027436Y49213365D01*
X4110591Y49194549D01*
X4237085Y49165926D01*
X4237087Y49165926D01*
X4242632Y49164671D01*
X4380457Y49159256D01*
X4457418Y49156232D01*
X4457420Y49156232D01*
X4463098Y49156009D01*
X4468718Y49156824D01*
X4468721Y49156824D01*
X4675826Y49186853D01*
X4675829Y49186854D01*
X4681452Y49187669D01*
X4788477Y49223999D01*
X4884989Y49256760D01*
X4884992Y49256761D01*
X4890379Y49258590D01*
X5082884Y49366398D01*
X5252518Y49507482D01*
X5310334Y49576998D01*
X5389971Y49672750D01*
X5389972Y49672751D01*
X5393602Y49677116D01*
X5396848Y49682911D01*
X5498631Y49864659D01*
X5501410Y49869621D01*
X5509756Y49894206D01*
X5552434Y50019933D01*
X5592623Y50077088D01*
X5657332Y50103441D01*
X5726016Y50090627D01*
X5776869Y50042713D01*
X5790038Y50010599D01*
X5803511Y49957548D01*
X5895883Y49757179D01*
X6023222Y49576998D01*
X6027293Y49573032D01*
X6027294Y49573031D01*
X6177190Y49427007D01*
X6177195Y49427003D01*
X6181264Y49423039D01*
X6185987Y49419883D01*
X6185991Y49419880D01*
X6270185Y49363624D01*
X6364717Y49300460D01*
X6567436Y49213365D01*
X6650591Y49194549D01*
X6777085Y49165926D01*
X6777087Y49165926D01*
X6782632Y49164671D01*
X6920457Y49159256D01*
X6997418Y49156232D01*
X6997420Y49156232D01*
X7003098Y49156009D01*
X7008718Y49156824D01*
X7008721Y49156824D01*
X7215826Y49186853D01*
X7215829Y49186854D01*
X7221452Y49187669D01*
X7328477Y49223999D01*
X7424989Y49256760D01*
X7424992Y49256761D01*
X7430379Y49258590D01*
X7622884Y49366398D01*
X7792518Y49507482D01*
X7850334Y49576998D01*
X7929971Y49672750D01*
X7929972Y49672751D01*
X7933602Y49677116D01*
X7936848Y49682911D01*
X8038631Y49864659D01*
X8041410Y49869621D01*
X8049756Y49894206D01*
X8092434Y50019933D01*
X8132623Y50077088D01*
X8197332Y50103441D01*
X8266016Y50090627D01*
X8316869Y50042713D01*
X8330038Y50010599D01*
X8343511Y49957548D01*
X8435883Y49757179D01*
X8563222Y49576998D01*
X8567293Y49573032D01*
X8567294Y49573031D01*
X8717190Y49427007D01*
X8717195Y49427003D01*
X8721264Y49423039D01*
X8725987Y49419883D01*
X8725991Y49419880D01*
X8810185Y49363624D01*
X8904717Y49300460D01*
X9107436Y49213365D01*
X9190591Y49194549D01*
X9317085Y49165926D01*
X9317087Y49165926D01*
X9322632Y49164671D01*
X9460457Y49159256D01*
X9537418Y49156232D01*
X9537420Y49156232D01*
X9543098Y49156009D01*
X9548718Y49156824D01*
X9548721Y49156824D01*
X9755826Y49186853D01*
X9755829Y49186854D01*
X9761452Y49187669D01*
X9868477Y49223999D01*
X9964989Y49256760D01*
X9964992Y49256761D01*
X9970379Y49258590D01*
X10162884Y49366398D01*
X10332518Y49507482D01*
X10390334Y49576998D01*
X10469971Y49672750D01*
X10469972Y49672751D01*
X10473602Y49677116D01*
X10476848Y49682911D01*
X10578631Y49864659D01*
X10581410Y49869621D01*
X10589756Y49894206D01*
X10632434Y50019933D01*
X10672623Y50077088D01*
X10737332Y50103441D01*
X10806016Y50090627D01*
X10856869Y50042713D01*
X10870038Y50010599D01*
X10883511Y49957548D01*
X10975883Y49757179D01*
X11103222Y49576998D01*
X11107293Y49573032D01*
X11107294Y49573031D01*
X11257190Y49427007D01*
X11257195Y49427003D01*
X11261264Y49423039D01*
X11265987Y49419883D01*
X11265991Y49419880D01*
X11350185Y49363624D01*
X11444717Y49300460D01*
X11647436Y49213365D01*
X11730591Y49194549D01*
X11857085Y49165926D01*
X11857087Y49165926D01*
X11862632Y49164671D01*
X12000457Y49159256D01*
X12077418Y49156232D01*
X12077420Y49156232D01*
X12083098Y49156009D01*
X12088718Y49156824D01*
X12088721Y49156824D01*
X12295826Y49186853D01*
X12295829Y49186854D01*
X12301452Y49187669D01*
X12408477Y49223999D01*
X12504989Y49256760D01*
X12504992Y49256761D01*
X12510379Y49258590D01*
X12702884Y49366398D01*
X12872518Y49507482D01*
X12930334Y49576998D01*
X13009971Y49672750D01*
X13009972Y49672751D01*
X13013602Y49677116D01*
X13016848Y49682911D01*
X13118631Y49864659D01*
X13121410Y49869621D01*
X13129756Y49894206D01*
X13172434Y50019933D01*
X13212623Y50077088D01*
X13277332Y50103441D01*
X13346016Y50090627D01*
X13396869Y50042713D01*
X13410038Y50010599D01*
X13423511Y49957548D01*
X13515883Y49757179D01*
X13643222Y49576998D01*
X13647293Y49573032D01*
X13647294Y49573031D01*
X13797190Y49427007D01*
X13797195Y49427003D01*
X13801264Y49423039D01*
X13805987Y49419883D01*
X13805991Y49419880D01*
X13890185Y49363624D01*
X13984717Y49300460D01*
X14187436Y49213365D01*
X14270591Y49194549D01*
X14397085Y49165926D01*
X14397087Y49165926D01*
X14402632Y49164671D01*
X14540457Y49159256D01*
X14617418Y49156232D01*
X14617420Y49156232D01*
X14623098Y49156009D01*
X14628718Y49156824D01*
X14628721Y49156824D01*
X14835826Y49186853D01*
X14835829Y49186854D01*
X14841452Y49187669D01*
X14948477Y49223999D01*
X15044989Y49256760D01*
X15044992Y49256761D01*
X15050379Y49258590D01*
X15242884Y49366398D01*
X15412518Y49507482D01*
X15470334Y49576998D01*
X15549971Y49672750D01*
X15549972Y49672751D01*
X15553602Y49677116D01*
X15556848Y49682911D01*
X15658631Y49864659D01*
X15661410Y49869621D01*
X15669756Y49894206D01*
X15712434Y50019933D01*
X15752623Y50077088D01*
X15817332Y50103441D01*
X15886016Y50090627D01*
X15936869Y50042713D01*
X15950038Y50010599D01*
X15963511Y49957548D01*
X16055883Y49757179D01*
X16183222Y49576998D01*
X16187293Y49573032D01*
X16187294Y49573031D01*
X16337190Y49427007D01*
X16337195Y49427003D01*
X16341264Y49423039D01*
X16345987Y49419883D01*
X16345991Y49419880D01*
X16430185Y49363624D01*
X16524717Y49300460D01*
X16727436Y49213365D01*
X16810591Y49194549D01*
X16937085Y49165926D01*
X16937087Y49165926D01*
X16942632Y49164671D01*
X17080457Y49159256D01*
X17157418Y49156232D01*
X17157420Y49156232D01*
X17163098Y49156009D01*
X17168718Y49156824D01*
X17168721Y49156824D01*
X17375826Y49186853D01*
X17375829Y49186854D01*
X17381452Y49187669D01*
X17488477Y49223999D01*
X17584989Y49256760D01*
X17584992Y49256761D01*
X17590379Y49258590D01*
X17782884Y49366398D01*
X17952518Y49507482D01*
X18010334Y49576998D01*
X18089971Y49672750D01*
X18089972Y49672751D01*
X18093602Y49677116D01*
X18096848Y49682911D01*
X18198631Y49864659D01*
X18201410Y49869621D01*
X18209756Y49894206D01*
X18252434Y50019933D01*
X18292623Y50077088D01*
X18357332Y50103441D01*
X18426016Y50090627D01*
X18476869Y50042713D01*
X18490038Y50010599D01*
X18503511Y49957548D01*
X18595883Y49757179D01*
X18723222Y49576998D01*
X18727293Y49573032D01*
X18727294Y49573031D01*
X18877190Y49427007D01*
X18877195Y49427003D01*
X18881264Y49423039D01*
X18885987Y49419883D01*
X18885991Y49419880D01*
X18970185Y49363624D01*
X19064717Y49300460D01*
X19267436Y49213365D01*
X19350591Y49194549D01*
X19477085Y49165926D01*
X19477087Y49165926D01*
X19482632Y49164671D01*
X19620457Y49159256D01*
X19697418Y49156232D01*
X19697420Y49156232D01*
X19703098Y49156009D01*
X19708718Y49156824D01*
X19708721Y49156824D01*
X19915826Y49186853D01*
X19915829Y49186854D01*
X19921452Y49187669D01*
X20028477Y49223999D01*
X20124989Y49256760D01*
X20124992Y49256761D01*
X20130379Y49258590D01*
X20322884Y49366398D01*
X20492518Y49507482D01*
X20550334Y49576998D01*
X20629971Y49672750D01*
X20629972Y49672751D01*
X20633602Y49677116D01*
X20636848Y49682911D01*
X20738631Y49864659D01*
X20741410Y49869621D01*
X20749756Y49894206D01*
X20792434Y50019933D01*
X20832623Y50077088D01*
X20897332Y50103441D01*
X20966016Y50090627D01*
X21016869Y50042713D01*
X21030038Y50010599D01*
X21043511Y49957548D01*
X21135883Y49757179D01*
X21263222Y49576998D01*
X21267293Y49573032D01*
X21267294Y49573031D01*
X21417190Y49427007D01*
X21417195Y49427003D01*
X21421264Y49423039D01*
X21425987Y49419883D01*
X21425991Y49419880D01*
X21510185Y49363624D01*
X21604717Y49300460D01*
X21807436Y49213365D01*
X21890591Y49194549D01*
X22017085Y49165926D01*
X22017087Y49165926D01*
X22022632Y49164671D01*
X22160457Y49159256D01*
X22237418Y49156232D01*
X22237420Y49156232D01*
X22243098Y49156009D01*
X22248718Y49156824D01*
X22248721Y49156824D01*
X22455826Y49186853D01*
X22455829Y49186854D01*
X22461452Y49187669D01*
X22568477Y49223999D01*
X22664989Y49256760D01*
X22664992Y49256761D01*
X22670379Y49258590D01*
X22862884Y49366398D01*
X23032518Y49507482D01*
X23090334Y49576998D01*
X23169971Y49672750D01*
X23169972Y49672751D01*
X23173602Y49677116D01*
X23176848Y49682911D01*
X23278631Y49864659D01*
X23281410Y49869621D01*
X23289756Y49894206D01*
X23332434Y50019933D01*
X23372623Y50077088D01*
X23437332Y50103441D01*
X23506016Y50090627D01*
X23556869Y50042713D01*
X23570038Y50010599D01*
X23583511Y49957548D01*
X23675883Y49757179D01*
X23803222Y49576998D01*
X23807293Y49573032D01*
X23807294Y49573031D01*
X23957190Y49427007D01*
X23957195Y49427003D01*
X23961264Y49423039D01*
X23965987Y49419883D01*
X23965991Y49419880D01*
X24050185Y49363624D01*
X24144717Y49300460D01*
X24347436Y49213365D01*
X24430591Y49194549D01*
X24557085Y49165926D01*
X24557087Y49165926D01*
X24562632Y49164671D01*
X24700457Y49159256D01*
X24777418Y49156232D01*
X24777420Y49156232D01*
X24783098Y49156009D01*
X24788718Y49156824D01*
X24788721Y49156824D01*
X24995826Y49186853D01*
X24995829Y49186854D01*
X25001452Y49187669D01*
X25108477Y49223999D01*
X25204989Y49256760D01*
X25204992Y49256761D01*
X25210379Y49258590D01*
X25402884Y49366398D01*
X25572518Y49507482D01*
X25630334Y49576998D01*
X25709971Y49672750D01*
X25709972Y49672751D01*
X25713602Y49677116D01*
X25716848Y49682911D01*
X25818631Y49864659D01*
X25821410Y49869621D01*
X25829756Y49894206D01*
X25872434Y50019933D01*
X25912623Y50077088D01*
X25977332Y50103441D01*
X26046016Y50090627D01*
X26096869Y50042713D01*
X26110038Y50010599D01*
X26123511Y49957548D01*
X26215883Y49757179D01*
X26343222Y49576998D01*
X26347293Y49573032D01*
X26347294Y49573031D01*
X26497190Y49427007D01*
X26497195Y49427003D01*
X26501264Y49423039D01*
X26505987Y49419883D01*
X26505991Y49419880D01*
X26590185Y49363624D01*
X26684717Y49300460D01*
X26887436Y49213365D01*
X26970591Y49194549D01*
X27097085Y49165926D01*
X27097087Y49165926D01*
X27102632Y49164671D01*
X27240457Y49159256D01*
X27317418Y49156232D01*
X27317420Y49156232D01*
X27323098Y49156009D01*
X27328718Y49156824D01*
X27328721Y49156824D01*
X27535826Y49186853D01*
X27535829Y49186854D01*
X27541452Y49187669D01*
X27648477Y49223999D01*
X27744989Y49256760D01*
X27744992Y49256761D01*
X27750379Y49258590D01*
X27942884Y49366398D01*
X28112518Y49507482D01*
X28170334Y49576998D01*
X28249971Y49672750D01*
X28249972Y49672751D01*
X28253602Y49677116D01*
X28256848Y49682911D01*
X28358631Y49864659D01*
X28361410Y49869621D01*
X28369756Y49894206D01*
X28412434Y50019933D01*
X28452623Y50077088D01*
X28517332Y50103441D01*
X28586016Y50090627D01*
X28636869Y50042713D01*
X28650038Y50010599D01*
X28663511Y49957548D01*
X28755883Y49757179D01*
X28883222Y49576998D01*
X28887293Y49573032D01*
X28887294Y49573031D01*
X29037190Y49427007D01*
X29037195Y49427003D01*
X29041264Y49423039D01*
X29045987Y49419883D01*
X29045991Y49419880D01*
X29130185Y49363624D01*
X29224717Y49300460D01*
X29427436Y49213365D01*
X29510591Y49194549D01*
X29637085Y49165926D01*
X29637087Y49165926D01*
X29642632Y49164671D01*
X29780457Y49159256D01*
X29857418Y49156232D01*
X29857420Y49156232D01*
X29863098Y49156009D01*
X29868718Y49156824D01*
X29868721Y49156824D01*
X30075826Y49186853D01*
X30075829Y49186854D01*
X30081452Y49187669D01*
X30188477Y49223999D01*
X30284989Y49256760D01*
X30284992Y49256761D01*
X30290379Y49258590D01*
X30482884Y49366398D01*
X30652518Y49507482D01*
X30710334Y49576998D01*
X30789971Y49672750D01*
X30789972Y49672751D01*
X30793602Y49677116D01*
X30796848Y49682911D01*
X30898631Y49864659D01*
X30901410Y49869621D01*
X30909756Y49894206D01*
X30952434Y50019933D01*
X30992623Y50077088D01*
X31057332Y50103441D01*
X31126016Y50090627D01*
X31176869Y50042713D01*
X31190038Y50010599D01*
X31203511Y49957548D01*
X31295883Y49757179D01*
X31423222Y49576998D01*
X31427293Y49573032D01*
X31427294Y49573031D01*
X31577190Y49427007D01*
X31577195Y49427003D01*
X31581264Y49423039D01*
X31585987Y49419883D01*
X31585991Y49419880D01*
X31670185Y49363624D01*
X31764717Y49300460D01*
X31967436Y49213365D01*
X32050591Y49194549D01*
X32177085Y49165926D01*
X32177087Y49165926D01*
X32182632Y49164671D01*
X32320457Y49159256D01*
X32397418Y49156232D01*
X32397420Y49156232D01*
X32403098Y49156009D01*
X32408718Y49156824D01*
X32408721Y49156824D01*
X32615826Y49186853D01*
X32615829Y49186854D01*
X32621452Y49187669D01*
X32728477Y49223999D01*
X32824989Y49256760D01*
X32824992Y49256761D01*
X32830379Y49258590D01*
X32835339Y49261368D01*
X32835344Y49261370D01*
X32889910Y49291929D01*
X32958020Y49307512D01*
X33023742Y49283798D01*
X33066211Y49228316D01*
X33074500Y49183740D01*
X33074500Y48949031D01*
X33054815Y48881992D01*
X33038181Y48861350D01*
X32088650Y47911819D01*
X32027327Y47878334D01*
X32000969Y47875500D01*
X28184390Y47875500D01*
X28179197Y47875609D01*
X28128529Y47877733D01*
X28128528Y47877733D01*
X28120081Y47878087D01*
X28111848Y47876156D01*
X28079818Y47868644D01*
X28068333Y47866515D01*
X28027354Y47860901D01*
X28019598Y47857544D01*
X28019596Y47857544D01*
X28014490Y47855334D01*
X27993554Y47848410D01*
X27988140Y47847140D01*
X27979907Y47845209D01*
X27943669Y47825287D01*
X27933180Y47820149D01*
X27902977Y47807079D01*
X27902972Y47807076D01*
X27895217Y47803720D01*
X27888649Y47798401D01*
X27884323Y47794898D01*
X27866027Y47782604D01*
X27859434Y47778979D01*
X27853737Y47775847D01*
X27845995Y47769164D01*
X27822710Y47745879D01*
X27813064Y47737194D01*
X27783325Y47713112D01*
X27778430Y47706224D01*
X27778428Y47706222D01*
X27773100Y47698724D01*
X27759705Y47682874D01*
X24758601Y44681770D01*
X24754852Y44678175D01*
X24711288Y44638116D01*
X24706833Y44630931D01*
X24689495Y44602968D01*
X24682888Y44593352D01*
X24657872Y44560396D01*
X24654690Y44552358D01*
X24652710Y44547358D01*
X24642809Y44527670D01*
X24635418Y44515750D01*
X24625331Y44481030D01*
X24623878Y44476030D01*
X24620099Y44464990D01*
X24604871Y44426528D01*
X24603988Y44418129D01*
X24603986Y44418120D01*
X24603404Y44412581D01*
X24599161Y44390954D01*
X24595249Y44377488D01*
X24594500Y44367288D01*
X24594500Y44334357D01*
X24593821Y44321395D01*
X24589821Y44283338D01*
X24591231Y44275002D01*
X24591231Y44274998D01*
X24592763Y44265938D01*
X24594500Y44245259D01*
X24594500Y36994398D01*
X24594391Y36989207D01*
X24591913Y36930081D01*
X24593844Y36921849D01*
X24593844Y36921847D01*
X24601357Y36889816D01*
X24603486Y36878333D01*
X24609099Y36837354D01*
X24612454Y36829602D01*
X24612455Y36829597D01*
X24614666Y36824488D01*
X24621587Y36803560D01*
X24622858Y36798140D01*
X24622861Y36798133D01*
X24624790Y36789907D01*
X24628860Y36782503D01*
X24628863Y36782496D01*
X24644719Y36753654D01*
X24649858Y36743164D01*
X24662922Y36712975D01*
X24662924Y36712971D01*
X24666280Y36705217D01*
X24671596Y36698652D01*
X24671602Y36698642D01*
X24675106Y36694315D01*
X24687393Y36676031D01*
X24691020Y36669435D01*
X24694153Y36663737D01*
X24700836Y36655995D01*
X24724121Y36632710D01*
X24732806Y36623064D01*
X24756888Y36593325D01*
X24763776Y36588430D01*
X24763778Y36588428D01*
X24771276Y36583100D01*
X24787126Y36569705D01*
X25848941Y35507890D01*
X25882426Y35446567D01*
X25884768Y35423259D01*
X25884514Y35421247D01*
X25885190Y35414352D01*
X25885190Y35414348D01*
X25900885Y35254281D01*
X25902039Y35242514D01*
X25958726Y35072104D01*
X25962319Y35066171D01*
X25962320Y35066169D01*
X26014015Y34980811D01*
X26051759Y34918488D01*
X26176514Y34789301D01*
X26182308Y34785510D01*
X26182311Y34785507D01*
X26229700Y34754497D01*
X26326789Y34690964D01*
X26495116Y34628364D01*
X26673130Y34604612D01*
X26680031Y34605240D01*
X26680033Y34605240D01*
X26825553Y34618483D01*
X26851981Y34620888D01*
X27022782Y34676385D01*
X27177044Y34768343D01*
X27228454Y34817300D01*
X27302080Y34887413D01*
X27302082Y34887415D01*
X27307099Y34892193D01*
X27385562Y35010289D01*
X27402645Y35036001D01*
X27402646Y35036003D01*
X27406483Y35041778D01*
X27415200Y35064724D01*
X27441011Y35132673D01*
X27470257Y35209664D01*
X27495251Y35387507D01*
X27495565Y35410000D01*
X27475546Y35588472D01*
X27416485Y35758073D01*
X27321316Y35910375D01*
X27194770Y36037807D01*
X27188922Y36041519D01*
X27188916Y36041523D01*
X27060142Y36123245D01*
X27014086Y36175787D01*
X27003747Y36244888D01*
X27032409Y36308608D01*
X27063090Y36334452D01*
X27187044Y36408343D01*
X27200703Y36421350D01*
X27312080Y36527413D01*
X27312082Y36527415D01*
X27317099Y36532193D01*
X27400494Y36657713D01*
X27412645Y36676001D01*
X27412646Y36676003D01*
X27416483Y36681778D01*
X27421246Y36694315D01*
X27466836Y36814333D01*
X27480257Y36849664D01*
X27484927Y36882890D01*
X27495589Y36958756D01*
X27524412Y37022403D01*
X27583070Y37060364D01*
X27607144Y37064988D01*
X27671981Y37070888D01*
X27842782Y37126385D01*
X27997044Y37218343D01*
X28012598Y37233155D01*
X28074721Y37265132D01*
X28144270Y37258447D01*
X28185792Y37231039D01*
X29058941Y36357890D01*
X29092426Y36296567D01*
X29094768Y36273259D01*
X29094514Y36271247D01*
X29095190Y36264352D01*
X29095190Y36264348D01*
X29108454Y36129078D01*
X29112039Y36092514D01*
X29168726Y35922104D01*
X29172319Y35916171D01*
X29172320Y35916169D01*
X29237414Y35808686D01*
X29261759Y35768488D01*
X29386514Y35639301D01*
X29392308Y35635510D01*
X29392311Y35635507D01*
X29485869Y35574285D01*
X29536789Y35540964D01*
X29705116Y35478364D01*
X29883130Y35454612D01*
X29890031Y35455240D01*
X29890033Y35455240D01*
X30014741Y35466589D01*
X30061981Y35470888D01*
X30232782Y35526385D01*
X30387044Y35618343D01*
X30414286Y35644285D01*
X30512080Y35737413D01*
X30512082Y35737415D01*
X30517099Y35742193D01*
X30616483Y35891778D01*
X30623548Y35910375D01*
X30649774Y35979417D01*
X30680257Y36059664D01*
X30702049Y36214724D01*
X30704709Y36233650D01*
X30704709Y36233651D01*
X30705251Y36237507D01*
X30705565Y36260000D01*
X30685546Y36438472D01*
X30626485Y36608073D01*
X30531316Y36760375D01*
X30404770Y36887807D01*
X30253136Y36984037D01*
X30224039Y36994398D01*
X30090479Y37041957D01*
X30090475Y37041958D01*
X30083951Y37044281D01*
X29905624Y37065545D01*
X29898730Y37064820D01*
X29891797Y37064869D01*
X29891814Y37067290D01*
X29834181Y37077830D01*
X29802270Y37100900D01*
X28931819Y37971350D01*
X28898334Y38032673D01*
X28895500Y38059031D01*
X28895500Y43680969D01*
X28915185Y43748008D01*
X28931819Y43768650D01*
X30201351Y45038181D01*
X30262674Y45071666D01*
X30289032Y45074500D01*
X33666969Y45074500D01*
X33734008Y45054815D01*
X33779763Y45002011D01*
X33789707Y44932853D01*
X33760682Y44869297D01*
X33754650Y44862819D01*
X33578601Y44686770D01*
X33574852Y44683175D01*
X33531288Y44643116D01*
X33526833Y44635931D01*
X33509495Y44607968D01*
X33502888Y44598352D01*
X33477872Y44565396D01*
X33474760Y44557536D01*
X33472710Y44552358D01*
X33462809Y44532670D01*
X33455418Y44520750D01*
X33453059Y44512632D01*
X33453059Y44512631D01*
X33443878Y44481030D01*
X33440099Y44469990D01*
X33424871Y44431528D01*
X33423988Y44423129D01*
X33423986Y44423120D01*
X33423404Y44417581D01*
X33419161Y44395954D01*
X33417063Y44388732D01*
X33415249Y44382488D01*
X33414500Y44372288D01*
X33414500Y44339357D01*
X33413821Y44326395D01*
X33409821Y44288338D01*
X33411231Y44280002D01*
X33411231Y44279998D01*
X33412763Y44270938D01*
X33414500Y44250259D01*
X33414500Y36797986D01*
X33394815Y36730947D01*
X33377259Y36709392D01*
X33315732Y36649141D01*
X33218446Y36498183D01*
X33216076Y36491671D01*
X33167384Y36357890D01*
X33157022Y36329422D01*
X33149673Y36271247D01*
X33136997Y36170900D01*
X33134514Y36151247D01*
X33152039Y35972514D01*
X33208726Y35802104D01*
X33212319Y35796171D01*
X33212320Y35796169D01*
X33298168Y35654417D01*
X33301759Y35648488D01*
X33426514Y35519301D01*
X33432308Y35515510D01*
X33432311Y35515507D01*
X33513969Y35462072D01*
X33576789Y35420964D01*
X33583284Y35418549D01*
X33583285Y35418548D01*
X33617072Y35405983D01*
X33745116Y35358364D01*
X33923130Y35334612D01*
X33930031Y35335240D01*
X33930033Y35335240D01*
X33982128Y35339981D01*
X34099264Y35350641D01*
X34167809Y35337113D01*
X34218162Y35288673D01*
X34234500Y35227151D01*
X34234500Y34587986D01*
X34214815Y34520947D01*
X34197259Y34499392D01*
X34135732Y34439141D01*
X34038446Y34288183D01*
X34022561Y34244539D01*
X34008123Y34204870D01*
X33977022Y34119422D01*
X33954514Y33941247D01*
X33959444Y33890964D01*
X33966996Y33813951D01*
X33972039Y33762514D01*
X34028726Y33592104D01*
X34032319Y33586171D01*
X34032320Y33586169D01*
X34111994Y33454612D01*
X34121759Y33438488D01*
X34246514Y33309301D01*
X34252308Y33305510D01*
X34252311Y33305507D01*
X34348213Y33242751D01*
X34396789Y33210964D01*
X34565116Y33148364D01*
X34743130Y33124612D01*
X34750031Y33125240D01*
X34750033Y33125240D01*
X34857744Y33135042D01*
X34921981Y33140888D01*
X34928574Y33143030D01*
X34935364Y33144424D01*
X34935990Y33141377D01*
X34992190Y33142904D01*
X35051972Y33106741D01*
X35082713Y33043997D01*
X35084500Y33023022D01*
X35084500Y31417986D01*
X35064815Y31350947D01*
X35047259Y31329392D01*
X34985732Y31269141D01*
X34981979Y31263317D01*
X34909970Y31151581D01*
X34888446Y31118183D01*
X34886076Y31111671D01*
X34829965Y30957507D01*
X34827022Y30949422D01*
X34804514Y30771247D01*
X34805191Y30764345D01*
X34820717Y30606001D01*
X34822039Y30592514D01*
X34878726Y30422104D01*
X34882319Y30416171D01*
X34882320Y30416169D01*
X34926057Y30343951D01*
X34971759Y30268488D01*
X35096514Y30139301D01*
X35102308Y30135510D01*
X35102311Y30135507D01*
X35198213Y30072751D01*
X35246789Y30040964D01*
X35253284Y30038549D01*
X35253285Y30038548D01*
X35276440Y30029937D01*
X35415116Y29978364D01*
X35593130Y29954612D01*
X35600031Y29955240D01*
X35600033Y29955240D01*
X35734828Y29967507D01*
X35771981Y29970888D01*
X35942782Y30026385D01*
X36097044Y30118343D01*
X36134787Y30154285D01*
X36222080Y30237413D01*
X36222082Y30237415D01*
X36227099Y30242193D01*
X36326483Y30391778D01*
X36355117Y30467156D01*
X36397322Y30522833D01*
X36462932Y30546855D01*
X36531115Y30531592D01*
X36580221Y30481890D01*
X36588693Y30462262D01*
X36596535Y30438689D01*
X36598726Y30432104D01*
X36602319Y30426171D01*
X36602320Y30426169D01*
X36655673Y30338073D01*
X36691759Y30278488D01*
X36816514Y30149301D01*
X36822308Y30145510D01*
X36822311Y30145507D01*
X36869249Y30114792D01*
X36966789Y30050964D01*
X36973284Y30048549D01*
X36973285Y30048548D01*
X36993678Y30040964D01*
X37135116Y29988364D01*
X37313130Y29964612D01*
X37320031Y29965240D01*
X37320033Y29965240D01*
X37454180Y29977448D01*
X37491981Y29980888D01*
X37621049Y30022825D01*
X37690890Y30024820D01*
X37750723Y29988740D01*
X37781551Y29926039D01*
X37782775Y29916994D01*
X37792039Y29822514D01*
X37848726Y29652104D01*
X37852319Y29646171D01*
X37852320Y29646169D01*
X37938168Y29504417D01*
X37941759Y29498488D01*
X38066514Y29369301D01*
X38072308Y29365510D01*
X38072311Y29365507D01*
X38168213Y29302751D01*
X38216789Y29270964D01*
X38385116Y29208364D01*
X38563130Y29184612D01*
X38570031Y29185240D01*
X38570033Y29185240D01*
X38683269Y29195545D01*
X38741981Y29200888D01*
X38912782Y29256385D01*
X39067044Y29348343D01*
X39197099Y29472193D01*
X39296483Y29621778D01*
X39360257Y29789664D01*
X39385251Y29967507D01*
X39385565Y29990000D01*
X39365546Y30168472D01*
X39306485Y30338073D01*
X39211316Y30490375D01*
X39141513Y30560667D01*
X39108243Y30622107D01*
X39105500Y30648042D01*
X39105500Y33940993D01*
X39125185Y34008032D01*
X39177989Y34053787D01*
X39247147Y34063731D01*
X39310703Y34034706D01*
X39335564Y34005230D01*
X39351759Y33978488D01*
X39476514Y33849301D01*
X39482308Y33845510D01*
X39482311Y33845507D01*
X39578126Y33782808D01*
X39626789Y33750964D01*
X39633284Y33748549D01*
X39633285Y33748548D01*
X39679855Y33731229D01*
X39795116Y33688364D01*
X39973130Y33664612D01*
X39980031Y33665240D01*
X39980033Y33665240D01*
X40125553Y33678483D01*
X40151981Y33680888D01*
X40322782Y33736385D01*
X40477044Y33828343D01*
X40482066Y33833125D01*
X40487587Y33837316D01*
X40489511Y33834782D01*
X40539040Y33860438D01*
X40608606Y33853932D01*
X40650425Y33826406D01*
X40708941Y33767890D01*
X40742426Y33706567D01*
X40744768Y33683259D01*
X40744514Y33681247D01*
X40745190Y33674352D01*
X40745190Y33674348D01*
X40761362Y33509417D01*
X40762039Y33502514D01*
X40818726Y33332104D01*
X40822319Y33326171D01*
X40822320Y33326169D01*
X40892091Y33210964D01*
X40911759Y33178488D01*
X41036514Y33049301D01*
X41042308Y33045510D01*
X41042311Y33045507D01*
X41111319Y33000350D01*
X41186789Y32950964D01*
X41193284Y32948549D01*
X41193285Y32948548D01*
X41225442Y32936589D01*
X41355116Y32888364D01*
X41533130Y32864612D01*
X41540031Y32865240D01*
X41540033Y32865240D01*
X41647744Y32875042D01*
X41711981Y32880888D01*
X41882782Y32936385D01*
X42037044Y33028343D01*
X42083332Y33072422D01*
X42145453Y33104399D01*
X42215003Y33097714D01*
X42256525Y33070306D01*
X42348941Y32977890D01*
X42382426Y32916567D01*
X42384768Y32893259D01*
X42384514Y32891247D01*
X42385190Y32884352D01*
X42385190Y32884348D01*
X42393300Y32801642D01*
X42402039Y32712514D01*
X42458726Y32542104D01*
X42462319Y32536171D01*
X42462320Y32536169D01*
X42548168Y32394417D01*
X42551759Y32388488D01*
X42676514Y32259301D01*
X42682308Y32255510D01*
X42682311Y32255507D01*
X42770360Y32197890D01*
X42826789Y32160964D01*
X42995116Y32098364D01*
X43173130Y32074612D01*
X43180031Y32075240D01*
X43180033Y32075240D01*
X43287744Y32085042D01*
X43351981Y32090888D01*
X43522782Y32146385D01*
X43677044Y32238343D01*
X43807099Y32362193D01*
X43807297Y32362491D01*
X43863298Y32399753D01*
X43933159Y32400865D01*
X43987803Y32369028D01*
X44158941Y32197890D01*
X44192426Y32136567D01*
X44194768Y32113259D01*
X44194514Y32111247D01*
X44195190Y32104352D01*
X44195190Y32104348D01*
X44198106Y32074612D01*
X44212039Y31932514D01*
X44268726Y31762104D01*
X44272319Y31756171D01*
X44272320Y31756169D01*
X44353117Y31622757D01*
X44361759Y31608488D01*
X44486514Y31479301D01*
X44492308Y31475510D01*
X44492311Y31475507D01*
X44580213Y31417986D01*
X44636789Y31380964D01*
X44805116Y31318364D01*
X44983130Y31294612D01*
X44990031Y31295240D01*
X44990033Y31295240D01*
X45097744Y31305042D01*
X45161981Y31310888D01*
X45332782Y31366385D01*
X45487044Y31458343D01*
X45492066Y31463125D01*
X45612080Y31577413D01*
X45612082Y31577415D01*
X45617099Y31582193D01*
X45644050Y31622758D01*
X45697544Y31667703D01*
X45766846Y31676592D01*
X45835013Y31641818D01*
X46398941Y31077890D01*
X46432426Y31016567D01*
X46434768Y30993259D01*
X46434514Y30991247D01*
X46435190Y30984352D01*
X46435190Y30984348D01*
X46450659Y30826589D01*
X46452039Y30812514D01*
X46508726Y30642104D01*
X46512319Y30636171D01*
X46512320Y30636169D01*
X46575654Y30531592D01*
X46601759Y30488488D01*
X46726514Y30359301D01*
X46732308Y30355510D01*
X46732311Y30355507D01*
X46768957Y30331527D01*
X46876789Y30260964D01*
X46883284Y30258549D01*
X46883285Y30258548D01*
X46915991Y30246385D01*
X47045116Y30198364D01*
X47223130Y30174612D01*
X47230031Y30175240D01*
X47230033Y30175240D01*
X47337744Y30185042D01*
X47401981Y30190888D01*
X47572782Y30246385D01*
X47727044Y30338343D01*
X47777090Y30386001D01*
X47852080Y30457413D01*
X47852082Y30457415D01*
X47857099Y30462193D01*
X47943684Y30592514D01*
X47952645Y30606001D01*
X47952646Y30606003D01*
X47956483Y30611778D01*
X47970259Y30648042D01*
X48014438Y30764345D01*
X48020257Y30779664D01*
X48045251Y30957507D01*
X48045565Y30980000D01*
X48025546Y31158472D01*
X47966485Y31328073D01*
X47871316Y31480375D01*
X47744770Y31607807D01*
X47593136Y31704037D01*
X47584746Y31707025D01*
X47430479Y31761957D01*
X47430475Y31761958D01*
X47423951Y31764281D01*
X47245624Y31785545D01*
X47238730Y31784820D01*
X47231797Y31784869D01*
X47231814Y31787289D01*
X47174176Y31797832D01*
X47142269Y31820900D01*
X46141819Y32821350D01*
X46108334Y32882673D01*
X46105500Y32909031D01*
X46105500Y36371969D01*
X46125185Y36439008D01*
X46177989Y36484763D01*
X46247147Y36494707D01*
X46310703Y36465682D01*
X46317181Y36459650D01*
X46488941Y36287890D01*
X46522426Y36226567D01*
X46524768Y36203259D01*
X46524514Y36201247D01*
X46525190Y36194352D01*
X46525190Y36194348D01*
X46541362Y36029417D01*
X46542039Y36022514D01*
X46598726Y35852104D01*
X46602319Y35846171D01*
X46602320Y35846169D01*
X46655673Y35758073D01*
X46691759Y35698488D01*
X46816514Y35569301D01*
X46822308Y35565510D01*
X46822311Y35565507D01*
X46892922Y35519301D01*
X46966789Y35470964D01*
X46973284Y35468549D01*
X46973285Y35468548D01*
X47009070Y35455240D01*
X47135116Y35408364D01*
X47313130Y35384612D01*
X47320031Y35385240D01*
X47320033Y35385240D01*
X47427744Y35395042D01*
X47491981Y35400888D01*
X47662782Y35456385D01*
X47817044Y35548343D01*
X47851948Y35581581D01*
X47940164Y35665589D01*
X48002287Y35697566D01*
X48071836Y35690880D01*
X48113358Y35663473D01*
X48268941Y35507890D01*
X48302426Y35446567D01*
X48304768Y35423259D01*
X48304514Y35421247D01*
X48305190Y35414352D01*
X48305190Y35414348D01*
X48320885Y35254281D01*
X48322039Y35242514D01*
X48378726Y35072104D01*
X48382319Y35066171D01*
X48382320Y35066169D01*
X48434015Y34980811D01*
X48471759Y34918488D01*
X48596514Y34789301D01*
X48602308Y34785510D01*
X48602311Y34785507D01*
X48649700Y34754497D01*
X48746789Y34690964D01*
X48915116Y34628364D01*
X49093130Y34604612D01*
X49100031Y34605240D01*
X49100033Y34605240D01*
X49245553Y34618483D01*
X49271981Y34620888D01*
X49442782Y34676385D01*
X49597044Y34768343D01*
X49648456Y34817302D01*
X49710575Y34849277D01*
X49780124Y34842592D01*
X49821647Y34815184D01*
X49928941Y34707890D01*
X49962426Y34646567D01*
X49964768Y34623259D01*
X49964514Y34621247D01*
X49965190Y34614352D01*
X49965190Y34614348D01*
X49978881Y34474724D01*
X49982039Y34442514D01*
X50038726Y34272104D01*
X50042319Y34266171D01*
X50042320Y34266169D01*
X50128168Y34124417D01*
X50131759Y34118488D01*
X50256514Y33989301D01*
X50262308Y33985510D01*
X50262311Y33985507D01*
X50340496Y33934345D01*
X50406789Y33890964D01*
X50575116Y33828364D01*
X50753130Y33804612D01*
X50760031Y33805240D01*
X50760033Y33805240D01*
X50867744Y33815042D01*
X50931981Y33820888D01*
X51102782Y33876385D01*
X51257044Y33968343D01*
X51267698Y33978488D01*
X51382073Y34087407D01*
X51387099Y34092193D01*
X51387297Y34092491D01*
X51443298Y34129753D01*
X51513159Y34130865D01*
X51567803Y34099028D01*
X51768230Y33898601D01*
X51771825Y33894852D01*
X51811884Y33851288D01*
X51847034Y33829494D01*
X51856659Y33822879D01*
X51879517Y33805529D01*
X51889605Y33797872D01*
X51902639Y33792711D01*
X51922330Y33782808D01*
X51927061Y33779874D01*
X51927069Y33779870D01*
X51934250Y33775418D01*
X51960161Y33767890D01*
X51973967Y33763879D01*
X51985012Y33760098D01*
X52023473Y33744870D01*
X52036685Y33743482D01*
X52037413Y33743405D01*
X52059054Y33739159D01*
X52065064Y33737413D01*
X52072512Y33735249D01*
X52078987Y33734774D01*
X52078990Y33734773D01*
X52080437Y33734667D01*
X52080439Y33734667D01*
X52082712Y33734500D01*
X52115633Y33734500D01*
X52128595Y33733821D01*
X52166662Y33729820D01*
X52174992Y33731229D01*
X52174995Y33731229D01*
X52184068Y33732764D01*
X52204747Y33734500D01*
X52641946Y33734500D01*
X52708985Y33714815D01*
X52731144Y33696638D01*
X52752669Y33674348D01*
X52786514Y33639301D01*
X52792308Y33635510D01*
X52792311Y33635507D01*
X52867708Y33586169D01*
X52936789Y33540964D01*
X53105116Y33478364D01*
X53283130Y33454612D01*
X53290031Y33455240D01*
X53290033Y33455240D01*
X53397744Y33465042D01*
X53461981Y33470888D01*
X53632782Y33526385D01*
X53783031Y33615951D01*
X53783034Y33615952D01*
X53787044Y33618343D01*
X53787464Y33617638D01*
X53847498Y33640484D01*
X53915868Y33626085D01*
X53925060Y33620620D01*
X54040985Y33544761D01*
X54040992Y33544758D01*
X54046789Y33540964D01*
X54215116Y33478364D01*
X54393130Y33454612D01*
X54400031Y33455240D01*
X54400033Y33455240D01*
X54507744Y33465042D01*
X54571981Y33470888D01*
X54742782Y33526385D01*
X54897044Y33618343D01*
X54905174Y33626085D01*
X55022080Y33737413D01*
X55022082Y33737415D01*
X55027099Y33742193D01*
X55126483Y33891778D01*
X55190257Y34059664D01*
X55215251Y34237507D01*
X55215565Y34260000D01*
X55195546Y34438472D01*
X55136485Y34608073D01*
X55041316Y34760375D01*
X54914770Y34887807D01*
X54763136Y34984037D01*
X54729554Y34995995D01*
X54600479Y35041957D01*
X54600475Y35041958D01*
X54593951Y35044281D01*
X54415624Y35065545D01*
X54408730Y35064820D01*
X54401797Y35064869D01*
X54401814Y35067289D01*
X54344176Y35077832D01*
X54312269Y35100900D01*
X53911819Y35501350D01*
X53878334Y35562673D01*
X53875500Y35589031D01*
X53875500Y38170969D01*
X53895185Y38238008D01*
X53911819Y38258650D01*
X54591351Y38938181D01*
X54652674Y38971666D01*
X54679032Y38974500D01*
X56465602Y38974500D01*
X56470794Y38974391D01*
X56521471Y38972267D01*
X56529919Y38971913D01*
X56538151Y38973844D01*
X56538153Y38973844D01*
X56570184Y38981357D01*
X56581667Y38983486D01*
X56597905Y38985710D01*
X56614275Y38987952D01*
X56614277Y38987953D01*
X56622646Y38989099D01*
X56630398Y38992454D01*
X56630403Y38992455D01*
X56635512Y38994666D01*
X56656440Y39001587D01*
X56661860Y39002858D01*
X56661867Y39002861D01*
X56670093Y39004790D01*
X56677497Y39008860D01*
X56677504Y39008863D01*
X56706346Y39024719D01*
X56716836Y39029858D01*
X56747025Y39042922D01*
X56747029Y39042924D01*
X56754783Y39046280D01*
X56761348Y39051596D01*
X56761358Y39051602D01*
X56765685Y39055106D01*
X56783969Y39067393D01*
X56790565Y39071020D01*
X56790567Y39071022D01*
X56796263Y39074153D01*
X56804005Y39080836D01*
X56827290Y39104121D01*
X56836936Y39112806D01*
X56860104Y39131567D01*
X56866675Y39136888D01*
X56871570Y39143776D01*
X56871572Y39143778D01*
X56876900Y39151276D01*
X56890295Y39167126D01*
X58101399Y40378230D01*
X58105148Y40381825D01*
X58142485Y40416158D01*
X58148712Y40421884D01*
X58170509Y40457040D01*
X58177126Y40466667D01*
X58178144Y40468008D01*
X58202127Y40499604D01*
X58206903Y40511666D01*
X58207290Y40512643D01*
X58217192Y40532331D01*
X58220129Y40537068D01*
X58220129Y40537069D01*
X58224582Y40544250D01*
X58236123Y40583972D01*
X58239906Y40595022D01*
X58252017Y40625612D01*
X58255129Y40633472D01*
X58256013Y40641880D01*
X58256014Y40641885D01*
X58256596Y40647419D01*
X58260839Y40669046D01*
X58262937Y40676268D01*
X58262937Y40676269D01*
X58264751Y40682512D01*
X58265500Y40692712D01*
X58265500Y40725642D01*
X58266179Y40738604D01*
X58268574Y40761395D01*
X58270179Y40776661D01*
X58268769Y40784997D01*
X58268769Y40785001D01*
X58267237Y40794061D01*
X58265500Y40814740D01*
X58265500Y49205581D01*
X58285185Y49272620D01*
X58328911Y49313771D01*
X58330042Y49314404D01*
X58422884Y49366398D01*
X58592518Y49507482D01*
X58650334Y49576998D01*
X58729971Y49672750D01*
X58729972Y49672751D01*
X58733602Y49677116D01*
X58736848Y49682911D01*
X58838631Y49864659D01*
X58841410Y49869621D01*
X58849756Y49894206D01*
X58892434Y50019933D01*
X58912331Y50078548D01*
X58914083Y50090627D01*
X58932430Y50217170D01*
X58943991Y50296902D01*
X58945643Y50360000D01*
X58925454Y50579711D01*
X58865565Y50792064D01*
X58767980Y50989947D01*
X58635967Y51166733D01*
X58473949Y51316501D01*
X58356885Y51390363D01*
X58292159Y51431202D01*
X58292157Y51431203D01*
X58287350Y51434236D01*
X58082421Y51515994D01*
X58083117Y51517739D01*
X58031559Y51551045D01*
X58002684Y51614669D01*
X58012790Y51683803D01*
X58058669Y51736500D01*
X58085605Y51749446D01*
X58091739Y51751528D01*
X58171411Y51778573D01*
X58224989Y51796760D01*
X58224992Y51796761D01*
X58230379Y51798590D01*
X58334801Y51857069D01*
X58417931Y51903624D01*
X58417932Y51903625D01*
X58422884Y51906398D01*
X58432857Y51914692D01*
X58588151Y52043850D01*
X58592518Y52047482D01*
X58650334Y52116998D01*
X58729971Y52212750D01*
X58729972Y52212751D01*
X58733602Y52217116D01*
X58841410Y52409621D01*
X58912331Y52618548D01*
X58914083Y52630627D01*
X58927424Y52722645D01*
X58943991Y52836902D01*
X58945643Y52900000D01*
X58925454Y53119711D01*
X58891541Y53239960D01*
X58875776Y53295859D01*
X58876525Y53365725D01*
X58914927Y53424095D01*
X58978790Y53452437D01*
X59047838Y53441753D01*
X59082802Y53417198D01*
X65963681Y46536319D01*
X65997166Y46474996D01*
X66000000Y46448638D01*
X66000000Y8051362D01*
X65980315Y7984323D01*
X65963681Y7963681D01*
X59036319Y1036319D01*
X58974996Y1002834D01*
X58948638Y1000000D01*
X58397742Y1000000D01*
X58330703Y1019685D01*
X58284948Y1072489D01*
X58275004Y1141647D01*
X58304029Y1205203D01*
X58321400Y1221714D01*
X58374782Y1263420D01*
X58383115Y1275044D01*
X58376683Y1286540D01*
X57752607Y1910616D01*
X57738887Y1918108D01*
X57737081Y1917979D01*
X57730574Y1913797D01*
X57103213Y1286436D01*
X57095956Y1273146D01*
X57102680Y1263553D01*
X57133227Y1237556D01*
X57148126Y1227201D01*
X57146939Y1225493D01*
X57189239Y1182345D01*
X57203413Y1113928D01*
X57178349Y1048709D01*
X57122003Y1007394D01*
X57079823Y1000000D01*
X55857742Y1000000D01*
X55790703Y1019685D01*
X55744948Y1072489D01*
X55735004Y1141647D01*
X55764029Y1205203D01*
X55781400Y1221714D01*
X55834782Y1263420D01*
X55843115Y1275044D01*
X55836683Y1286540D01*
X55212607Y1910616D01*
X55198887Y1918108D01*
X55197081Y1917979D01*
X55190574Y1913797D01*
X54563213Y1286436D01*
X54555956Y1273146D01*
X54562680Y1263553D01*
X54593227Y1237556D01*
X54608126Y1227201D01*
X54606939Y1225493D01*
X54649239Y1182345D01*
X54663413Y1113928D01*
X54638349Y1048709D01*
X54582003Y1007394D01*
X54539823Y1000000D01*
X53557967Y1000000D01*
X53490928Y1019685D01*
X53445173Y1072489D01*
X53435229Y1141647D01*
X53464254Y1205203D01*
X53478674Y1219334D01*
X53512518Y1247482D01*
X53570334Y1316998D01*
X53649971Y1412750D01*
X53649972Y1412751D01*
X53653602Y1417116D01*
X53656848Y1422911D01*
X53758631Y1604659D01*
X53761410Y1609621D01*
X53832331Y1818548D01*
X53834083Y1830627D01*
X53854777Y1973356D01*
X53863991Y2036902D01*
X53865643Y2100000D01*
X53864845Y2108685D01*
X54145530Y2108685D01*
X54161744Y1915588D01*
X54163926Y1903700D01*
X54217337Y1717434D01*
X54221783Y1706203D01*
X54310365Y1533842D01*
X54316895Y1523708D01*
X54363316Y1465139D01*
X54375117Y1456803D01*
X54386380Y1463157D01*
X55010616Y2087393D01*
X55016892Y2098887D01*
X55381892Y2098887D01*
X55382021Y2097081D01*
X55386203Y2090574D01*
X56013784Y1462993D01*
X56027193Y1455671D01*
X56036607Y1462221D01*
X56058190Y1487224D01*
X56065150Y1497091D01*
X56160868Y1665587D01*
X56165780Y1676620D01*
X56226947Y1860492D01*
X56229622Y1872265D01*
X56254235Y2067097D01*
X56254718Y2074007D01*
X56255033Y2096538D01*
X56254743Y2103448D01*
X56254230Y2108685D01*
X56685530Y2108685D01*
X56701744Y1915588D01*
X56703926Y1903700D01*
X56757337Y1717434D01*
X56761783Y1706203D01*
X56850365Y1533842D01*
X56856895Y1523708D01*
X56903316Y1465139D01*
X56915117Y1456803D01*
X56926380Y1463157D01*
X57550616Y2087393D01*
X57556892Y2098887D01*
X57921892Y2098887D01*
X57922021Y2097081D01*
X57926203Y2090574D01*
X58553784Y1462993D01*
X58567193Y1455671D01*
X58576607Y1462221D01*
X58598190Y1487224D01*
X58605150Y1497091D01*
X58700868Y1665587D01*
X58705780Y1676620D01*
X58766947Y1860492D01*
X58769622Y1872265D01*
X58794235Y2067097D01*
X58794718Y2074007D01*
X58795033Y2096538D01*
X58794743Y2103448D01*
X58775579Y2298897D01*
X58773235Y2310736D01*
X58717222Y2496260D01*
X58712625Y2507413D01*
X58621648Y2678515D01*
X58614964Y2688575D01*
X58576993Y2735133D01*
X58564845Y2743461D01*
X58554048Y2737271D01*
X57929384Y2112607D01*
X57921892Y2098887D01*
X57556892Y2098887D01*
X57558108Y2101113D01*
X57557979Y2102919D01*
X57553797Y2109426D01*
X56926621Y2736602D01*
X56913450Y2743794D01*
X56903682Y2736895D01*
X56873338Y2700733D01*
X56866515Y2690769D01*
X56773163Y2520961D01*
X56768403Y2509857D01*
X56709808Y2325143D01*
X56707299Y2313336D01*
X56685698Y2120761D01*
X56685530Y2108685D01*
X56254230Y2108685D01*
X56235579Y2298897D01*
X56233235Y2310736D01*
X56177222Y2496260D01*
X56172625Y2507413D01*
X56081648Y2678515D01*
X56074964Y2688575D01*
X56036993Y2735133D01*
X56024845Y2743461D01*
X56014048Y2737271D01*
X55389384Y2112607D01*
X55381892Y2098887D01*
X55016892Y2098887D01*
X55018108Y2101113D01*
X55017979Y2102919D01*
X55013797Y2109426D01*
X54386621Y2736602D01*
X54373450Y2743794D01*
X54363682Y2736895D01*
X54333338Y2700733D01*
X54326515Y2690769D01*
X54233163Y2520961D01*
X54228403Y2509857D01*
X54169808Y2325143D01*
X54167299Y2313336D01*
X54145698Y2120761D01*
X54145530Y2108685D01*
X53864845Y2108685D01*
X53845454Y2319711D01*
X53785565Y2532064D01*
X53687980Y2729947D01*
X53555967Y2906733D01*
X53536372Y2924846D01*
X54556689Y2924846D01*
X54562963Y2913814D01*
X55187393Y2289384D01*
X55201113Y2281892D01*
X55202919Y2282021D01*
X55209426Y2286203D01*
X55836454Y2913231D01*
X55842796Y2924846D01*
X57096689Y2924846D01*
X57102963Y2913814D01*
X57727393Y2289384D01*
X57741113Y2281892D01*
X57742919Y2282021D01*
X57749426Y2286203D01*
X58376454Y2913231D01*
X58383580Y2926281D01*
X58376505Y2936225D01*
X58334667Y2970836D01*
X58324661Y2977586D01*
X58154195Y3069756D01*
X58143068Y3074433D01*
X57957937Y3131740D01*
X57946130Y3134164D01*
X57753395Y3154421D01*
X57741329Y3154506D01*
X57548340Y3136943D01*
X57536477Y3134680D01*
X57350575Y3079966D01*
X57339386Y3075445D01*
X57167648Y2985662D01*
X57157553Y2979056D01*
X57105022Y2936820D01*
X57096689Y2924846D01*
X55842796Y2924846D01*
X55843580Y2926281D01*
X55836505Y2936225D01*
X55794667Y2970836D01*
X55784661Y2977586D01*
X55614195Y3069756D01*
X55603068Y3074433D01*
X55417937Y3131740D01*
X55406130Y3134164D01*
X55213395Y3154421D01*
X55201329Y3154506D01*
X55008340Y3136943D01*
X54996477Y3134680D01*
X54810575Y3079966D01*
X54799386Y3075445D01*
X54627648Y2985662D01*
X54617553Y2979056D01*
X54565022Y2936820D01*
X54556689Y2924846D01*
X53536372Y2924846D01*
X53393949Y3056501D01*
X53368332Y3072664D01*
X53212159Y3171202D01*
X53212157Y3171203D01*
X53207350Y3174236D01*
X53002421Y3255994D01*
X53003117Y3257739D01*
X52951559Y3291045D01*
X52922684Y3354669D01*
X52932790Y3423803D01*
X52978669Y3476500D01*
X53005605Y3489446D01*
X53144989Y3536760D01*
X53144992Y3536761D01*
X53150379Y3538590D01*
X53280403Y3611407D01*
X53337931Y3643624D01*
X53337932Y3643625D01*
X53342884Y3646398D01*
X53352857Y3654692D01*
X53508151Y3783850D01*
X53512518Y3787482D01*
X53533863Y3813146D01*
X54555956Y3813146D01*
X54562680Y3803553D01*
X54593227Y3777556D01*
X54603150Y3770659D01*
X54772301Y3676124D01*
X54783370Y3671288D01*
X54967667Y3611407D01*
X54979458Y3608814D01*
X55171883Y3585868D01*
X55183949Y3585615D01*
X55377166Y3600483D01*
X55389057Y3602580D01*
X55575702Y3654692D01*
X55586953Y3659056D01*
X55759926Y3746431D01*
X55770125Y3752903D01*
X55834780Y3803418D01*
X55841754Y3813146D01*
X57095956Y3813146D01*
X57102680Y3803553D01*
X57133227Y3777556D01*
X57143150Y3770659D01*
X57312301Y3676124D01*
X57323370Y3671288D01*
X57507667Y3611407D01*
X57519458Y3608814D01*
X57711883Y3585868D01*
X57723949Y3585615D01*
X57917166Y3600483D01*
X57929057Y3602580D01*
X58115702Y3654692D01*
X58126953Y3659056D01*
X58299926Y3746431D01*
X58310125Y3752903D01*
X58374780Y3803418D01*
X58383115Y3815044D01*
X58376683Y3826540D01*
X57752607Y4450616D01*
X57738887Y4458108D01*
X57737081Y4457979D01*
X57730574Y4453797D01*
X57103213Y3826436D01*
X57095956Y3813146D01*
X55841754Y3813146D01*
X55843115Y3815044D01*
X55836683Y3826540D01*
X55212607Y4450616D01*
X55198887Y4458108D01*
X55197081Y4457979D01*
X55190574Y4453797D01*
X54563213Y3826436D01*
X54555956Y3813146D01*
X53533863Y3813146D01*
X53570334Y3856998D01*
X53649971Y3952750D01*
X53649972Y3952751D01*
X53653602Y3957116D01*
X53761410Y4149621D01*
X53832331Y4358548D01*
X53834083Y4370627D01*
X53847424Y4462645D01*
X53863991Y4576902D01*
X53865643Y4640000D01*
X53864845Y4648685D01*
X54145530Y4648685D01*
X54161744Y4455588D01*
X54163926Y4443700D01*
X54217337Y4257434D01*
X54221783Y4246203D01*
X54310365Y4073842D01*
X54316895Y4063708D01*
X54363316Y4005139D01*
X54375117Y3996803D01*
X54386380Y4003157D01*
X55010616Y4627393D01*
X55016892Y4638887D01*
X55381892Y4638887D01*
X55382021Y4637081D01*
X55386203Y4630574D01*
X56013784Y4002993D01*
X56027193Y3995671D01*
X56036607Y4002221D01*
X56058190Y4027224D01*
X56065150Y4037091D01*
X56160868Y4205587D01*
X56165780Y4216620D01*
X56226947Y4400492D01*
X56229622Y4412265D01*
X56254235Y4607097D01*
X56254718Y4614007D01*
X56255033Y4636538D01*
X56254743Y4643448D01*
X56254230Y4648685D01*
X56685530Y4648685D01*
X56701744Y4455588D01*
X56703926Y4443700D01*
X56757337Y4257434D01*
X56761783Y4246203D01*
X56850365Y4073842D01*
X56856895Y4063708D01*
X56903316Y4005139D01*
X56915117Y3996803D01*
X56926380Y4003157D01*
X57550616Y4627393D01*
X57556892Y4638887D01*
X57921892Y4638887D01*
X57922021Y4637081D01*
X57926203Y4630574D01*
X58553784Y4002993D01*
X58567193Y3995671D01*
X58576607Y4002221D01*
X58598190Y4027224D01*
X58605150Y4037091D01*
X58700868Y4205587D01*
X58705780Y4216620D01*
X58766947Y4400492D01*
X58769622Y4412265D01*
X58794235Y4607097D01*
X58794718Y4614007D01*
X58795033Y4636538D01*
X58794743Y4643448D01*
X58775579Y4838897D01*
X58773235Y4850736D01*
X58717222Y5036260D01*
X58712625Y5047413D01*
X58621648Y5218515D01*
X58614964Y5228575D01*
X58576993Y5275133D01*
X58564845Y5283461D01*
X58554048Y5277271D01*
X57929384Y4652607D01*
X57921892Y4638887D01*
X57556892Y4638887D01*
X57558108Y4641113D01*
X57557979Y4642919D01*
X57553797Y4649426D01*
X56926621Y5276602D01*
X56913450Y5283794D01*
X56903682Y5276895D01*
X56873338Y5240733D01*
X56866515Y5230769D01*
X56773163Y5060961D01*
X56768403Y5049857D01*
X56709808Y4865143D01*
X56707299Y4853336D01*
X56685698Y4660761D01*
X56685530Y4648685D01*
X56254230Y4648685D01*
X56235579Y4838897D01*
X56233235Y4850736D01*
X56177222Y5036260D01*
X56172625Y5047413D01*
X56081648Y5218515D01*
X56074964Y5228575D01*
X56036993Y5275133D01*
X56024845Y5283461D01*
X56014048Y5277271D01*
X55389384Y4652607D01*
X55381892Y4638887D01*
X55016892Y4638887D01*
X55018108Y4641113D01*
X55017979Y4642919D01*
X55013797Y4649426D01*
X54386621Y5276602D01*
X54373450Y5283794D01*
X54363682Y5276895D01*
X54333338Y5240733D01*
X54326515Y5230769D01*
X54233163Y5060961D01*
X54228403Y5049857D01*
X54169808Y4865143D01*
X54167299Y4853336D01*
X54145698Y4660761D01*
X54145530Y4648685D01*
X53864845Y4648685D01*
X53845454Y4859711D01*
X53785565Y5072064D01*
X53687980Y5269947D01*
X53555967Y5446733D01*
X53536372Y5464846D01*
X54556689Y5464846D01*
X54562963Y5453814D01*
X55187393Y4829384D01*
X55201113Y4821892D01*
X55202919Y4822021D01*
X55209426Y4826203D01*
X55836454Y5453231D01*
X55842796Y5464846D01*
X57096689Y5464846D01*
X57102963Y5453814D01*
X57727393Y4829384D01*
X57741113Y4821892D01*
X57742919Y4822021D01*
X57749426Y4826203D01*
X58376454Y5453231D01*
X58383580Y5466281D01*
X58376505Y5476225D01*
X58334667Y5510836D01*
X58324661Y5517586D01*
X58154195Y5609756D01*
X58143068Y5614433D01*
X57957937Y5671740D01*
X57946130Y5674164D01*
X57753395Y5694421D01*
X57741329Y5694506D01*
X57548340Y5676943D01*
X57536477Y5674680D01*
X57350575Y5619966D01*
X57339386Y5615445D01*
X57167648Y5525662D01*
X57157553Y5519056D01*
X57105022Y5476820D01*
X57096689Y5464846D01*
X55842796Y5464846D01*
X55843580Y5466281D01*
X55836505Y5476225D01*
X55794667Y5510836D01*
X55784661Y5517586D01*
X55614195Y5609756D01*
X55603068Y5614433D01*
X55417937Y5671740D01*
X55406130Y5674164D01*
X55213395Y5694421D01*
X55201329Y5694506D01*
X55008340Y5676943D01*
X54996477Y5674680D01*
X54810575Y5619966D01*
X54799386Y5615445D01*
X54627648Y5525662D01*
X54617553Y5519056D01*
X54565022Y5476820D01*
X54556689Y5464846D01*
X53536372Y5464846D01*
X53393949Y5596501D01*
X53368332Y5612664D01*
X53212159Y5711202D01*
X53212157Y5711203D01*
X53207350Y5714236D01*
X53002421Y5795994D01*
X52996840Y5797104D01*
X52996837Y5797105D01*
X52878497Y5820644D01*
X52786024Y5839038D01*
X52780337Y5839112D01*
X52780332Y5839113D01*
X52571095Y5841852D01*
X52571090Y5841852D01*
X52565406Y5841926D01*
X52559802Y5840963D01*
X52559801Y5840963D01*
X52353560Y5805525D01*
X52353557Y5805524D01*
X52347957Y5804562D01*
X52140957Y5728196D01*
X52079332Y5691533D01*
X52014800Y5653140D01*
X51951341Y5615386D01*
X51785457Y5469910D01*
X51648863Y5296640D01*
X51646216Y5291609D01*
X51637548Y5275133D01*
X51546131Y5101380D01*
X51544444Y5095947D01*
X51508429Y4979960D01*
X51469750Y4921774D01*
X51405753Y4893736D01*
X51336757Y4904748D01*
X51284667Y4951315D01*
X51270662Y4983074D01*
X51255663Y5036260D01*
X51245565Y5072064D01*
X51147980Y5269947D01*
X51015967Y5446733D01*
X50853949Y5596501D01*
X50828332Y5612664D01*
X50672159Y5711202D01*
X50672157Y5711203D01*
X50667350Y5714236D01*
X50462421Y5795994D01*
X50456840Y5797104D01*
X50456837Y5797105D01*
X50338497Y5820644D01*
X50246024Y5839038D01*
X50240337Y5839112D01*
X50240332Y5839113D01*
X50031095Y5841852D01*
X50031090Y5841852D01*
X50025406Y5841926D01*
X50019802Y5840963D01*
X50019801Y5840963D01*
X49813560Y5805525D01*
X49813557Y5805524D01*
X49807957Y5804562D01*
X49600957Y5728196D01*
X49539332Y5691533D01*
X49474800Y5653140D01*
X49411341Y5615386D01*
X49245457Y5469910D01*
X49108863Y5296640D01*
X49106216Y5291609D01*
X49097548Y5275133D01*
X49006131Y5101380D01*
X49004444Y5095947D01*
X48968429Y4979960D01*
X48929750Y4921774D01*
X48865753Y4893736D01*
X48796757Y4904748D01*
X48744667Y4951315D01*
X48730662Y4983074D01*
X48715663Y5036260D01*
X48705565Y5072064D01*
X48607980Y5269947D01*
X48475967Y5446733D01*
X48313949Y5596501D01*
X48288332Y5612664D01*
X48132159Y5711202D01*
X48132157Y5711203D01*
X48127350Y5714236D01*
X47922421Y5795994D01*
X47916840Y5797104D01*
X47916837Y5797105D01*
X47798497Y5820644D01*
X47706024Y5839038D01*
X47700337Y5839112D01*
X47700332Y5839113D01*
X47491095Y5841852D01*
X47491090Y5841852D01*
X47485406Y5841926D01*
X47479802Y5840963D01*
X47479801Y5840963D01*
X47273560Y5805525D01*
X47273557Y5805524D01*
X47267957Y5804562D01*
X47060957Y5728196D01*
X46999332Y5691533D01*
X46934800Y5653140D01*
X46871341Y5615386D01*
X46705457Y5469910D01*
X46568863Y5296640D01*
X46566216Y5291609D01*
X46557548Y5275133D01*
X46466131Y5101380D01*
X46464444Y5095947D01*
X46428429Y4979960D01*
X46389750Y4921774D01*
X46325753Y4893736D01*
X46256757Y4904748D01*
X46204667Y4951315D01*
X46190662Y4983074D01*
X46175663Y5036260D01*
X46165565Y5072064D01*
X46067980Y5269947D01*
X45935967Y5446733D01*
X45773949Y5596501D01*
X45748332Y5612664D01*
X45592159Y5711202D01*
X45592157Y5711203D01*
X45587350Y5714236D01*
X45382421Y5795994D01*
X45376840Y5797104D01*
X45376837Y5797105D01*
X45258497Y5820644D01*
X45166024Y5839038D01*
X45160337Y5839112D01*
X45160332Y5839113D01*
X44951095Y5841852D01*
X44951090Y5841852D01*
X44945406Y5841926D01*
X44939802Y5840963D01*
X44939801Y5840963D01*
X44733560Y5805525D01*
X44733557Y5805524D01*
X44727957Y5804562D01*
X44520957Y5728196D01*
X44459332Y5691533D01*
X44394800Y5653140D01*
X44331341Y5615386D01*
X44165457Y5469910D01*
X44028863Y5296640D01*
X44026216Y5291609D01*
X44017548Y5275133D01*
X43926131Y5101380D01*
X43924444Y5095947D01*
X43888429Y4979960D01*
X43849750Y4921774D01*
X43785753Y4893736D01*
X43716757Y4904748D01*
X43664667Y4951315D01*
X43650662Y4983074D01*
X43635663Y5036260D01*
X43625565Y5072064D01*
X43527980Y5269947D01*
X43395967Y5446733D01*
X43233949Y5596501D01*
X43208332Y5612664D01*
X43052159Y5711202D01*
X43052157Y5711203D01*
X43047350Y5714236D01*
X42842421Y5795994D01*
X42836840Y5797104D01*
X42836837Y5797105D01*
X42718497Y5820644D01*
X42626024Y5839038D01*
X42620337Y5839112D01*
X42620332Y5839113D01*
X42411095Y5841852D01*
X42411090Y5841852D01*
X42405406Y5841926D01*
X42399802Y5840963D01*
X42399801Y5840963D01*
X42193560Y5805525D01*
X42193557Y5805524D01*
X42187957Y5804562D01*
X41980957Y5728196D01*
X41919332Y5691533D01*
X41854800Y5653140D01*
X41791341Y5615386D01*
X41625457Y5469910D01*
X41488863Y5296640D01*
X41486216Y5291609D01*
X41477548Y5275133D01*
X41386131Y5101380D01*
X41384444Y5095947D01*
X41348429Y4979960D01*
X41309750Y4921774D01*
X41245753Y4893736D01*
X41176757Y4904748D01*
X41124667Y4951315D01*
X41110662Y4983074D01*
X41095663Y5036260D01*
X41085565Y5072064D01*
X40987980Y5269947D01*
X40855967Y5446733D01*
X40693949Y5596501D01*
X40668332Y5612664D01*
X40512159Y5711202D01*
X40512157Y5711203D01*
X40507350Y5714236D01*
X40302421Y5795994D01*
X40296840Y5797104D01*
X40296837Y5797105D01*
X40178497Y5820644D01*
X40086024Y5839038D01*
X40080337Y5839112D01*
X40080332Y5839113D01*
X39871095Y5841852D01*
X39871090Y5841852D01*
X39865406Y5841926D01*
X39859802Y5840963D01*
X39859801Y5840963D01*
X39653560Y5805525D01*
X39653557Y5805524D01*
X39647957Y5804562D01*
X39440957Y5728196D01*
X39379332Y5691533D01*
X39314800Y5653140D01*
X39251341Y5615386D01*
X39085457Y5469910D01*
X38948863Y5296640D01*
X38946216Y5291609D01*
X38937548Y5275133D01*
X38846131Y5101380D01*
X38844444Y5095947D01*
X38808429Y4979960D01*
X38769750Y4921774D01*
X38705753Y4893736D01*
X38636757Y4904748D01*
X38584667Y4951315D01*
X38570662Y4983074D01*
X38555663Y5036260D01*
X38545565Y5072064D01*
X38447980Y5269947D01*
X38315967Y5446733D01*
X38153949Y5596501D01*
X38128332Y5612664D01*
X37972159Y5711202D01*
X37972157Y5711203D01*
X37967350Y5714236D01*
X37762421Y5795994D01*
X37756840Y5797104D01*
X37756837Y5797105D01*
X37638497Y5820644D01*
X37546024Y5839038D01*
X37540337Y5839112D01*
X37540332Y5839113D01*
X37331095Y5841852D01*
X37331090Y5841852D01*
X37325406Y5841926D01*
X37319802Y5840963D01*
X37319801Y5840963D01*
X37113560Y5805525D01*
X37113557Y5805524D01*
X37107957Y5804562D01*
X36900957Y5728196D01*
X36839332Y5691533D01*
X36774800Y5653140D01*
X36711341Y5615386D01*
X36545457Y5469910D01*
X36408863Y5296640D01*
X36406216Y5291609D01*
X36397548Y5275133D01*
X36306131Y5101380D01*
X36304444Y5095947D01*
X36268429Y4979960D01*
X36229750Y4921774D01*
X36165753Y4893736D01*
X36096757Y4904748D01*
X36044667Y4951315D01*
X36030662Y4983074D01*
X36015663Y5036260D01*
X36005565Y5072064D01*
X35907980Y5269947D01*
X35775967Y5446733D01*
X35613949Y5596501D01*
X35588332Y5612664D01*
X35432159Y5711202D01*
X35432157Y5711203D01*
X35427350Y5714236D01*
X35222421Y5795994D01*
X35216840Y5797104D01*
X35216837Y5797105D01*
X35098497Y5820644D01*
X35006024Y5839038D01*
X35000337Y5839112D01*
X35000332Y5839113D01*
X34791095Y5841852D01*
X34791090Y5841852D01*
X34785406Y5841926D01*
X34779802Y5840963D01*
X34779801Y5840963D01*
X34573560Y5805525D01*
X34573557Y5805524D01*
X34567957Y5804562D01*
X34360957Y5728196D01*
X34299332Y5691533D01*
X34234800Y5653140D01*
X34171341Y5615386D01*
X34005457Y5469910D01*
X33868863Y5296640D01*
X33866216Y5291609D01*
X33857548Y5275133D01*
X33766131Y5101380D01*
X33764444Y5095947D01*
X33728429Y4979960D01*
X33689750Y4921774D01*
X33625753Y4893736D01*
X33556757Y4904748D01*
X33504667Y4951315D01*
X33490662Y4983074D01*
X33475663Y5036260D01*
X33465565Y5072064D01*
X33367980Y5269947D01*
X33235967Y5446733D01*
X33073949Y5596501D01*
X33048332Y5612664D01*
X32998332Y5644212D01*
X32952139Y5696633D01*
X32940500Y5749082D01*
X32940500Y11070000D01*
X53844540Y11070000D01*
X53864326Y10881744D01*
X53922821Y10701716D01*
X54017467Y10537784D01*
X54021813Y10532957D01*
X54021814Y10532956D01*
X54055824Y10495184D01*
X54144129Y10397112D01*
X54297270Y10285849D01*
X54470197Y10208856D01*
X54538637Y10194309D01*
X54648991Y10170852D01*
X54648996Y10170852D01*
X54655354Y10169500D01*
X54679192Y10169500D01*
X54746231Y10149815D01*
X54766873Y10133181D01*
X55372701Y9527353D01*
X55380564Y9518712D01*
X55380618Y9518647D01*
X55384798Y9512060D01*
X55390482Y9506722D01*
X55390484Y9506720D01*
X55435833Y9464135D01*
X55438630Y9461424D01*
X55458965Y9441089D01*
X55462037Y9438706D01*
X55462442Y9438392D01*
X55471325Y9430805D01*
X55504607Y9399552D01*
X55511433Y9395800D01*
X55511439Y9395795D01*
X55523207Y9389326D01*
X55539469Y9378643D01*
X55550071Y9370419D01*
X55550077Y9370415D01*
X55556236Y9365638D01*
X55579820Y9355432D01*
X55598131Y9347508D01*
X55608621Y9342369D01*
X55638253Y9326079D01*
X55648632Y9320373D01*
X55667525Y9315522D01*
X55669192Y9315094D01*
X55687594Y9308794D01*
X55707073Y9300365D01*
X55714775Y9299145D01*
X55752155Y9293224D01*
X55763590Y9290856D01*
X55800270Y9281439D01*
X55800271Y9281439D01*
X55807823Y9279500D01*
X55829051Y9279500D01*
X55848449Y9277973D01*
X55869404Y9274654D01*
X55877170Y9275388D01*
X55877172Y9275388D01*
X55914852Y9278950D01*
X55926521Y9279500D01*
X59958927Y9279500D01*
X59970596Y9278950D01*
X59970682Y9278942D01*
X59978296Y9277240D01*
X59986093Y9277485D01*
X59986094Y9277485D01*
X60048262Y9279439D01*
X60052157Y9279500D01*
X60080925Y9279500D01*
X60085302Y9280053D01*
X60096936Y9280968D01*
X60142569Y9282403D01*
X60150061Y9284580D01*
X60150063Y9284580D01*
X60162945Y9288323D01*
X60181992Y9292268D01*
X60203058Y9294929D01*
X60210309Y9297800D01*
X60210317Y9297802D01*
X60245508Y9311736D01*
X60256558Y9315520D01*
X60300398Y9328256D01*
X60307118Y9332230D01*
X60318670Y9339061D01*
X60336137Y9347619D01*
X60355871Y9355432D01*
X60392801Y9382263D01*
X60402565Y9388677D01*
X60429976Y9404888D01*
X60441865Y9411919D01*
X60456872Y9426926D01*
X60471668Y9439563D01*
X60477556Y9443841D01*
X60488837Y9452037D01*
X60517937Y9487213D01*
X60525800Y9495854D01*
X61023538Y9993592D01*
X61084861Y10027077D01*
X61154553Y10022093D01*
X61168948Y10015653D01*
X61320026Y9936167D01*
X61324367Y9934651D01*
X61324374Y9934648D01*
X61474870Y9882093D01*
X61558644Y9852838D01*
X61563163Y9851980D01*
X61563167Y9851979D01*
X61802443Y9806551D01*
X61802446Y9806551D01*
X61806958Y9805694D01*
X61811548Y9805514D01*
X61811554Y9805513D01*
X62054905Y9795952D01*
X62054906Y9795952D01*
X62059513Y9795771D01*
X62303136Y9822452D01*
X62306186Y9822786D01*
X62306187Y9822786D01*
X62310760Y9823287D01*
X62315208Y9824458D01*
X62550739Y9886467D01*
X62550746Y9886469D01*
X62555181Y9887637D01*
X62787405Y9987409D01*
X62851508Y10027077D01*
X62998415Y10117985D01*
X62998422Y10117990D01*
X63002331Y10120409D01*
X63157028Y10251370D01*
X63191724Y10280742D01*
X63191725Y10280743D01*
X63195238Y10283717D01*
X63361888Y10473744D01*
X63498619Y10686316D01*
X63508824Y10708969D01*
X63600541Y10912575D01*
X63602428Y10916764D01*
X63671034Y11160024D01*
X63702931Y11410753D01*
X63704660Y11476795D01*
X63705187Y11496900D01*
X63705187Y11496904D01*
X63705268Y11500000D01*
X63701610Y11549225D01*
X63686879Y11747458D01*
X63686878Y11747463D01*
X63686537Y11752055D01*
X63646612Y11928498D01*
X63631774Y11994075D01*
X63631772Y11994080D01*
X63630756Y11998572D01*
X63539150Y12234137D01*
X63520108Y12267455D01*
X63416011Y12449585D01*
X63416010Y12449586D01*
X63413731Y12453574D01*
X63257255Y12652062D01*
X63241222Y12667145D01*
X63076512Y12822089D01*
X63076510Y12822091D01*
X63073160Y12825242D01*
X63029678Y12855407D01*
X62989363Y12883374D01*
X62865489Y12969309D01*
X62861370Y12971340D01*
X62861367Y12971342D01*
X62642934Y13079061D01*
X62642932Y13079062D01*
X62638805Y13081097D01*
X62634424Y13082499D01*
X62634420Y13082501D01*
X62511646Y13121801D01*
X62398087Y13158151D01*
X62148624Y13198779D01*
X62027120Y13200369D01*
X61900506Y13202027D01*
X61900501Y13202027D01*
X61895896Y13202087D01*
X61791195Y13187838D01*
X61650022Y13168626D01*
X61650016Y13168625D01*
X61645455Y13168004D01*
X61641034Y13166716D01*
X61641032Y13166715D01*
X61545177Y13138775D01*
X61402803Y13097277D01*
X61398635Y13095355D01*
X61398631Y13095354D01*
X61265191Y13033837D01*
X61173270Y12991461D01*
X61169419Y12988936D01*
X61169415Y12988934D01*
X61135486Y12966689D01*
X60961899Y12852880D01*
X60773333Y12684579D01*
X60770393Y12681044D01*
X60770391Y12681042D01*
X60758833Y12667145D01*
X60611715Y12490254D01*
X60480595Y12274175D01*
X60478817Y12269935D01*
X60478814Y12269929D01*
X60462008Y12229851D01*
X60382854Y12041089D01*
X60320639Y11796117D01*
X60295316Y11544639D01*
X60295537Y11540037D01*
X60295537Y11540035D01*
X60304774Y11347752D01*
X60307443Y11292180D01*
X60308340Y11287673D01*
X60308340Y11287669D01*
X60323512Y11211394D01*
X60317285Y11141802D01*
X60289576Y11099522D01*
X59806873Y10616819D01*
X59745550Y10583334D01*
X59719192Y10580500D01*
X56210808Y10580500D01*
X56143769Y10600185D01*
X56123127Y10616819D01*
X55684809Y11055137D01*
X55651324Y11116460D01*
X55649169Y11129857D01*
X55647432Y11146389D01*
X55635674Y11258256D01*
X55577179Y11438284D01*
X55482533Y11602216D01*
X55355871Y11742888D01*
X55202730Y11854151D01*
X55029803Y11931144D01*
X54961363Y11945691D01*
X54851009Y11969148D01*
X54851004Y11969148D01*
X54844646Y11970500D01*
X54655354Y11970500D01*
X54648996Y11969148D01*
X54648991Y11969148D01*
X54538637Y11945691D01*
X54470197Y11931144D01*
X54297270Y11854151D01*
X54144129Y11742888D01*
X54017467Y11602216D01*
X53922821Y11438284D01*
X53864326Y11258256D01*
X53844540Y11070000D01*
X32940500Y11070000D01*
X32940500Y15239903D01*
X32960185Y15306942D01*
X32976819Y15327584D01*
X34202416Y16553181D01*
X34263739Y16586666D01*
X34290097Y16589500D01*
X35383741Y16589500D01*
X35450780Y16569815D01*
X35475890Y16548473D01*
X35499777Y16521945D01*
X35504129Y16517112D01*
X35657270Y16405849D01*
X35830197Y16328856D01*
X35891645Y16315795D01*
X36008991Y16290852D01*
X36008996Y16290852D01*
X36015354Y16289500D01*
X36204646Y16289500D01*
X36211004Y16290852D01*
X36211009Y16290852D01*
X36328355Y16315795D01*
X36389803Y16328856D01*
X36562730Y16405849D01*
X36692318Y16500000D01*
X53874540Y16500000D01*
X53894326Y16311744D01*
X53952821Y16131716D01*
X54047467Y15967784D01*
X54051813Y15962957D01*
X54051814Y15962956D01*
X54166728Y15835332D01*
X54174129Y15827112D01*
X54327270Y15715849D01*
X54333206Y15713206D01*
X54333208Y15713205D01*
X54385221Y15690047D01*
X54500197Y15638856D01*
X54568637Y15624309D01*
X54678991Y15600852D01*
X54678996Y15600852D01*
X54685354Y15599500D01*
X54874646Y15599500D01*
X54881004Y15600852D01*
X54881009Y15600852D01*
X54991363Y15624309D01*
X55059803Y15638856D01*
X55174779Y15690047D01*
X55226792Y15713205D01*
X55226794Y15713206D01*
X55232730Y15715849D01*
X55385871Y15827112D01*
X55393272Y15835332D01*
X55508186Y15962956D01*
X55508187Y15962957D01*
X55512533Y15967784D01*
X55607179Y16131716D01*
X55665674Y16311744D01*
X55679169Y16440143D01*
X55705753Y16504758D01*
X55714809Y16514863D01*
X56193127Y16993181D01*
X56254450Y17026666D01*
X56280808Y17029500D01*
X57689192Y17029500D01*
X57756231Y17009815D01*
X57776873Y16993181D01*
X58322701Y16447353D01*
X58330564Y16438712D01*
X58330618Y16438647D01*
X58334798Y16432060D01*
X58340482Y16426722D01*
X58340484Y16426720D01*
X58385833Y16384135D01*
X58388630Y16381424D01*
X58408965Y16361089D01*
X58412037Y16358706D01*
X58412442Y16358392D01*
X58421325Y16350805D01*
X58454607Y16319552D01*
X58461433Y16315800D01*
X58461439Y16315795D01*
X58473207Y16309326D01*
X58489469Y16298643D01*
X58500071Y16290419D01*
X58500077Y16290415D01*
X58506236Y16285638D01*
X58513393Y16282541D01*
X58548131Y16267508D01*
X58558621Y16262369D01*
X58598632Y16240373D01*
X58619192Y16235094D01*
X58637594Y16228794D01*
X58657073Y16220365D01*
X58664776Y16219145D01*
X58664783Y16219143D01*
X58702161Y16213223D01*
X58713602Y16210854D01*
X58750265Y16201440D01*
X58750270Y16201439D01*
X58757823Y16199500D01*
X58779052Y16199500D01*
X58798450Y16197973D01*
X58819405Y16194654D01*
X58827171Y16195388D01*
X58827174Y16195388D01*
X58864853Y16198950D01*
X58876522Y16199500D01*
X60175501Y16199500D01*
X60242540Y16179815D01*
X60288295Y16127011D01*
X60299501Y16075500D01*
X60299501Y15288782D01*
X60309969Y15202268D01*
X60312903Y15194859D01*
X60312903Y15194857D01*
X60353192Y15093100D01*
X60363475Y15067127D01*
X60451353Y14951353D01*
X60567127Y14863475D01*
X60574988Y14860363D01*
X60574989Y14860362D01*
X60694862Y14812901D01*
X60694864Y14812901D01*
X60702268Y14809969D01*
X60710172Y14809013D01*
X60710174Y14809012D01*
X60760729Y14802895D01*
X60788781Y14799500D01*
X61999675Y14799500D01*
X63211218Y14799501D01*
X63214919Y14799949D01*
X63214922Y14799949D01*
X63240727Y14803071D01*
X63297732Y14809969D01*
X63305141Y14812903D01*
X63305143Y14812903D01*
X63425011Y14860362D01*
X63425012Y14860363D01*
X63432873Y14863475D01*
X63548647Y14951353D01*
X63636525Y15067127D01*
X63644421Y15087070D01*
X63687099Y15194862D01*
X63687099Y15194864D01*
X63690031Y15202268D01*
X63690989Y15210180D01*
X63700052Y15285080D01*
X63700500Y15288781D01*
X63700499Y17711218D01*
X63690031Y17797732D01*
X63675655Y17834041D01*
X63639638Y17925011D01*
X63639637Y17925012D01*
X63636525Y17932873D01*
X63608094Y17970330D01*
X63553757Y18041915D01*
X63548647Y18048647D01*
X63503854Y18082647D01*
X63439608Y18131413D01*
X63439607Y18131414D01*
X63432873Y18136525D01*
X63425012Y18139637D01*
X63425011Y18139638D01*
X63305138Y18187099D01*
X63305136Y18187099D01*
X63297732Y18190031D01*
X63289828Y18190987D01*
X63289826Y18190988D01*
X63231209Y18198081D01*
X63211219Y18200500D01*
X62000325Y18200500D01*
X60788782Y18200499D01*
X60785081Y18200051D01*
X60785078Y18200051D01*
X60768798Y18198081D01*
X60702268Y18190031D01*
X60694859Y18187097D01*
X60694857Y18187097D01*
X60574989Y18139638D01*
X60574988Y18139637D01*
X60567127Y18136525D01*
X60560393Y18131414D01*
X60560392Y18131413D01*
X60496146Y18082647D01*
X60451353Y18048647D01*
X60446243Y18041915D01*
X60391907Y17970330D01*
X60363475Y17932873D01*
X60360363Y17925012D01*
X60360362Y17925011D01*
X60324345Y17834041D01*
X60309969Y17797732D01*
X60309013Y17789828D01*
X60309012Y17789826D01*
X60306847Y17771934D01*
X60299500Y17711219D01*
X60299500Y17624500D01*
X60279815Y17557461D01*
X60227011Y17511706D01*
X60175500Y17500500D01*
X59160808Y17500500D01*
X59093769Y17520185D01*
X59073127Y17536819D01*
X58527299Y18082647D01*
X58519436Y18091288D01*
X58519382Y18091353D01*
X58515202Y18097940D01*
X58509518Y18103278D01*
X58509516Y18103280D01*
X58464167Y18145865D01*
X58461370Y18148576D01*
X58441035Y18168911D01*
X58437556Y18171609D01*
X58428672Y18179197D01*
X58395393Y18210448D01*
X58388567Y18214200D01*
X58388561Y18214205D01*
X58376793Y18220674D01*
X58360531Y18231357D01*
X58349935Y18239576D01*
X58349931Y18239579D01*
X58343764Y18244362D01*
X58301871Y18262491D01*
X58291378Y18267631D01*
X58258202Y18285870D01*
X58251368Y18289627D01*
X58243819Y18291565D01*
X58243812Y18291568D01*
X58230802Y18294908D01*
X58212398Y18301209D01*
X58192926Y18309635D01*
X58185223Y18310855D01*
X58185220Y18310856D01*
X58147837Y18316777D01*
X58136399Y18319146D01*
X58102529Y18327842D01*
X58092177Y18330500D01*
X58070954Y18330500D01*
X58051555Y18332027D01*
X58030595Y18335347D01*
X58022830Y18334613D01*
X58022828Y18334613D01*
X57985140Y18331050D01*
X57973470Y18330500D01*
X56041073Y18330500D01*
X56029404Y18331050D01*
X56029318Y18331058D01*
X56021704Y18332760D01*
X56013907Y18332515D01*
X56013906Y18332515D01*
X55951738Y18330561D01*
X55947843Y18330500D01*
X55919075Y18330500D01*
X55914698Y18329947D01*
X55903064Y18329032D01*
X55857431Y18327597D01*
X55849939Y18325420D01*
X55849937Y18325420D01*
X55837055Y18321677D01*
X55818008Y18317732D01*
X55796942Y18315071D01*
X55789691Y18312200D01*
X55789683Y18312198D01*
X55754492Y18298264D01*
X55743442Y18294480D01*
X55699602Y18281744D01*
X55692883Y18277770D01*
X55692882Y18277770D01*
X55681330Y18270939D01*
X55663863Y18262381D01*
X55644129Y18254568D01*
X55630082Y18244362D01*
X55607199Y18227737D01*
X55597435Y18221323D01*
X55558135Y18198081D01*
X55543128Y18183074D01*
X55528332Y18170437D01*
X55511163Y18157963D01*
X55493428Y18136525D01*
X55482063Y18122787D01*
X55474200Y18114146D01*
X54796873Y17436819D01*
X54735550Y17403334D01*
X54709192Y17400500D01*
X54685354Y17400500D01*
X54678996Y17399148D01*
X54678991Y17399148D01*
X54609773Y17384435D01*
X54500197Y17361144D01*
X54441608Y17335058D01*
X54361111Y17299218D01*
X54327270Y17284151D01*
X54322010Y17280330D01*
X54322011Y17280330D01*
X54210100Y17199022D01*
X54174129Y17172888D01*
X54047467Y17032216D01*
X53952821Y16868284D01*
X53894326Y16688256D01*
X53874540Y16500000D01*
X36692318Y16500000D01*
X36715871Y16517112D01*
X36842533Y16657784D01*
X36899408Y16756295D01*
X36933931Y16816090D01*
X36933932Y16816091D01*
X36937179Y16821716D01*
X36995674Y17001744D01*
X37015460Y17190000D01*
X36995674Y17378256D01*
X36937179Y17558284D01*
X36842533Y17722216D01*
X36767870Y17805138D01*
X36720220Y17858058D01*
X36715871Y17862888D01*
X36562730Y17974151D01*
X36389803Y18051144D01*
X36321363Y18065691D01*
X36211009Y18089148D01*
X36211004Y18089148D01*
X36204646Y18090500D01*
X36015354Y18090500D01*
X36008996Y18089148D01*
X36008991Y18089148D01*
X35898637Y18065691D01*
X35830197Y18051144D01*
X35657270Y17974151D01*
X35504129Y17862888D01*
X35499780Y17858058D01*
X35499777Y17858055D01*
X35475890Y17831527D01*
X35416403Y17794879D01*
X35383741Y17790500D01*
X34037487Y17790500D01*
X34021302Y17791561D01*
X33998059Y17794621D01*
X33990000Y17795682D01*
X33950639Y17790500D01*
X33833238Y17775044D01*
X33825731Y17771935D01*
X33825729Y17771934D01*
X33717356Y17727044D01*
X33687159Y17714536D01*
X33561718Y17618282D01*
X33556771Y17611835D01*
X33542495Y17593230D01*
X33531800Y17581035D01*
X31948965Y15998200D01*
X31936770Y15987505D01*
X31911718Y15968282D01*
X31846350Y15883092D01*
X31815464Y15842841D01*
X31754956Y15696762D01*
X31734318Y15540000D01*
X31735379Y15531941D01*
X31738439Y15508698D01*
X31739500Y15492513D01*
X31739500Y11590843D01*
X31719815Y11523804D01*
X31667011Y11478049D01*
X31597853Y11468105D01*
X31565064Y11477564D01*
X31563975Y11478049D01*
X31399803Y11551144D01*
X31331363Y11565691D01*
X31221009Y11589148D01*
X31221004Y11589148D01*
X31214646Y11590500D01*
X31025354Y11590500D01*
X31018996Y11589148D01*
X31018991Y11589148D01*
X30908637Y11565691D01*
X30840197Y11551144D01*
X30732285Y11503098D01*
X30674936Y11477564D01*
X30667270Y11474151D01*
X30514129Y11362888D01*
X30387467Y11222216D01*
X30292821Y11058284D01*
X30234326Y10878256D01*
X30214540Y10690000D01*
X30215043Y10685216D01*
X30195534Y10618777D01*
X30178900Y10598135D01*
X29408965Y9828200D01*
X29396770Y9817505D01*
X29381378Y9805694D01*
X29371718Y9798282D01*
X29366771Y9791835D01*
X29349496Y9769322D01*
X29324687Y9736990D01*
X29275464Y9672841D01*
X29273790Y9674125D01*
X29231325Y9633631D01*
X29162718Y9620405D01*
X29097853Y9646370D01*
X29057322Y9703282D01*
X29050500Y9743844D01*
X29050500Y10390602D01*
X29050609Y10395794D01*
X29052733Y10446471D01*
X29053087Y10454919D01*
X29043643Y10495184D01*
X29041513Y10506674D01*
X29037048Y10539275D01*
X29037047Y10539277D01*
X29035901Y10547646D01*
X29032546Y10555398D01*
X29032545Y10555403D01*
X29030334Y10560512D01*
X29023413Y10581440D01*
X29022142Y10586860D01*
X29022139Y10586867D01*
X29020210Y10595093D01*
X29016140Y10602497D01*
X29016137Y10602504D01*
X29000281Y10631346D01*
X28995142Y10641836D01*
X28982078Y10672025D01*
X28982076Y10672029D01*
X28978720Y10679783D01*
X28973404Y10686348D01*
X28973398Y10686358D01*
X28969894Y10690685D01*
X28957607Y10708969D01*
X28953980Y10715565D01*
X28953978Y10715567D01*
X28950847Y10721263D01*
X28944164Y10729005D01*
X28920879Y10752290D01*
X28912194Y10761936D01*
X28893433Y10785104D01*
X28888112Y10791675D01*
X28881224Y10796570D01*
X28881222Y10796572D01*
X28873724Y10801900D01*
X28857874Y10815295D01*
X24001819Y15671350D01*
X23968334Y15732673D01*
X23965500Y15759031D01*
X23965500Y24605602D01*
X23965609Y24610794D01*
X23967733Y24661471D01*
X23968087Y24669919D01*
X23958644Y24710182D01*
X23956515Y24721666D01*
X23952048Y24754273D01*
X23950901Y24762646D01*
X23945334Y24775511D01*
X23938410Y24796446D01*
X23937140Y24801860D01*
X23935209Y24810093D01*
X23915286Y24846333D01*
X23910149Y24856820D01*
X23897079Y24887023D01*
X23897076Y24887028D01*
X23893720Y24894783D01*
X23884898Y24905677D01*
X23872604Y24923973D01*
X23868979Y24930566D01*
X23868978Y24930567D01*
X23865847Y24936263D01*
X23859164Y24944005D01*
X23835879Y24967290D01*
X23827194Y24976936D01*
X23808433Y25000104D01*
X23803112Y25006675D01*
X23796224Y25011570D01*
X23796222Y25011572D01*
X23788724Y25016900D01*
X23772874Y25030295D01*
X20511744Y28291425D01*
X20478259Y28352748D01*
X20475437Y28380838D01*
X20475511Y28386102D01*
X20475511Y28386109D01*
X20475565Y28390000D01*
X20455546Y28568472D01*
X20396485Y28738073D01*
X20301316Y28890375D01*
X20174770Y29017807D01*
X20023136Y29114037D01*
X20003219Y29121129D01*
X19860479Y29171957D01*
X19860475Y29171958D01*
X19853951Y29174281D01*
X19675624Y29195545D01*
X19668735Y29194821D01*
X19668732Y29194821D01*
X19503913Y29177498D01*
X19503911Y29177498D01*
X19497017Y29176773D01*
X19490456Y29174539D01*
X19490454Y29174539D01*
X19403718Y29145011D01*
X19327007Y29118897D01*
X19174045Y29024794D01*
X19045732Y28899141D01*
X18948446Y28748183D01*
X18887022Y28579422D01*
X18864514Y28401247D01*
X18882039Y28222514D01*
X18938726Y28052104D01*
X19031759Y27898488D01*
X19156514Y27769301D01*
X19162308Y27765510D01*
X19162311Y27765507D01*
X19258213Y27702751D01*
X19306789Y27670964D01*
X19475116Y27608364D01*
X19653130Y27584612D01*
X19660031Y27585240D01*
X19660032Y27585240D01*
X19662246Y27585442D01*
X19667776Y27585945D01*
X19736322Y27572418D01*
X19766695Y27550136D01*
X22878181Y24438650D01*
X22911666Y24377327D01*
X22914500Y24350969D01*
X22914500Y23397315D01*
X22894815Y23330276D01*
X22842011Y23284521D01*
X22772853Y23274577D01*
X22709297Y23303602D01*
X22702514Y23309940D01*
X22689658Y23322885D01*
X22689657Y23322886D01*
X22684770Y23327807D01*
X22554747Y23410322D01*
X22538990Y23420322D01*
X22533136Y23424037D01*
X22513219Y23431129D01*
X22370479Y23481957D01*
X22370475Y23481958D01*
X22363951Y23484281D01*
X22185624Y23505545D01*
X22178735Y23504821D01*
X22178732Y23504821D01*
X22013913Y23487498D01*
X22013911Y23487498D01*
X22007017Y23486773D01*
X22000456Y23484539D01*
X22000454Y23484539D01*
X21963495Y23471957D01*
X21837007Y23428897D01*
X21684045Y23334794D01*
X21621884Y23273921D01*
X21560214Y23241081D01*
X21490579Y23246794D01*
X21447139Y23275142D01*
X21409658Y23312886D01*
X21409652Y23312891D01*
X21404770Y23317807D01*
X21253136Y23414037D01*
X21218518Y23426364D01*
X21090479Y23471957D01*
X21090475Y23471958D01*
X21083951Y23474281D01*
X20905624Y23495545D01*
X20898735Y23494821D01*
X20898732Y23494821D01*
X20733913Y23477498D01*
X20733911Y23477498D01*
X20727017Y23476773D01*
X20720456Y23474539D01*
X20720454Y23474539D01*
X20633718Y23445011D01*
X20557007Y23418897D01*
X20551105Y23415266D01*
X20420300Y23334794D01*
X20404045Y23324794D01*
X20275732Y23199141D01*
X20178446Y23048183D01*
X20117022Y22879422D01*
X20094514Y22701247D01*
X20112039Y22522514D01*
X20168726Y22352104D01*
X20172319Y22346171D01*
X20172320Y22346169D01*
X20255442Y22208918D01*
X20261759Y22198488D01*
X20266573Y22193503D01*
X20339698Y22117780D01*
X20372108Y22055882D01*
X20374500Y22031642D01*
X20374500Y5820644D01*
X20354815Y5753605D01*
X20302011Y5707850D01*
X20232853Y5697906D01*
X20194207Y5710158D01*
X20192161Y5711200D01*
X20187350Y5714236D01*
X20179084Y5717534D01*
X20088670Y5753605D01*
X19982421Y5795994D01*
X19976840Y5797104D01*
X19976837Y5797105D01*
X19858497Y5820644D01*
X19766024Y5839038D01*
X19760337Y5839112D01*
X19760332Y5839113D01*
X19551095Y5841852D01*
X19551090Y5841852D01*
X19545406Y5841926D01*
X19539802Y5840963D01*
X19539801Y5840963D01*
X19333560Y5805525D01*
X19333557Y5805524D01*
X19327957Y5804562D01*
X19120957Y5728196D01*
X19059332Y5691533D01*
X18994800Y5653140D01*
X18931341Y5615386D01*
X18765457Y5469910D01*
X18628863Y5296640D01*
X18626216Y5291609D01*
X18617548Y5275133D01*
X18526131Y5101380D01*
X18524444Y5095947D01*
X18488429Y4979960D01*
X18449750Y4921774D01*
X18385753Y4893736D01*
X18316757Y4904748D01*
X18264667Y4951315D01*
X18250662Y4983074D01*
X18235663Y5036260D01*
X18225565Y5072064D01*
X18127980Y5269947D01*
X17995967Y5446733D01*
X17833949Y5596501D01*
X17805529Y5614433D01*
X17710860Y5674164D01*
X17683332Y5691533D01*
X17637139Y5743954D01*
X17625500Y5796403D01*
X17625500Y32801818D01*
X17645185Y32868857D01*
X17663987Y32891615D01*
X17712080Y32937413D01*
X17712082Y32937415D01*
X17717099Y32942193D01*
X17816483Y33091778D01*
X17828956Y33124612D01*
X17860840Y33208548D01*
X17880257Y33259664D01*
X17905251Y33437507D01*
X17905565Y33460000D01*
X17885546Y33638472D01*
X17826485Y33808073D01*
X17731316Y33960375D01*
X17639155Y34053181D01*
X17609653Y34082890D01*
X17609652Y34082891D01*
X17604770Y34087807D01*
X17453136Y34184037D01*
X17433219Y34191129D01*
X17290479Y34241957D01*
X17290475Y34241958D01*
X17283951Y34244281D01*
X17105624Y34265545D01*
X17098735Y34264821D01*
X17098732Y34264821D01*
X16933913Y34247498D01*
X16933911Y34247498D01*
X16927017Y34246773D01*
X16920456Y34244539D01*
X16920454Y34244539D01*
X16899798Y34237507D01*
X16757007Y34188897D01*
X16604045Y34094794D01*
X16475732Y33969141D01*
X16449005Y33927669D01*
X16383749Y33826411D01*
X16378446Y33818183D01*
X16369921Y33794760D01*
X16322551Y33664612D01*
X16317022Y33649422D01*
X16310613Y33598686D01*
X16297633Y33495934D01*
X16294514Y33471247D01*
X16312039Y33292514D01*
X16368726Y33122104D01*
X16372319Y33116171D01*
X16372320Y33116169D01*
X16458168Y32974417D01*
X16461759Y32968488D01*
X16466573Y32963503D01*
X16539698Y32887780D01*
X16572108Y32825882D01*
X16574500Y32801642D01*
X16574500Y17335058D01*
X16554815Y17268019D01*
X16502011Y17222264D01*
X16432853Y17212320D01*
X16369297Y17241345D01*
X16331792Y17299218D01*
X16313894Y17358498D01*
X16309484Y17373106D01*
X16305675Y17380271D01*
X16235789Y17511706D01*
X16217370Y17546347D01*
X16093361Y17698398D01*
X16004471Y17771934D01*
X15946856Y17819597D01*
X15946854Y17819598D01*
X15942180Y17823465D01*
X15769585Y17916787D01*
X15582152Y17974807D01*
X15387019Y17995317D01*
X15380986Y17994768D01*
X15380982Y17994768D01*
X15217278Y17979869D01*
X15191618Y17977534D01*
X15108217Y17952988D01*
X15009208Y17923848D01*
X15009203Y17923846D01*
X15003393Y17922136D01*
X14998023Y17919329D01*
X14998019Y17919327D01*
X14912256Y17874490D01*
X14829512Y17831233D01*
X14824789Y17827436D01*
X14824788Y17827435D01*
X14684370Y17714536D01*
X14676600Y17708289D01*
X14550480Y17557984D01*
X14455956Y17386046D01*
X14454124Y17380271D01*
X14422421Y17280330D01*
X14396628Y17199022D01*
X14394125Y17176709D01*
X14377287Y17026590D01*
X14374757Y17004037D01*
X14391175Y16808517D01*
X14445258Y16619909D01*
X14448030Y16614514D01*
X14448031Y16614513D01*
X14481971Y16548473D01*
X14534944Y16445399D01*
X14538709Y16440649D01*
X14538712Y16440644D01*
X14652678Y16296854D01*
X14678893Y16232088D01*
X14679500Y16219832D01*
X14679500Y13121518D01*
X14659815Y13054479D01*
X14643181Y13033837D01*
X12636162Y11026819D01*
X12574839Y10993334D01*
X12548481Y10990500D01*
X9208575Y10990500D01*
X9200140Y10990787D01*
X9196959Y10991004D01*
X9143070Y10994678D01*
X9112803Y10989395D01*
X9080841Y10983817D01*
X9074418Y10982868D01*
X9020641Y10976360D01*
X9011680Y10975276D01*
X9004688Y10972634D01*
X9002452Y10972085D01*
X8985610Y10967477D01*
X8983407Y10966812D01*
X8976046Y10965527D01*
X8969203Y10962523D01*
X8969199Y10962522D01*
X8918205Y10940137D01*
X8912195Y10937684D01*
X8860074Y10917989D01*
X8853077Y10915345D01*
X8846913Y10911109D01*
X8844867Y10910039D01*
X8829620Y10901552D01*
X8827644Y10900384D01*
X8820797Y10897378D01*
X8814866Y10892827D01*
X8770667Y10858912D01*
X8765416Y10855097D01*
X8719513Y10823549D01*
X8719510Y10823547D01*
X8713349Y10819312D01*
X8693088Y10796572D01*
X8672359Y10773306D01*
X8667457Y10768114D01*
X6464873Y8565530D01*
X6458707Y8559770D01*
X6415604Y8522169D01*
X6411306Y8516053D01*
X6379284Y8470490D01*
X6375412Y8465277D01*
X6341030Y8421429D01*
X6341026Y8421422D01*
X6336416Y8415543D01*
X6333339Y8408728D01*
X6332148Y8406761D01*
X6323513Y8391623D01*
X6322412Y8389569D01*
X6318113Y8383453D01*
X6315397Y8376487D01*
X6295162Y8324588D01*
X6292650Y8318611D01*
X6266645Y8261016D01*
X6265282Y8253661D01*
X6264589Y8251451D01*
X6259821Y8234713D01*
X6259242Y8232460D01*
X6256524Y8225487D01*
X6255548Y8218071D01*
X6255547Y8218068D01*
X6248279Y8162855D01*
X6247263Y8156441D01*
X6237111Y8101668D01*
X6237110Y8101659D01*
X6235748Y8094308D01*
X6236179Y8086839D01*
X6239294Y8032804D01*
X6239500Y8025667D01*
X6239500Y5678725D01*
X6219815Y5611686D01*
X6197259Y5585497D01*
X6065457Y5469910D01*
X5928863Y5296640D01*
X5926216Y5291609D01*
X5917548Y5275133D01*
X5826131Y5101380D01*
X5824444Y5095947D01*
X5788429Y4979960D01*
X5749750Y4921774D01*
X5685753Y4893736D01*
X5616757Y4904748D01*
X5564667Y4951315D01*
X5550662Y4983074D01*
X5535663Y5036260D01*
X5525565Y5072064D01*
X5427980Y5269947D01*
X5295967Y5446733D01*
X5133949Y5596501D01*
X5129146Y5599532D01*
X5129140Y5599536D01*
X5108332Y5612664D01*
X5062139Y5665084D01*
X5050500Y5717534D01*
X5050500Y9479192D01*
X5070185Y9546231D01*
X5086819Y9566873D01*
X8133127Y12613181D01*
X8194450Y12646666D01*
X8220808Y12649500D01*
X11423025Y12649500D01*
X11495910Y12625818D01*
X11647270Y12515849D01*
X11653206Y12513206D01*
X11653208Y12513205D01*
X11696808Y12493793D01*
X11820197Y12438856D01*
X11888637Y12424309D01*
X11998991Y12400852D01*
X11998996Y12400852D01*
X12005354Y12399500D01*
X12194646Y12399500D01*
X12201004Y12400852D01*
X12201009Y12400852D01*
X12311363Y12424309D01*
X12379803Y12438856D01*
X12503192Y12493793D01*
X12546792Y12513205D01*
X12546794Y12513206D01*
X12552730Y12515849D01*
X12629300Y12571480D01*
X12700612Y12623291D01*
X12700613Y12623292D01*
X12705871Y12627112D01*
X12832533Y12767784D01*
X12927179Y12931716D01*
X12985674Y13111744D01*
X13005460Y13300000D01*
X12985674Y13488256D01*
X12927179Y13668284D01*
X12832533Y13832216D01*
X12821654Y13844299D01*
X12710220Y13968058D01*
X12705871Y13972888D01*
X12552730Y14084151D01*
X12379803Y14161144D01*
X12311363Y14175691D01*
X12201009Y14199148D01*
X12201004Y14199148D01*
X12194646Y14200500D01*
X12005354Y14200500D01*
X11998996Y14199148D01*
X11998991Y14199148D01*
X11888637Y14175691D01*
X11820197Y14161144D01*
X11647270Y14084151D01*
X11642010Y14080330D01*
X11642011Y14080330D01*
X11495910Y13974182D01*
X11423025Y13950500D01*
X7981072Y13950500D01*
X7969403Y13951050D01*
X7969317Y13951058D01*
X7961703Y13952760D01*
X7953906Y13952515D01*
X7953905Y13952515D01*
X7891737Y13950561D01*
X7887842Y13950500D01*
X7859075Y13950500D01*
X7854700Y13949947D01*
X7843062Y13949031D01*
X7797430Y13947597D01*
X7777043Y13941674D01*
X7757999Y13937731D01*
X7744682Y13936049D01*
X7744680Y13936048D01*
X7736942Y13935071D01*
X7729691Y13932200D01*
X7729686Y13932199D01*
X7694493Y13918265D01*
X7683441Y13914481D01*
X7647092Y13903921D01*
X7647088Y13903919D01*
X7639601Y13901744D01*
X7632889Y13897775D01*
X7632890Y13897775D01*
X7621331Y13890939D01*
X7603861Y13882381D01*
X7584129Y13874568D01*
X7577822Y13869985D01*
X7577819Y13869984D01*
X7562111Y13858571D01*
X7547195Y13847734D01*
X7537451Y13841333D01*
X7498135Y13818081D01*
X7483128Y13803074D01*
X7468332Y13790437D01*
X7451163Y13777963D01*
X7446189Y13771950D01*
X7422063Y13742787D01*
X7414200Y13734146D01*
X3997353Y10317299D01*
X3988712Y10309436D01*
X3988647Y10309382D01*
X3982060Y10305202D01*
X3976722Y10299518D01*
X3976720Y10299516D01*
X3934135Y10254167D01*
X3931424Y10251370D01*
X3911089Y10231035D01*
X3908706Y10227963D01*
X3908392Y10227558D01*
X3900805Y10218675D01*
X3869552Y10185393D01*
X3865800Y10178567D01*
X3865795Y10178561D01*
X3859326Y10166793D01*
X3848643Y10150531D01*
X3840424Y10139935D01*
X3840421Y10139931D01*
X3835638Y10133764D01*
X3832538Y10126600D01*
X3817510Y10091872D01*
X3812370Y10081379D01*
X3790373Y10041368D01*
X3788435Y10033819D01*
X3788432Y10033812D01*
X3785092Y10020802D01*
X3778791Y10002398D01*
X3770365Y9982926D01*
X3769145Y9975223D01*
X3769144Y9975220D01*
X3763223Y9937837D01*
X3760854Y9926399D01*
X3749500Y9882177D01*
X3749500Y9860954D01*
X3747973Y9841556D01*
X3744653Y9820595D01*
X3745387Y9812830D01*
X3745387Y9812828D01*
X3748950Y9775140D01*
X3749500Y9763470D01*
X3749500Y5720179D01*
X3729815Y5653140D01*
X3698385Y5619861D01*
X3696227Y5618293D01*
X3691341Y5615386D01*
X3525457Y5469910D01*
X3388863Y5296640D01*
X3386216Y5291609D01*
X3377548Y5275133D01*
X3286131Y5101380D01*
X3220703Y4890667D01*
X3220035Y4885022D01*
X3220034Y4885018D01*
X3213073Y4826203D01*
X3194770Y4671560D01*
X3195141Y4665898D01*
X3195141Y4665894D01*
X3200974Y4576902D01*
X3209200Y4451396D01*
X3263511Y4237548D01*
X3355883Y4037179D01*
X3483222Y3856998D01*
X3487293Y3853032D01*
X3487294Y3853031D01*
X3637190Y3707007D01*
X3637195Y3707003D01*
X3641264Y3703039D01*
X3694391Y3667540D01*
X3739196Y3613929D01*
X3749500Y3564439D01*
X3749500Y3180179D01*
X3729815Y3113140D01*
X3698385Y3079861D01*
X3696226Y3078292D01*
X3691341Y3075386D01*
X3525457Y2929910D01*
X3388863Y2756640D01*
X3386216Y2751609D01*
X3377548Y2735133D01*
X3286131Y2561380D01*
X3220703Y2350667D01*
X3220035Y2345022D01*
X3220034Y2345018D01*
X3206164Y2227831D01*
X3194770Y2131560D01*
X3195141Y2125898D01*
X3195141Y2125894D01*
X3200974Y2036902D01*
X3209200Y1911396D01*
X3263511Y1697548D01*
X3355883Y1497179D01*
X3378527Y1465139D01*
X3462824Y1345861D01*
X3483222Y1316998D01*
X3487293Y1313032D01*
X3487294Y1313031D01*
X3526289Y1275044D01*
X3575401Y1227201D01*
X3590162Y1212821D01*
X3624447Y1151941D01*
X3620375Y1082191D01*
X3579239Y1025714D01*
X3514100Y1000442D01*
X3503636Y1000000D01*
X2919190Y1000000D01*
X2852151Y1019685D01*
X2806396Y1072489D01*
X2796452Y1141647D01*
X2823539Y1200960D01*
X2823196Y1201210D01*
X2824428Y1202905D01*
X2825477Y1205203D01*
X2828300Y1208234D01*
X2840262Y1224699D01*
X2890363Y1323027D01*
X2896321Y1341366D01*
X2909237Y1422911D01*
X2910000Y1432609D01*
X2910000Y1957170D01*
X2905596Y1972169D01*
X2904226Y1973356D01*
X2896668Y1975000D01*
X1859000Y1975000D01*
X1791961Y1994685D01*
X1746206Y2047489D01*
X1735000Y2099000D01*
X1735000Y2242830D01*
X1985000Y2242830D01*
X1989404Y2227831D01*
X1990774Y2226644D01*
X1998332Y2225000D01*
X2892169Y2225000D01*
X2907168Y2229404D01*
X2908355Y2230774D01*
X2909999Y2238332D01*
X2909999Y2767397D01*
X2909237Y2777076D01*
X2896320Y2858641D01*
X2890365Y2876968D01*
X2840262Y2975301D01*
X2828930Y2990898D01*
X2750898Y3068930D01*
X2735301Y3080262D01*
X2636973Y3130363D01*
X2618634Y3136321D01*
X2537089Y3149237D01*
X2527391Y3150000D01*
X2002830Y3150000D01*
X1987831Y3145596D01*
X1986644Y3144226D01*
X1985000Y3136668D01*
X1985000Y2242830D01*
X1735000Y2242830D01*
X1735000Y3132169D01*
X1730596Y3147168D01*
X1729226Y3148355D01*
X1721668Y3149999D01*
X1192603Y3149999D01*
X1182916Y3149237D01*
X1143398Y3142978D01*
X1074104Y3151933D01*
X1020652Y3196929D01*
X1000000Y3265451D01*
X1000000Y3724708D01*
X1019685Y3791747D01*
X1072489Y3837502D01*
X1141647Y3847446D01*
X1204366Y3819139D01*
X1253232Y3777551D01*
X1263141Y3770665D01*
X1432301Y3676124D01*
X1443370Y3671288D01*
X1627667Y3611407D01*
X1639458Y3608814D01*
X1831883Y3585868D01*
X1843949Y3585615D01*
X2037166Y3600483D01*
X2049057Y3602580D01*
X2235702Y3654692D01*
X2246953Y3659056D01*
X2419926Y3746431D01*
X2430125Y3752903D01*
X2494780Y3803418D01*
X2503115Y3815044D01*
X2496683Y3826540D01*
X1770904Y4552319D01*
X1737419Y4613642D01*
X1739224Y4638887D01*
X2041892Y4638887D01*
X2042021Y4637081D01*
X2046203Y4630574D01*
X2673784Y4002993D01*
X2687193Y3995671D01*
X2696607Y4002221D01*
X2718190Y4027224D01*
X2725150Y4037091D01*
X2820868Y4205587D01*
X2825780Y4216620D01*
X2886947Y4400492D01*
X2889622Y4412265D01*
X2914235Y4607097D01*
X2914718Y4614007D01*
X2915033Y4636538D01*
X2914743Y4643448D01*
X2895579Y4838897D01*
X2893235Y4850736D01*
X2837222Y5036260D01*
X2832625Y5047413D01*
X2741648Y5218515D01*
X2734964Y5228575D01*
X2696993Y5275133D01*
X2684845Y5283461D01*
X2674048Y5277271D01*
X2049384Y4652607D01*
X2041892Y4638887D01*
X1739224Y4638887D01*
X1742403Y4683334D01*
X1770904Y4727681D01*
X2496454Y5453231D01*
X2503580Y5466281D01*
X2496505Y5476225D01*
X2454667Y5510836D01*
X2444661Y5517586D01*
X2274195Y5609756D01*
X2263068Y5614433D01*
X2077937Y5671740D01*
X2066130Y5674164D01*
X1873395Y5694421D01*
X1861329Y5694506D01*
X1668340Y5676943D01*
X1656477Y5674680D01*
X1470575Y5619966D01*
X1459386Y5615445D01*
X1287648Y5525662D01*
X1277553Y5519056D01*
X1201699Y5458068D01*
X1137118Y5431402D01*
X1068373Y5443884D01*
X1017288Y5491551D01*
X1000000Y5554706D01*
X1000000Y6438000D01*
X1019685Y6505039D01*
X1049600Y6537200D01*
X2611309Y7708482D01*
X3000000Y8000000D01*
X3000000Y47000000D01*
X1049600Y48462800D01*
X1007779Y48518771D01*
X1000000Y48562000D01*
X1000000Y49194549D01*
X1019685Y49261588D01*
X1072489Y49307343D01*
X1143399Y49317022D01*
X1182913Y49310763D01*
X1192609Y49310000D01*
X1717170Y49310000D01*
X1732169Y49314404D01*
X1733356Y49315774D01*
X1735000Y49323332D01*
X1735000Y49327831D01*
X1985000Y49327831D01*
X1989404Y49312832D01*
X1990774Y49311645D01*
X1998332Y49310001D01*
X2527397Y49310001D01*
X2537076Y49310763D01*
X2618641Y49323680D01*
X2636968Y49329635D01*
X2735301Y49379738D01*
X2750898Y49391070D01*
X2828930Y49469102D01*
X2840262Y49484699D01*
X2890363Y49583027D01*
X2896321Y49601366D01*
X2909237Y49682911D01*
X2910000Y49692609D01*
X2910000Y50217170D01*
X2905596Y50232169D01*
X2904226Y50233356D01*
X2896668Y50235000D01*
X2002830Y50235000D01*
X1987831Y50230596D01*
X1986644Y50229226D01*
X1985000Y50221668D01*
X1985000Y49327831D01*
X1735000Y49327831D01*
X1735000Y50502830D01*
X1985000Y50502830D01*
X1989404Y50487831D01*
X1990774Y50486644D01*
X1998332Y50485000D01*
X2892169Y50485000D01*
X2907168Y50489404D01*
X2908355Y50490774D01*
X2909999Y50498332D01*
X2909999Y51027397D01*
X2909237Y51037076D01*
X2896320Y51118641D01*
X2890365Y51136968D01*
X2840262Y51235301D01*
X2828930Y51250898D01*
X2750898Y51328930D01*
X2735301Y51340262D01*
X2636973Y51390363D01*
X2618634Y51396321D01*
X2537089Y51409237D01*
X2527391Y51410000D01*
X2002830Y51410000D01*
X1987831Y51405596D01*
X1986644Y51404226D01*
X1985000Y51396668D01*
X1985000Y50502830D01*
X1735000Y50502830D01*
X1735000Y51392169D01*
X1730596Y51407168D01*
X1729226Y51408355D01*
X1721668Y51409999D01*
X1192603Y51409999D01*
X1182916Y51409237D01*
X1143398Y51402978D01*
X1074104Y51411933D01*
X1020652Y51456929D01*
X1000000Y51525451D01*
X1000000Y51984708D01*
X1019685Y52051747D01*
X1072489Y52097502D01*
X1141647Y52107446D01*
X1204366Y52079139D01*
X1253232Y52037551D01*
X1263141Y52030665D01*
X1432301Y51936124D01*
X1443370Y51931288D01*
X1627667Y51871407D01*
X1639458Y51868814D01*
X1831883Y51845868D01*
X1843949Y51845615D01*
X2037166Y51860483D01*
X2049057Y51862580D01*
X2235702Y51914692D01*
X2246953Y51919056D01*
X2419926Y52006431D01*
X2430125Y52012903D01*
X2494780Y52063418D01*
X2503115Y52075044D01*
X2496683Y52086540D01*
X1770904Y52812319D01*
X1737419Y52873642D01*
X1739224Y52898887D01*
X2041892Y52898887D01*
X2042021Y52897081D01*
X2046203Y52890574D01*
X2673784Y52262993D01*
X2687193Y52255671D01*
X2696607Y52262221D01*
X2718190Y52287224D01*
X2725150Y52297091D01*
X2820868Y52465587D01*
X2825780Y52476620D01*
X2886947Y52660492D01*
X2889622Y52672265D01*
X2914235Y52867097D01*
X2914718Y52874007D01*
X2915033Y52896538D01*
X2914743Y52903448D01*
X2895579Y53098897D01*
X2893235Y53110736D01*
X2837222Y53296260D01*
X2832625Y53307413D01*
X2741648Y53478515D01*
X2734964Y53488575D01*
X2696993Y53535133D01*
X2684845Y53543461D01*
X2674048Y53537271D01*
X2049384Y52912607D01*
X2041892Y52898887D01*
X1739224Y52898887D01*
X1742403Y52943334D01*
X1770904Y52987681D01*
X2496454Y53713231D01*
X2503580Y53726281D01*
X2496505Y53736225D01*
X2454666Y53770837D01*
X2451160Y53773202D01*
X2406592Y53827011D01*
X2398189Y53896373D01*
X2428621Y53959267D01*
X2488225Y53995725D01*
X2520504Y54000000D01*
X3503976Y54000000D01*
X3571015Y53980315D01*
G37*
%TD.AperFunction*%
%TA.AperFunction,Conductor*%
G36*
X22910703Y15351148D02*
G01*
X22943860Y15303874D01*
X22944790Y15299907D01*
X22948860Y15292503D01*
X22948863Y15292496D01*
X22964719Y15263654D01*
X22969858Y15253164D01*
X22982922Y15222975D01*
X22982924Y15222971D01*
X22986280Y15215217D01*
X22991596Y15208652D01*
X22991602Y15208642D01*
X22995106Y15204315D01*
X23007393Y15186031D01*
X23011020Y15179435D01*
X23014153Y15173737D01*
X23020836Y15165995D01*
X23044121Y15142710D01*
X23052806Y15133064D01*
X23076888Y15103325D01*
X23083776Y15098430D01*
X23083778Y15098428D01*
X23091276Y15093100D01*
X23107126Y15079705D01*
X27963181Y10223650D01*
X27996666Y10162327D01*
X27999500Y10135969D01*
X27999500Y5817855D01*
X27979815Y5750816D01*
X27927011Y5705061D01*
X27857853Y5695117D01*
X27817851Y5709852D01*
X27817224Y5708621D01*
X27812160Y5711201D01*
X27807350Y5714236D01*
X27602421Y5795994D01*
X27596840Y5797104D01*
X27596837Y5797105D01*
X27478497Y5820644D01*
X27386024Y5839038D01*
X27380337Y5839112D01*
X27380332Y5839113D01*
X27171095Y5841852D01*
X27171090Y5841852D01*
X27165406Y5841926D01*
X27159802Y5840963D01*
X27159801Y5840963D01*
X26953560Y5805525D01*
X26953557Y5805524D01*
X26947957Y5804562D01*
X26740957Y5728196D01*
X26679332Y5691533D01*
X26614800Y5653140D01*
X26551341Y5615386D01*
X26385457Y5469910D01*
X26248863Y5296640D01*
X26246216Y5291609D01*
X26237548Y5275133D01*
X26146131Y5101380D01*
X26144444Y5095947D01*
X26108429Y4979960D01*
X26069750Y4921774D01*
X26005753Y4893736D01*
X25936757Y4904748D01*
X25884667Y4951315D01*
X25870662Y4983074D01*
X25855663Y5036260D01*
X25845565Y5072064D01*
X25747980Y5269947D01*
X25615967Y5446733D01*
X25453949Y5596501D01*
X25428332Y5612664D01*
X25272159Y5711202D01*
X25272157Y5711203D01*
X25267350Y5714236D01*
X25062421Y5795994D01*
X25056840Y5797104D01*
X25056837Y5797105D01*
X24938497Y5820644D01*
X24846024Y5839038D01*
X24840337Y5839112D01*
X24840332Y5839113D01*
X24631095Y5841852D01*
X24631090Y5841852D01*
X24625406Y5841926D01*
X24619802Y5840963D01*
X24619801Y5840963D01*
X24413560Y5805525D01*
X24413557Y5805524D01*
X24407957Y5804562D01*
X24200957Y5728196D01*
X24139332Y5691533D01*
X24074800Y5653140D01*
X24011341Y5615386D01*
X23845457Y5469910D01*
X23708863Y5296640D01*
X23706216Y5291609D01*
X23697548Y5275133D01*
X23606131Y5101380D01*
X23604444Y5095947D01*
X23568429Y4979960D01*
X23529750Y4921774D01*
X23465753Y4893736D01*
X23396757Y4904748D01*
X23344667Y4951315D01*
X23330662Y4983074D01*
X23315663Y5036260D01*
X23305565Y5072064D01*
X23207980Y5269947D01*
X23075967Y5446733D01*
X22913949Y5596501D01*
X22885529Y5614433D01*
X22790860Y5674164D01*
X22763332Y5691533D01*
X22717139Y5743954D01*
X22705500Y5796403D01*
X22705500Y15257435D01*
X22725185Y15324474D01*
X22777989Y15370229D01*
X22847147Y15380173D01*
X22910703Y15351148D01*
G37*
%TD.AperFunction*%
%TA.AperFunction,Conductor*%
G36*
X16505987Y16756295D02*
G01*
X16557132Y16708692D01*
X16574500Y16645402D01*
X16574500Y5794867D01*
X16554815Y5727828D01*
X16513900Y5688301D01*
X16438901Y5643681D01*
X16391341Y5615386D01*
X16225457Y5469910D01*
X16088863Y5296640D01*
X16086216Y5291609D01*
X16077548Y5275133D01*
X15986131Y5101380D01*
X15984444Y5095947D01*
X15948429Y4979960D01*
X15909750Y4921774D01*
X15845753Y4893736D01*
X15776757Y4904748D01*
X15724667Y4951315D01*
X15710662Y4983074D01*
X15695663Y5036260D01*
X15685565Y5072064D01*
X15587980Y5269947D01*
X15455967Y5446733D01*
X15293949Y5596501D01*
X15268332Y5612664D01*
X15112159Y5711202D01*
X15112157Y5711203D01*
X15107350Y5714236D01*
X14902421Y5795994D01*
X14896840Y5797104D01*
X14896837Y5797105D01*
X14778497Y5820644D01*
X14686024Y5839038D01*
X14680337Y5839112D01*
X14680332Y5839113D01*
X14471095Y5841852D01*
X14471090Y5841852D01*
X14465406Y5841926D01*
X14459802Y5840963D01*
X14459801Y5840963D01*
X14253560Y5805525D01*
X14253557Y5805524D01*
X14247957Y5804562D01*
X14040957Y5728196D01*
X13979332Y5691533D01*
X13914800Y5653140D01*
X13851341Y5615386D01*
X13685457Y5469910D01*
X13548863Y5296640D01*
X13546216Y5291609D01*
X13537548Y5275133D01*
X13446131Y5101380D01*
X13444444Y5095947D01*
X13408429Y4979960D01*
X13369750Y4921774D01*
X13305753Y4893736D01*
X13236757Y4904748D01*
X13184667Y4951315D01*
X13170662Y4983074D01*
X13155663Y5036260D01*
X13145565Y5072064D01*
X13047980Y5269947D01*
X12915967Y5446733D01*
X12753949Y5596501D01*
X12728332Y5612664D01*
X12572159Y5711202D01*
X12572157Y5711203D01*
X12567350Y5714236D01*
X12362421Y5795994D01*
X12356840Y5797104D01*
X12356837Y5797105D01*
X12238497Y5820644D01*
X12146024Y5839038D01*
X12140337Y5839112D01*
X12140332Y5839113D01*
X11931095Y5841852D01*
X11931090Y5841852D01*
X11925406Y5841926D01*
X11919802Y5840963D01*
X11919801Y5840963D01*
X11713560Y5805525D01*
X11713557Y5805524D01*
X11707957Y5804562D01*
X11500957Y5728196D01*
X11439332Y5691533D01*
X11374800Y5653140D01*
X11311341Y5615386D01*
X11145457Y5469910D01*
X11008863Y5296640D01*
X11006216Y5291609D01*
X10997548Y5275133D01*
X10906131Y5101380D01*
X10904444Y5095947D01*
X10868429Y4979960D01*
X10829750Y4921774D01*
X10765753Y4893736D01*
X10696757Y4904748D01*
X10644667Y4951315D01*
X10630662Y4983074D01*
X10615663Y5036260D01*
X10605565Y5072064D01*
X10507980Y5269947D01*
X10375967Y5446733D01*
X10213949Y5596501D01*
X10188332Y5612664D01*
X10032159Y5711202D01*
X10032157Y5711203D01*
X10027350Y5714236D01*
X9822421Y5795994D01*
X9816840Y5797104D01*
X9816837Y5797105D01*
X9698497Y5820644D01*
X9606024Y5839038D01*
X9600337Y5839112D01*
X9600332Y5839113D01*
X9391095Y5841852D01*
X9391090Y5841852D01*
X9385406Y5841926D01*
X9379802Y5840963D01*
X9379801Y5840963D01*
X9173560Y5805525D01*
X9173557Y5805524D01*
X9167957Y5804562D01*
X8960957Y5728196D01*
X8899332Y5691533D01*
X8834800Y5653140D01*
X8771341Y5615386D01*
X8605457Y5469910D01*
X8468863Y5296640D01*
X8466216Y5291609D01*
X8457548Y5275133D01*
X8366131Y5101380D01*
X8364444Y5095947D01*
X8328429Y4979960D01*
X8289750Y4921774D01*
X8225753Y4893736D01*
X8156757Y4904748D01*
X8104667Y4951315D01*
X8090662Y4983074D01*
X8075663Y5036260D01*
X8065565Y5072064D01*
X7967980Y5269947D01*
X7835967Y5446733D01*
X7680328Y5590604D01*
X7644462Y5650564D01*
X7640500Y5681659D01*
X7640500Y7708482D01*
X7660185Y7775521D01*
X7676819Y7796163D01*
X9433837Y9553181D01*
X9495160Y9586666D01*
X9521518Y9589500D01*
X12861422Y9589500D01*
X12869856Y9589213D01*
X12926930Y9585322D01*
X12957197Y9590605D01*
X12989159Y9596183D01*
X12995582Y9597132D01*
X13050899Y9603826D01*
X13058320Y9604724D01*
X13065312Y9607366D01*
X13067548Y9607915D01*
X13084390Y9612523D01*
X13086592Y9613188D01*
X13093954Y9614473D01*
X13151806Y9639868D01*
X13157808Y9642317D01*
X13209934Y9662014D01*
X13209935Y9662014D01*
X13216923Y9664655D01*
X13223080Y9668886D01*
X13225105Y9669945D01*
X13240367Y9678440D01*
X13242353Y9679614D01*
X13249202Y9682621D01*
X13255132Y9687171D01*
X13255135Y9687173D01*
X13299338Y9721092D01*
X13304590Y9724907D01*
X13350487Y9756451D01*
X13350490Y9756454D01*
X13356651Y9760688D01*
X13397649Y9806703D01*
X13402551Y9811895D01*
X15855126Y12264469D01*
X15861293Y12270230D01*
X15898762Y12302916D01*
X15898763Y12302917D01*
X15904396Y12307831D01*
X15940724Y12359521D01*
X15944588Y12364723D01*
X15978970Y12408571D01*
X15978974Y12408578D01*
X15983584Y12414457D01*
X15986661Y12421272D01*
X15987852Y12423239D01*
X15996487Y12438377D01*
X15997588Y12440431D01*
X16001887Y12446547D01*
X16024838Y12505412D01*
X16027352Y12511393D01*
X16031089Y12519670D01*
X16053355Y12568984D01*
X16054718Y12576339D01*
X16055411Y12578549D01*
X16060179Y12595287D01*
X16060758Y12597540D01*
X16063476Y12604513D01*
X16069736Y12652062D01*
X16071721Y12667145D01*
X16072737Y12673559D01*
X16082889Y12728332D01*
X16082890Y12728341D01*
X16084252Y12735692D01*
X16080706Y12797196D01*
X16080500Y12804333D01*
X16080500Y16224182D01*
X16100185Y16291221D01*
X16110632Y16305206D01*
X16197547Y16405899D01*
X16201509Y16410489D01*
X16298425Y16581091D01*
X16332839Y16684543D01*
X16372679Y16741941D01*
X16437226Y16768689D01*
X16505987Y16756295D01*
G37*
%TD.AperFunction*%
%TA.AperFunction,Conductor*%
G36*
X31697591Y9882093D02*
G01*
X31734804Y9822958D01*
X31739500Y9789157D01*
X31739500Y5750247D01*
X31719815Y5683208D01*
X31678902Y5643682D01*
X31631341Y5615386D01*
X31465457Y5469910D01*
X31328863Y5296640D01*
X31326216Y5291609D01*
X31317548Y5275133D01*
X31226131Y5101380D01*
X31224444Y5095947D01*
X31188429Y4979960D01*
X31149750Y4921774D01*
X31085753Y4893736D01*
X31016757Y4904748D01*
X30964667Y4951315D01*
X30950662Y4983074D01*
X30935663Y5036260D01*
X30925565Y5072064D01*
X30827980Y5269947D01*
X30695967Y5446733D01*
X30533949Y5596501D01*
X30508332Y5612664D01*
X30458332Y5644212D01*
X30412139Y5696633D01*
X30400500Y5749082D01*
X30400500Y9069903D01*
X30420185Y9136942D01*
X30436819Y9157584D01*
X31032416Y9753181D01*
X31093739Y9786666D01*
X31120097Y9789500D01*
X31214646Y9789500D01*
X31221004Y9790852D01*
X31221009Y9790852D01*
X31346400Y9817505D01*
X31399803Y9828856D01*
X31565065Y9902436D01*
X31634314Y9911721D01*
X31697591Y9882093D01*
G37*
%TD.AperFunction*%
%TA.AperFunction,Conductor*%
G36*
X36920703Y35010289D02*
G01*
X36945565Y34980811D01*
X36999642Y34891520D01*
X37031759Y34838488D01*
X37156514Y34709301D01*
X37162308Y34705510D01*
X37162311Y34705507D01*
X37221785Y34666589D01*
X37306789Y34610964D01*
X37313284Y34608549D01*
X37313285Y34608548D01*
X37321403Y34605529D01*
X37475116Y34548364D01*
X37653130Y34524612D01*
X37660031Y34525240D01*
X37660033Y34525240D01*
X37776741Y34535861D01*
X37831981Y34540888D01*
X37892183Y34560449D01*
X37962022Y34562444D01*
X38021855Y34526364D01*
X38052684Y34463664D01*
X38054500Y34442518D01*
X38054500Y31477385D01*
X38034815Y31410346D01*
X37982011Y31364591D01*
X37912853Y31354647D01*
X37849297Y31383672D01*
X37842515Y31390009D01*
X37839659Y31392885D01*
X37839653Y31392890D01*
X37834770Y31397807D01*
X37683136Y31494037D01*
X37674746Y31497025D01*
X37520479Y31551957D01*
X37520475Y31551958D01*
X37513951Y31554281D01*
X37335624Y31575545D01*
X37328730Y31574820D01*
X37321797Y31574869D01*
X37321814Y31577289D01*
X37264176Y31587832D01*
X37232269Y31610900D01*
X36751819Y32091350D01*
X36718334Y32152673D01*
X36715500Y32179031D01*
X36715500Y34916576D01*
X36735185Y34983615D01*
X36787989Y35029370D01*
X36857147Y35039314D01*
X36920703Y35010289D01*
G37*
%TD.AperFunction*%
%TA.AperFunction,Conductor*%
G36*
X29139008Y45674815D02*
G01*
X29184763Y45622011D01*
X29194707Y45552853D01*
X29165682Y45489297D01*
X29159650Y45482819D01*
X28008601Y44331770D01*
X28004852Y44328175D01*
X27961288Y44288116D01*
X27956833Y44280931D01*
X27939495Y44252968D01*
X27932888Y44243352D01*
X27907872Y44210396D01*
X27904760Y44202536D01*
X27902710Y44197358D01*
X27892809Y44177670D01*
X27885418Y44165750D01*
X27883059Y44157632D01*
X27883059Y44157631D01*
X27873878Y44126030D01*
X27870099Y44114990D01*
X27854871Y44076528D01*
X27853988Y44068129D01*
X27853986Y44068120D01*
X27853404Y44062581D01*
X27849161Y44040954D01*
X27845249Y44027488D01*
X27844500Y44017288D01*
X27844500Y43984357D01*
X27843821Y43971395D01*
X27839821Y43933338D01*
X27841231Y43925002D01*
X27841231Y43924998D01*
X27842763Y43915938D01*
X27844500Y43895259D01*
X27844500Y38764625D01*
X27824815Y38697586D01*
X27772011Y38651831D01*
X27702853Y38641887D01*
X27698213Y38642763D01*
X27693951Y38644281D01*
X27515624Y38665545D01*
X27508730Y38664820D01*
X27501797Y38664869D01*
X27501814Y38667289D01*
X27444176Y38677832D01*
X27412269Y38700900D01*
X27041819Y39071350D01*
X27008334Y39132673D01*
X27005500Y39159031D01*
X27005500Y43700969D01*
X27025185Y43768008D01*
X27041819Y43788650D01*
X28911350Y45658181D01*
X28972673Y45691666D01*
X28999031Y45694500D01*
X29071969Y45694500D01*
X29139008Y45674815D01*
G37*
%TD.AperFunction*%
M02*
